SplineFontDB: 2.0
FontName: Sawasdee-BoldOblique
FullName: Sawasdee Bold Oblique
FamilyName: Sawasdee
Weight: Bold
Copyright: Created by Pol Udomwittayanukul,,, with FontForge 2.0 (http://fontforge.sf.net)
Version: 001.000
ItalicAngle: -12
UnderlinePosition: -75
UnderlineWidth: 50
Ascent: 750
Descent: 250
NeedsXUIDChange: 1
XUID: [1021 180 1442959360 14302000]
UniqueID: 4076113
FSType: 8
OS2Version: 0
OS2_WeightWidthSlopeOnly: 0
OS2_UseTypoMetrics: 1
CreationTime: 1178430034
ModificationTime: 1181203273
PfmFamily: 17
TTFWeight: 700
TTFWidth: 5
LineGap: 90
VLineGap: 0
OS2TypoAscent: 0
OS2TypoAOffset: 1
OS2TypoDescent: 0
OS2TypoDOffset: 1
OS2TypoLinegap: 90
OS2WinAscent: 0
OS2WinAOffset: 1
OS2WinDescent: 0
OS2WinDOffset: 1
HheadAscent: 2
HheadAOffset: 1
HheadDescent: 40
HheadDOffset: 1
OS2Vendor: 'PfEd'
Lookup: 4 0 1 "'liga' Standard Ligatures in Latin lookup 0"  {"'liga' Standard Ligatures in Latin lookup 0"  } ['liga' ('latn' <'dflt' > ) ]
Lookup: 4 0 0 "'frac' Diagonal Fractions in Latin lookup 42"  {"'frac' Diagonal Fractions in Latin lookup 42"  } ['frac' ('latn' <'dflt' > ) ]
Lookup: 6 0 0 "'ccmp' Glyph Composition/Decomposition in Thai lookup 0"  {"'ccmp' Glyph Composition/Decomposition in Thai lookup 0"  } ['ccmp' ('thai' <'KUY ' 'PAL ' 'THA ' 'dflt' > ) ]
Lookup: 6 0 0 "'ccmp' Glyph Composition/Decomposition in Thai lookup 1"  {"'ccmp' Glyph Composition/Decomposition in Thai lookup 1"  } ['ccmp' ('thai' <'KUY ' 'PAL ' 'THA ' 'dflt' > ) ]
Lookup: 5 0 0 "Required Feature in Thai lookup 2"  {"Required Feature in Thai lookup 2"  } [' RQD' ('thai' <'PAL ' > ) ]
Lookup: 1 0 0 "Single Substitution lookup 3"  {"Single Substitution lookup 3"  } []
Lookup: 1 0 0 "Single Substitution lookup 4"  {"Single Substitution lookup 4"  } []
Lookup: 2 0 0 "Multiple Substitution lookup 5"  {"Multiple Substitution lookup 5"  } []
Lookup: 1 0 0 "Single Substitution lookup 6"  {"Single Substitution lookup 6"  } []

StartChar: exclam
Encoding: 1 33 1
Width: 255
VWidth: 1333
Flags: HW
HStem: -5 106<104.5 164.7>
VStem: 84 109<12.2 78.6>
Fore
84 37 m 0
 84 69 115 101 150 101 c 0
 175 101 193 83 193 59 c 0
 193 23 156 -5 127 -5 c 0
 102 -5 84 13 84 37 c 0
190 157 m 1
 132 157 l 1
 226 665 l 1
 312 665 l 1
 190 157 l 1
EndSplineSet
EndChar
StartChar: quotedbl
Encoding: 2 34 2
Width: 341
VWidth: 1333
Flags: HW
Fore
253 504 m 1
 196 504 l 1
 224 709 l 1
 312 709 l 1
 253 504 l 1
359 504 m 1
 303 504 l 1
 331 709 l 1
 419 709 l 1
 359 504 l 1
EndSplineSet
EndChar
StartChar: numbersign
Encoding: 3 35 3
Width: 477
VWidth: 1333
Flags: HW
HStem: -1 21G<26 100 213 286> 191 72<40 116 221 303 408 487> 404 72<131 212 319 398 505 579> 648 20G<335 409 521 596>
Fore
286 -1 m 1
 213 -1 l 1
 303 191 l 1
 190 191 l 1
 100 -1 l 1
 26 -1 l 1
 116 191 l 1
 25 191 l 1
 40 263 l 1
 149 263 l 1
 212 404 l 1
 115 404 l 1
 131 476 l 1
 245 476 l 1
 335 668 l 1
 409 668 l 1
 319 476 l 1
 431 476 l 1
 521 668 l 1
 596 668 l 1
 505 476 l 1
 594 476 l 1
 579 404 l 1
 472 404 l 1
 408 263 l 1
 502 263 l 1
 487 191 l 1
 376 191 l 1
 286 -1 l 1
221 263 m 1
 334 263 l 1
 398 404 l 1
 285 404 l 1
 221 263 l 1
EndSplineSet
EndChar
StartChar: dollar
Encoding: 4 36 4
Width: 477
VWidth: 1333
Flags: HW
VStem: 62 72<116.8 215.031> 63 72<183.161 221.557> 176 72<455.6 528.4> 435 74<139.1 284.7>
Fore
63 208 m 1x70
 135 217 l 1x70
 134 207 134 197 134 187 c 0
 134 133 149 79 221 64 c 1
 282 351 l 1
 234 375 176 408 176 478 c 0
 176 555 242 653 350 671 c 1
 363 730 l 1
 433 730 l 1
 420 671 l 1
 529 648 536 549 539 532 c 1
 468 509 l 1
 466 520 463 580 407 600 c 1
 364 398 l 1
 431 368 509 330 509 239 c 0
 509 139 419 20 279 -2 c 1
 266 -61 l 1
 194 -61 l 1
 206 -7 l 1
 128 4 62 53 62 178 c 0xb0
 62 188 62 198 63 208 c 1x70
292 64 m 1
 382 85 435 158 435 221 c 0
 435 270 397 296 346 320 c 1
 292 64 l 1
334 597 m 1
 270 579 248 520 248 492 c 0
 248 464 267 445 298 427 c 1
 334 597 l 1
EndSplineSet
EndChar
StartChar: percent
Encoding: 5 37 5
Width: 649
VWidth: 1333
Flags: HW
HStem: -8 70<456.2 557.6> 202 70<465.4 579.8> 394 70<216.9 319.6> 604 70<230.3 342.1>
VStem: 133 72<478.4 572> 354 72<486.9 589.6> 371 73<76.4 168.7> 592 73<84.9 187.6>
Fore
665 160 m 0xfb
 665 80 585 -8 488 -8 c 0
 419 -8 371 40 371 104 c 0
 371 186 453 272 548 272 c 0
 617 272 665 224 665 160 c 0xfb
533 202 m 0
 481 202 444 157 444 118 c 0
 444 86 467 62 503 62 c 0
 545 62 592 99 592 146 c 0
 592 178 569 202 533 202 c 0
426 563 m 0xfd
 426 479 344 394 250 394 c 0
 181 394 133 442 133 505 c 0
 133 589 214 674 309 674 c 0
 379 674 426 627 426 563 c 0xfd
294 604 m 0
 245 604 205 560 205 520 c 0
 205 488 228 464 265 464 c 0
 307 464 354 501 354 548 c 0
 354 580 331 604 294 604 c 0
669 667 m 1
 756 667 l 1
 128 0 l 1
 41 0 l 1
 669 667 l 1
EndSplineSet
EndChar
StartChar: ampersand
Encoding: 6 38 6
Width: 671
VWidth: 1333
Flags: HW
HStem: -8 68<204.8 395.9> 606 68<391.1 499>
VStem: 97 72<98.1 311.3> 293 72<485.762 590.8> 527 72<517.232 607.1>
Fore
460 606 m 0
 407 606 365 574 365 518 c 0
 365 503 368 486 378 467 c 2
 529 175 l 1
 541 195 550 217 555 242 c 2
 558 257 l 1
 631 257 l 1
 628 242 l 2
 618 194 594 150 562 112 c 1
 621 0 l 1
 534 0 l 1
 503 58 l 1
 448 17 380 -8 312 -8 c 0
 186 -8 97 78 97 192 c 0
 97 290 164 411 297 468 c 1
 294 480 293 492 293 504 c 0
 293 601 376 674 474 674 c 0
 543 674 599 636 599 559 c 0
 599 548 598 535 595 522 c 2
 591 506 l 1
 521 506 l 1
 524 522 l 2
 526 531 527 539 527 546 c 0
 527 593 490 606 460 606 c 0
320 408 m 1
 231 372 169 287 169 206 c 0
 169 123 233 60 327 60 c 0
 380 60 433 81 474 113 c 1
 320 408 l 1
EndSplineSet
EndChar
StartChar: quoteright
Encoding: 300 8217 7
Width: 213
VWidth: 1333
Flags: HW
VStem: 180 117<583.9 658>
Fore
180 619 m 0
 180 649 212 681 246 681 c 0
 271 681 297 665 297 629 c 0
 297 545 195 476 195 476 c 1
 185 473 l 1
 119 473 l 1
 162 502 l 2
 187 518 213 550 226 575 c 1
 224 575 l 2
 202 575 180 592 180 619 c 0
EndSplineSet
EndChar
StartChar: parenleft
Encoding: 8 40 8
Width: 233
VWidth: 1333
Flags: HW
VStem: 63 74<-4.1 432.7>
Fore
63 122 m 0
 63 361 156 554 279 719 c 1
 344 719 l 1
 243 565 137 362 137 101 c 0
 137 14 149 -63 165 -136 c 1
 100 -136 l 1
 79 -60 63 25 63 122 c 0
EndSplineSet
EndChar
StartChar: parenright
Encoding: 9 41 9
Width: 233
VWidth: 1333
Flags: HW
VStem: 223 76<152.7 593>
Fore
299 476 m 0
 299 218 170 0 76 -136 c 1
 11 -136 l 1
 108 15 223 231 223 492 c 0
 223 574 211 647 195 719 c 1
 260 719 l 1
 283 647 299 566 299 476 c 0
EndSplineSet
EndChar
StartChar: asterisk
Encoding: 10 42 10
Width: 439
VWidth: 1333
Flags: HW
HStem: 524 281<354 387>
VStem: 214 297<669 669>
Fore
354 805 m 1
 429 805 l 1
 410 716 l 1
 509 739 l 1
 511 669 l 1
 417 648 l 1
 456 565 l 1
 387 524 l 1
 349 607 l 1
 276 524 l 1
 225 565 l 1
 298 648 l 1
 214 669 l 1
 245 739 l 1
 335 716 l 1
 354 805 l 1
EndSplineSet
EndChar
StartChar: plus
Encoding: 11 43 11
Width: 418
VWidth: 1333
Flags: HW
HStem: 297 72<95 237 324 466>
VStem: 79 402<297 369>
Fore
275 140 m 1
 203 140 l 1
 237 297 l 1
 79 297 l 1
 95 369 l 1
 252 369 l 1
 285 527 l 1
 357 527 l 1
 324 369 l 1
 481 369 l 1
 466 297 l 1
 309 297 l 1
 275 140 l 1
EndSplineSet
EndChar
StartChar: comma
Encoding: 12 44 12
Width: 255
VWidth: 1333
Flags: HW
VStem: 84 116<3.8 79.2>
Fore
84 35 m 0
 84 69 116 100 149 100 c 0
 176 100 200 82 200 47 c 0
 200 -48 88 -108 88 -108 c 1
 35 -108 l 1
 74 -82 120 -35 126 -7 c 1
 101 -6 84 11 84 35 c 0
EndSplineSet
EndChar
StartChar: hyphen
Encoding: 13 45 13
Width: 402
VWidth: 1333
Flags: HW
HStem: 231 72<112 404>
VStem: 97 322<231 303>
Fore
419 303 m 1
 404 231 l 1
 97 231 l 1
 112 303 l 1
 419 303 l 1
EndSplineSet
EndChar
StartChar: period
Encoding: 14 46 14
Width: 255
VWidth: 1333
Flags: HW
HStem: -5 106<104.5 164.7>
VStem: 84 109<12.2 78.6>
Fore
84 37 m 0
 84 69 115 101 150 101 c 0
 175 101 193 83 193 59 c 0
 193 23 156 -5 127 -5 c 0
 102 -5 84 13 84 37 c 0
EndSplineSet
EndChar
StartChar: slash
Encoding: 15 47 15
Width: 522
VWidth: 1333
Flags: HW
Fore
610 683 m 1
 699 683 l 1
 54 -16 l 1
 -34 -16 l 1
 610 683 l 1
EndSplineSet
EndChar
StartChar: zero
Encoding: 16 48 16
Width: 527
VWidth: 1286
Flags: HW
HStem: -6 68<199.4 406.1> 604 69<268.9 475.6>
VStem: 94 71<98.1 492> 510 71<174 567.9>
Fore
581 436 m 0
 581 233 437 -6 265 -6 c 0
 154 -6 94 98 94 230 c 0
 94 433 238 673 410 673 c 0
 521 673 581 569 581 436 c 0
395 604 m 0
 298 604 165 435 165 245 c 0
 165 132 218 62 280 62 c 0
 377 62 510 231 510 421 c 0
 510 534 457 604 395 604 c 0
EndSplineSet
EndChar
StartChar: one
Encoding: 17 49 17
Width: 526
VWidth: 1287
Flags: HW
HStem: 0 21G<229 301>
VStem: 229 215<0 673>
Fore
346 551 m 1
 278 516 l 1
 256 575 l 1
 444 673 l 1
 301 0 l 1
 229 0 l 1
 346 551 l 1
EndSplineSet
EndChar
StartChar: two
Encoding: 18 50 18
Width: 526
VWidth: 1286
Flags: HW
HStem: 0 69<123 491> 605 68<302.4 476.6>
VStem: 503 71<451.347 578.1>
Fore
574 503 m 0
 574 262 203 229 123 69 c 1
 506 69 l 1
 491 0 l 1
 34 0 l 1
 41 33 l 2
 89 261 465 296 499 456 c 0
 502 468 503 480 503 491 c 0
 503 558 458 605 396 605 c 0
 324 605 247 541 229 456 c 2
 226 440 l 1
 155 440 l 1
 158 456 l 2
 183 574 294 673 410 673 c 0
 509 673 574 599 574 503 c 0
EndSplineSet
EndChar
StartChar: three
Encoding: 19 51 19
Width: 527
VWidth: 1286
Flags: HW
HStem: -6 68<190 392.8> 347 69<341 416> 604 69<323.2 461>
VStem: 89 73<92.5 210.775> 461 71<113.4 317.5> 480 72<459.4 583.5>
Fore
532 247 m 0xf8
 532 122 408 -6 265 -6 c 0
 161 -6 89 66 89 163 c 0
 89 177 90 191 93 205 c 2
 97 220 l 1
 168 220 l 1
 165 205 l 2
 163 195 162 186 162 177 c 0
 162 112 211 62 281 62 c 0
 367 62 461 141 461 233 c 0xf8
 461 298 412 347 342 347 c 2
 326 347 l 1
 341 416 l 1
 356 416 l 2
 416 416 480 460 480 525 c 0
 480 570 446 604 396 604 c 0
 340 604 285 560 274 506 c 2
 270 491 l 1
 200 491 l 1
 203 506 l 2
 223 599 316 673 411 673 c 0
 494 673 552 617 552 540 c 0xf4
 552 478 516 420 462 384 c 1
 506 354 532 305 532 247 c 0xf8
EndSplineSet
EndChar
StartChar: four
Encoding: 20 52 20
Width: 526
VWidth: 1287
Flags: HW
HStem: 1 21G<359 430> 119 69<155 384 469 509>
Fore
399 188 m 1
 465 500 l 1
 155 188 l 1
 399 188 l 1
430 1 m 1
 359 1 l 1
 384 119 l 1
 -1 119 l 1
 579 705 l 1
 469 188 l 1
 547 188 l 1
 509 119 l 1
 455 119 l 1
 430 1 l 1
EndSplineSet
EndChar
StartChar: five
Encoding: 21 53 21
Width: 526
VWidth: 1286
Flags: HW
HStem: -8 69<177.9 415.8> 417 66<300.4 452.8> 598 69<270 545>
VStem: 75 72<95 219> 485 72<133.4 383>
Fore
278 61 m 0
 384 61 485 167 485 279 c 0
 485 359 430 417 354 417 c 0
 295 417 233 383 184 318 c 1
 115 318 l 1
 219 667 l 1
 583 667 l 1
 545 598 l 1
 270 598 l 1
 222 438 l 1
 266 466 316 483 368 483 c 0
 482 483 557 399 557 291 c 0
 557 143 420 -8 264 -8 c 0
 150 -8 75 76 75 184 c 2
 77 219 l 1
 147 219 l 1
 147 199 l 2
 147 119 201 61 278 61 c 0
EndSplineSet
EndChar
StartChar: six
Encoding: 22 54 22
Width: 526
VWidth: 1286
Flags: HW
HStem: -7 68<179.2 410.6> 420 67<317.793 453.8> 648 20G<411 496>
VStem: 75 73<96.7 352.8> 486 72<132.2 385.7>
Fore
278 61 m 0
 380 61 486 167 486 283 c 0
 486 362 431 420 355 420 c 0
 253 420 148 318 148 202 c 0
 148 121 202 61 278 61 c 0
75 188 m 0
 75 347 203 437 411 668 c 1
 496 668 l 1
 329 484 l 1
 342 486 356 487 369 487 c 0
 483 487 558 403 558 295 c 0
 558 147 419 -7 264 -7 c 0
 149 -7 75 79 75 188 c 0
EndSplineSet
EndChar
StartChar: seven
Encoding: 23 55 23
Width: 527
VWidth: 1286
Flags: HW
HStem: 0 21G<155 233> 598 69<208 558>
Fore
208 667 m 1
 681 667 l 1
 233 0 l 1
 155 0 l 1
 558 598 l 1
 170 598 l 1
 208 667 l 1
EndSplineSet
EndChar
StartChar: eight
Encoding: 24 56 24
Width: 527
VWidth: 1286
Flags: HW
HStem: -6 68<189 391.8> 347 69<290 430.4> 604 69<319.6 458.7>
VStem: 89 72<92.8 278.7> 200 72<437.1 572.3> 460 71<113.4 317.5> 478 71<447.4 583.9>
Fore
549 542 m 0xfa
 549 468 499 413 460 386 c 1
 505 356 531 306 531 247 c 0xfc
 531 119 406 -6 265 -6 c 0
 161 -6 89 66 89 163 c 0
 89 252 149 340 238 386 c 1
 214 409 200 441 200 477 c 0
 200 575 297 673 410 673 c 0
 492 673 549 617 549 542 c 0xfa
340 347 m 0
 254 347 161 270 161 176 c 0
 161 112 210 62 280 62 c 0
 366 62 460 141 460 233 c 0
 460 298 411 347 340 347 c 0
395 604 m 0
 337 604 272 554 272 493 c 0
 272 450 305 416 355 416 c 0
 413 416 478 466 478 528 c 0xfa
 478 571 444 604 395 604 c 0
EndSplineSet
EndChar
StartChar: nine
Encoding: 25 57 25
Width: 526
VWidth: 1286
Flags: HW
HStem: 0 21G<177 262> 181 67<219.2 348.362> 605 67<261.4 492.8>
VStem: 115 72<281.7 535.2> 525 72<316.5 571.3>
Fore
394 605 m 0
 292 605 187 501 187 387 c 0
 187 306 242 248 318 248 c 0
 419 248 525 351 525 466 c 0
 525 547 470 605 394 605 c 0
597 480 m 0
 597 321 466 226 262 0 c 1
 177 0 l 1
 343 184 l 1
 330 182 317 181 304 181 c 0
 189 181 115 264 115 372 c 0
 115 520 252 672 408 672 c 0
 523 672 597 589 597 480 c 0
EndSplineSet
EndChar
StartChar: colon
Encoding: 26 58 26
Width: 255
VWidth: 1333
Flags: HW
HStem: -5 106<104.5 164.7> 353 107<187 240.7>
VStem: 84 109<12.2 78.6> 160 109<368.6 445.4>
Fore
84 37 m 0xe0
 84 69 115 101 150 101 c 0
 175 101 193 83 193 59 c 0
 193 23 156 -5 127 -5 c 0
 102 -5 84 13 84 37 c 0xe0
160 396 m 0xd0
 160 434 196 460 226 460 c 0
 251 460 269 442 269 418 c 0
 269 380 232 353 203 353 c 0
 178 353 160 371 160 396 c 0xd0
EndSplineSet
EndChar
StartChar: semicolon
Encoding: 27 59 27
Width: 255
VWidth: 1333
Flags: HW
HStem: 353 107<187 240.7>
VStem: 84 116<3.8 79.2> 160 109<368.6 445.4>
Fore
84 35 m 0xc0
 84 69 116 100 149 100 c 0
 176 100 200 82 200 47 c 0
 200 -48 88 -108 88 -108 c 1
 35 -108 l 1
 74 -82 120 -35 126 -7 c 1
 101 -6 84 11 84 35 c 0xc0
160 396 m 0xa0
 160 434 196 460 226 460 c 0
 251 460 269 442 269 418 c 0
 269 380 232 353 203 353 c 0
 178 353 160 371 160 396 c 0xa0
EndSplineSet
EndChar
StartChar: less
Encoding: 28 60 28
Width: 527
VWidth: 1333
Flags: HW
HStem: -1 485<485 521>
Fore
521 -1 m 1
 382 -1 l 1
 37 241 l 1
 485 484 l 1
 624 484 l 1
 175 241 l 1
 521 -1 l 1
EndSplineSet
EndChar
StartChar: equal
Encoding: 29 61 29
Width: 482
VWidth: 1333
Flags: HW
HStem: 177 72<101 472> 311 72<129 501>
VStem: 86 430<177 383>
Fore
516 383 m 1
 501 311 l 1
 114 311 l 1
 129 383 l 1
 516 383 l 1
488 249 m 1
 472 177 l 1
 86 177 l 1
 101 249 l 1
 488 249 l 1
EndSplineSet
EndChar
StartChar: greater
Encoding: 30 62 30
Width: 527
VWidth: 1333
Flags: HW
HStem: -1 485<110 146>
Fore
146 -1 m 1
 7 -1 l 1
 455 241 l 1
 110 484 l 1
 249 484 l 1
 594 241 l 1
 146 -1 l 1
EndSplineSet
EndChar
StartChar: question
Encoding: 31 63 31
Width: 529
VWidth: 1333
Flags: HW
HStem: -6 101<236 291.7> 604 69<305.9 474.9>
VStem: 211 107<9.8 78.2> 495 72<490.288 587.3>
Fore
211 34 m 0
 211 68 245 95 275 95 c 0
 300 95 318 77 318 54 c 0
 318 20 283 -6 254 -6 c 0
 229 -6 211 11 211 34 c 0
322 144 m 1
 252 144 l 1
 266 210 l 2
 299 365 476 421 493 497 c 0
 495 505 495 513 495 521 c 0
 495 572 459 604 406 604 c 0
 329 604 265 546 255 497 c 2
 252 482 l 1
 181 482 l 1
 184 497 l 2
 204 591 311 673 420 673 c 0
 509 673 567 617 567 537 c 0
 567 378 365 347 336 210 c 2
 322 144 l 1
EndSplineSet
EndChar
StartChar: at
Encoding: 32 64 32
Width: 917
VWidth: 1333
Flags: HW
HStem: -210 68<231.2 525> -7 70<326.4 482 699.8 795.3> 401 69<422 645.6> 604 70<319 793.5>
VStem: 95 73<-72.1 457> 238 75<80.9 286.3> 659 19<137 323> 860 72<269.108 533.9>
Fore
238 128 m 0
 238 284 429 470 590 470 c 0
 648 470 690 446 712 407 c 1
 739 465 l 1
 813 465 l 1
 706 233 l 2
 700 220 678 181 678 137 c 0
 678 87 707 63 731 63 c 0
 788 63 860 181 860 322 c 0
 860 485 747 604 592 604 c 0
 382 604 168 385 168 145 c 0
 168 -22 278 -142 434 -142 c 0
 504 -142 560 -120 620 -88 c 1
 646 -146 l 1
 572 -185 504 -210 419 -210 c 0
 224 -210 95 -62 95 132 c 0
 95 403 339 674 607 674 c 0
 801 674 932 527 932 335 c 0
 932 305 929 273 922 241 c 0
 881 49 777 -7 716 -7 c 0
 655 -7 616 38 607 100 c 1
 543 39 458 -6 378 -6 c 0
 290 -6 238 48 238 128 c 0
394 64 m 0
 508 64 659 206 659 323 c 0
 659 370 630 401 578 401 c 0
 458 401 313 253 313 142 c 0
 313 95 342 64 394 64 c 0
EndSplineSet
EndChar
StartChar: A
Encoding: 33 65 33
Width: 617
VWidth: 1287
Flags: HW
HStem: 1 21G<11 87 531 607> 198 69<258 475>
Fore
258 267 m 1
 475 267 l 1
 415 496 l 1
 258 267 l 1
212 198 m 1
 87 1 l 1
 11 1 l 1
 452 674 l 1
 607 1 l 1
 531 1 l 1
 489 198 l 1
 212 198 l 1
EndSplineSet
EndChar
StartChar: B
Encoding: 34 66 34
Width: 578
VWidth: 1286
Flags: HW
HStem: 0 69<149 444.9> 335 68<220 481.6> 598 69<262 504.4>
VStem: 511 72<115.5 304> 524 73<450.4 573.2>
Fore
324 69 m 2xf0
 417 69 511 141 511 226 c 0
 511 286 460 335 381 335 c 2
 206 335 l 1
 149 69 l 1
 324 69 l 2xf0
524 516 m 0xe8
 524 560 487 598 429 598 c 2
 262 598 l 1
 220 403 l 1
 388 403 l 2
 460 406 524 458 524 516 c 0xe8
583 240 m 0xf0
 583 120 456 0 310 0 c 2
 64 0 l 1
 206 667 l 1
 446 667 l 2
 534 667 597 609 597 531 c 0xe8
 597 469 559 412 505 375 c 1
 553 347 583 298 583 240 c 0xf0
EndSplineSet
EndChar
StartChar: C
Encoding: 35 67 35
Width: 723
VWidth: 1286
Flags: HW
HStem: -6 67<230.8 540.8> 603 70<293.8 700.7>
VStem: 107 72<117.4 498.3>
Fore
520 603 m 0
 346 603 179 447 179 276 c 0
 179 154 271 61 405 61 c 0
 543 61 634 154 662 182 c 1
 711 145 l 1
 615 45 506 -6 390 -6 c 0
 223 -6 107 109 107 264 c 0
 107 470 310 673 535 673 c 0
 708 673 772 558 791 522 c 1
 726 481 l 1
 710 509 659 603 520 603 c 0
EndSplineSet
EndChar
StartChar: D
Encoding: 36 68 36
Width: 602
VWidth: 1286
Flags: HW
HStem: 0 69<149 450.9> 598 69<262 514.5>
VStem: 566 71<164.7 546.9>
Fore
226 69 m 2
 399 69 566 216 566 387 c 0
 566 510 474 598 339 598 c 2
 262 598 l 1
 149 69 l 1
 226 69 l 2
637 402 m 0
 637 196 438 0 212 0 c 2
 64 0 l 1
 206 667 l 1
 353 667 l 2
 521 667 637 555 637 402 c 0
EndSplineSet
EndChar
StartChar: E
Encoding: 37 69 37
Width: 518
VWidth: 1286
Flags: HW
HStem: 0 69<149 474> 350 69<224 523> 598 69<262 603>
Fore
537 419 m 1
 523 350 l 1
 209 350 l 1
 149 69 l 1
 489 69 l 1
 474 0 l 1
 64 0 l 1
 206 667 l 1
 617 667 l 1
 603 598 l 1
 262 598 l 1
 224 419 l 1
 537 419 l 1
EndSplineSet
EndChar
StartChar: F
Encoding: 38 70 38
Width: 518
VWidth: 1286
Flags: HW
HStem: 0 21G<64 135> 350 69<224 523> 598 69<262 603>
Fore
537 419 m 1
 523 350 l 1
 209 350 l 1
 135 0 l 1
 64 0 l 1
 206 667 l 1
 617 667 l 1
 603 598 l 1
 262 598 l 1
 224 419 l 1
 537 419 l 1
EndSplineSet
EndChar
StartChar: G
Encoding: 39 71 39
Width: 782
VWidth: 1286
Flags: HW
HStem: -6 68<229.5 588.3> 299 69<454 729> 604 69<297.7 702>
VStem: 107 72<118.1 502.9>
Fore
107 264 m 0
 107 470 310 673 535 673 c 0
 717 673 781 542 791 524 c 1
 726 482 l 1
 711 510 660 604 520 604 c 0
 349 604 179 451 179 278 c 0
 179 155 270 62 405 62 c 0
 546 62 685 166 729 299 c 1
 439 299 l 1
 454 368 l 1
 817 368 l 1
 810 333 l 2
 770 145 582 -6 390 -6 c 0
 223 -6 107 109 107 264 c 0
EndSplineSet
EndChar
StartChar: H
Encoding: 40 72 40
Width: 623
VWidth: 1286
Flags: HW
HStem: 0 21G<64 135 490 560> 350 69<224 564> 647 20G<206 276 632 702>
Fore
632 667 m 1
 702 667 l 1
 560 0 l 1
 490 0 l 1
 564 350 l 1
 209 350 l 1
 135 0 l 1
 64 0 l 1
 206 667 l 1
 276 667 l 1
 224 419 l 1
 579 419 l 1
 632 667 l 1
EndSplineSet
EndChar
StartChar: I
Encoding: 41 73 41
Width: 197
VWidth: 1286
Flags: HW
HStem: 0 21G<64 135> 647 20G<206 276>
VStem: 64 212<0 667>
Fore
135 0 m 1
 64 0 l 1
 206 667 l 1
 276 667 l 1
 135 0 l 1
EndSplineSet
EndChar
StartChar: J
Encoding: 42 74 42
Width: 459
VWidth: 1286
Flags: HW
HStem: -7 69<171.3 309.1> 647 20G<471 538>
VStem: 78 72<84.1 184.496>
Fore
471 667 m 1
 538 667 l 1
 435 180 l 2
 414 79 319 -7 219 -7 c 0
 133 -7 78 57 78 139 c 0
 78 159 81 179 86 196 c 1
 156 196 l 1
 154 183 150 168 150 153 c 0
 150 100 186 62 235 62 c 0
 292 62 353 113 367 180 c 2
 471 667 l 1
EndSplineSet
EndChar
StartChar: K
Encoding: 43 75 43
Width: 545
VWidth: 1286
Flags: HW
HStem: 0 21G<64 135 446 536> 647 20G<206 276 559 664>
Fore
206 667 m 1
 276 667 l 1
 223 416 l 1
 559 667 l 1
 664 667 l 1
 326 415 l 1
 536 0 l 1
 446 0 l 1
 265 369 l 1
 203 323 l 1
 135 0 l 1
 64 0 l 1
 206 667 l 1
EndSplineSet
EndChar
StartChar: L
Encoding: 44 76 44
Width: 518
VWidth: 1286
Flags: HW
HStem: 0 69<149 476> 647 20G<206 276>
VStem: 64 426<0 69>
Fore
476 0 m 1
 64 0 l 1
 206 667 l 1
 276 667 l 1
 149 69 l 1
 490 69 l 1
 476 0 l 1
EndSplineSet
EndChar
StartChar: M
Encoding: 45 77 45
Width: 786
VWidth: 1287
Flags: HW
HStem: 0 21G<11 81 704 776>
VStem: 704 72<0 224.333>
Fore
81 0 m 1
 11 0 l 1
 292 673 l 1
 429 170 l 1
 785 673 l 1
 776 0 l 1
 704 0 l 1
 707 436 l 1
 390 -7 l 1
 266 436 l 1
 81 0 l 1
EndSplineSet
EndChar
StartChar: N
Encoding: 46 78 46
Width: 747
VWidth: 1286
Flags: HW
HStem: 0 21G<64 135> 647 20G<756 826>
Fore
64 0 m 1
 207 674 l 1
 649 162 l 1
 756 667 l 1
 826 667 l 1
 683 -8 l 1
 242 504 l 1
 135 0 l 1
 64 0 l 1
EndSplineSet
EndChar
StartChar: O
Encoding: 47 79 47
Width: 782
VWidth: 1286
Flags: HW
HStem: -6 68<229.5 626> 604 69<297.7 692.9>
VStem: 107 72<118.1 502.9> 745 73<162.8 548.9>
Fore
818 402 m 0
 818 196 615 -6 390 -6 c 0
 223 -6 107 109 107 264 c 0
 107 470 310 673 535 673 c 0
 702 673 818 557 818 402 c 0
520 604 m 0
 349 604 179 451 179 278 c 0
 179 155 270 62 405 62 c 0
 575 62 745 215 745 389 c 0
 745 512 653 604 520 604 c 0
EndSplineSet
EndChar
StartChar: P
Encoding: 48 80 48
Width: 539
VWidth: 1286
Flags: HW
HStem: 0 21G<64 135> 298 70<213 481.7> 598 69<262 509.2>
VStem: 530 73<412.1 575.9>
Fore
603 520 m 0
 603 409 498 298 377 298 c 2
 198 298 l 1
 135 0 l 1
 64 0 l 1
 206 667 l 1
 454 667 l 2
 544 667 603 603 603 520 c 0
392 368 m 2
 461 368 530 434 530 507 c 0
 530 560 493 598 439 598 c 2
 262 598 l 1
 213 368 l 1
 392 368 l 2
EndSplineSet
EndChar
StartChar: Q
Encoding: 49 81 49
Width: 782
VWidth: 1286
Flags: HW
HStem: -6 68<229.5 492.1> 604 69<297.7 692.9>
VStem: 107 72<118.1 502.9> 745 73<337.294 548.9>
Fore
520 604 m 0
 349 604 179 451 179 278 c 0
 179 155 270 62 405 62 c 0
 472 62 539 86 595 125 c 1
 516 247 l 1
 608 247 l 1
 654 176 l 1
 744 270 745 368 745 389 c 0
 745 512 653 604 520 604 c 0
818 402 m 0
 818 290 759 189 689 121 c 1
 768 0 l 1
 674 0 l 1
 628 71 l 1
 558 23 475 -6 390 -6 c 0
 223 -6 107 109 107 264 c 0
 107 470 310 673 535 673 c 0
 702 673 818 557 818 402 c 0
EndSplineSet
EndChar
StartChar: R
Encoding: 50 82 50
Width: 551
VWidth: 1286
Flags: HW
HStem: 0 21G<64 135 462 543> 299 69<213 357> 598 69<262 509.2>
VStem: 530 73<412.1 575.9>
Fore
603 520 m 0
 603 434 537 338 435 307 c 1
 543 0 l 1
 462 0 l 1
 357 299 l 1
 198 299 l 1
 135 0 l 1
 64 0 l 1
 206 667 l 1
 454 667 l 2
 544 667 603 603 603 520 c 0
392 368 m 2
 461 368 530 434 530 507 c 0
 530 560 493 598 439 598 c 2
 262 598 l 1
 213 368 l 1
 392 368 l 2
EndSplineSet
EndChar
StartChar: S
Encoding: 51 83 51
Width: 529
VWidth: 1286
Flags: HW
HStem: -8 70<193.8 407> 604 70<295.2 453.8>
VStem: 86 73<71.3 209> 202 72<358.5 550.9> 461 72<119 388.1>
Fore
202 478 m 0
 202 571 290 674 409 674 c 0
 482 674 549 630 561 544 c 2
 563 530 l 1
 492 507 l 1
 490 522 l 2
 482 578 440 604 394 604 c 0
 318 604 274 538 274 495 c 0
 274 390 533 405 533 239 c 0
 533 111 404 -8 263 -8 c 0
 169 -8 86 47 86 172 c 2
 88 209 l 1
 161 218 l 1
 159 187 l 2
 159 98 213 62 277 62 c 0
 377 62 461 143 461 223 c 0
 461 350 202 329 202 478 c 0
EndSplineSet
EndChar
StartChar: T
Encoding: 52 84 52
Width: 430
VWidth: 1286
Flags: HW
HStem: 0 21G<181 251> 598 69<152 308 378 548>
VStem: 138 425<598 667>
Fore
563 667 m 1
 548 598 l 1
 378 598 l 1
 251 0 l 1
 181 0 l 1
 308 598 l 1
 138 598 l 1
 152 667 l 1
 563 667 l 1
EndSplineSet
EndChar
StartChar: U
Encoding: 53 85 53
Width: 623
VWidth: 1286
Flags: HW
HStem: -7 69<220.4 449.2> 647 20G<206 276 632 702>
VStem: 113 71<98.3 251.578>
Fore
206 667 m 1
 276 667 l 1
 189 257 l 2
 186 242 184 227 184 214 c 0
 184 125 245 62 327 62 c 0
 421 62 521 146 545 257 c 2
 632 667 l 1
 702 667 l 1
 615 257 l 2
 585 113 450 -7 311 -7 c 0
 191 -7 113 82 113 198 c 0
 113 217 115 237 119 257 c 2
 206 667 l 1
EndSplineSet
EndChar
StartChar: V
Encoding: 54 86 54
Width: 599
VWidth: 1286
Flags: HW
HStem: 647 20G<153 228 655 732>
Fore
655 667 m 1
 732 667 l 1
 303 -7 l 1
 153 667 l 1
 228 667 l 1
 341 177 l 1
 655 667 l 1
EndSplineSet
EndChar
StartChar: W
Encoding: 55 87 55
Width: 905
VWidth: 1286
Flags: HW
HStem: 647 20G<152 225 962 1037>
Fore
152 667 m 1
 225 667 l 1
 307 203 l 1
 596 674 l 1
 684 203 l 1
 962 667 l 1
 1037 667 l 1
 639 -7 l 1
 551 460 l 1
 266 -7 l 1
 152 667 l 1
EndSplineSet
EndChar
StartChar: X
Encoding: 56 88 56
Width: 474
VWidth: 1286
Flags: HW
HStem: 0 21G<11 90 385 464> 647 20G<178 258 500 580>
Fore
178 667 m 1
 258 667 l 1
 330 435 l 1
 500 667 l 1
 580 667 l 1
 353 359 l 1
 464 0 l 1
 385 0 l 1
 297 282 l 1
 90 0 l 1
 11 0 l 1
 274 359 l 1
 178 667 l 1
EndSplineSet
EndChar
StartChar: Y
Encoding: 57 89 57
Width: 583
VWidth: 1286
Flags: HW
HStem: 0 21G<257 328> 647 20G<152 235 633 716>
Fore
152 667 m 1
 235 667 l 1
 369 359 l 1
 633 667 l 1
 716 667 l 1
 389 286 l 1
 328 0 l 1
 257 0 l 1
 318 286 l 1
 152 667 l 1
EndSplineSet
EndChar
StartChar: Z
Encoding: 58 90 58
Width: 559
VWidth: 1286
Flags: HW
HStem: 0 69<157 527> 598 69<213 544>
Fore
213 667 m 1
 690 667 l 1
 157 69 l 1
 565 69 l 1
 527 0 l 1
 11 0 l 1
 544 598 l 1
 175 598 l 1
 213 667 l 1
EndSplineSet
EndChar
StartChar: bracketleft
Encoding: 59 91 59
Width: 215
VWidth: 1333
Flags: HW
HStem: -156 72<102 167> 651 72<258 338>
VStem: 15 339<-156 723>
Fore
102 -84 m 1
 182 -84 l 1
 167 -156 l 1
 15 -156 l 1
 202 723 l 1
 354 723 l 1
 338 651 l 1
 258 651 l 1
 102 -84 l 1
EndSplineSet
EndChar
StartChar: backslash
Encoding: 60 92 60
Width: 583
VWidth: 1333
Flags: HW
HStem: -1 21G<495 584> 648 20G<141 230>
VStem: 141 443<-1 668>
Fore
141 668 m 1
 230 668 l 1
 584 -1 l 1
 495 -1 l 1
 141 668 l 1
EndSplineSet
EndChar
StartChar: bracketright
Encoding: 61 93 61
Width: 214
VWidth: 1333
Flags: HW
HStem: -156 72<-19 61> 651 72<152 217>
VStem: -34 338<-156 723>
Fore
217 651 m 1
 137 651 l 1
 152 723 l 1
 304 723 l 1
 118 -156 l 1
 -34 -156 l 1
 -19 -84 l 1
 61 -84 l 1
 217 651 l 1
EndSplineSet
EndChar
StartChar: asciicircum
Encoding: 62 94 62
Width: 554
VWidth: 1333
Flags: HW
HStem: 303 365<389 582>
VStem: 101 481<303 303>
Fore
389 668 m 1
 453 668 l 1
 582 303 l 1
 499 303 l 1
 401 578 l 1
 184 303 l 1
 101 303 l 1
 389 668 l 1
EndSplineSet
EndChar
StartChar: underscore
Encoding: 63 95 63
Width: 466
VWidth: 1333
Flags: HW
HStem: -71 72<0 452>
VStem: -15 482<-71 1>
Fore
467 1 m 1
 452 -71 l 1
 -15 -71 l 1
 0 1 l 1
 467 1 l 1
EndSplineSet
EndChar
StartChar: quoteleft
Encoding: 299 8216 64
Width: 213
VWidth: 1333
Flags: HW
VStem: 162 116<496.7 555.383>
Fore
278 537 m 0
 278 506 248 473 213 473 c 0
 187 473 162 489 162 524 c 0
 162 548 172 607 257 674 c 1
 258 683 l 1
 337 683 l 1
 296 654 l 2
 272 638 246 605 233 580 c 1
 235 580 l 2
 256 580 278 563 278 537 c 0
EndSplineSet
EndChar
StartChar: a
Encoding: 65 97 65
Width: 489
VWidth: 1261
Flags: HW
HStem: -8 68<144.8 279> 215 58<294.4 412> 394 67<234.5 384>
VStem: 71 72<81.8 130.712> 364 77<-1.31562 63.7966> 413 72<268.266 377.1>
Fore
446 0 m 1xf8
 368 0 l 1
 366 9 364 20 364 31 c 0xf8
 364 42 366 54 368 62 c 1
 321 23 261 -8 201 -8 c 0
 106 -8 71 47 71 100 c 0
 71 108 71 116 73 124 c 0
 104 272 311 273 412 273 c 1
 413 279 413 285 413 290 c 0
 413 357 369 394 319 394 c 0
 254 394 209 341 196 327 c 1
 147 363 l 1
 166 385 233 461 333 461 c 0
 416 461 485 405 485 306 c 0xf4
 485 291 483 275 480 258 c 2
 449 108 l 2
 444 86 441 61 441 40 c 0
 441 24 443 10 446 0 c 1xf8
401 215 m 1
 319 214 143 205 143 113 c 0
 143 89 161 60 215 60 c 0
 277 60 349 107 388 155 c 1
 401 215 l 1
EndSplineSet
EndChar
StartChar: b
Encoding: 66 98 66
Width: 545
VWidth: 1267
Flags: HW
HStem: -6 67<213.1 411.4> 393 67<313.1 455.4> 646 20G<206 276>
VStem: 485 71<120.7 362.5>
Fore
556 279 m 0
 556 139 429 -6 282 -6 c 0
 229 -6 177 26 150 69 c 1
 142 36 134 20 123 0 c 1
 44 0 l 1
 69 33 86 102 93 133 c 2
 206 666 l 1
 276 666 l 1
 217 386 l 1
 263 429 329 460 382 460 c 0
 488 460 556 380 556 279 c 0
367 393 m 0
 279 393 179 300 179 189 c 0
 179 114 229 61 297 61 c 0
 385 61 485 154 485 265 c 0
 485 340 435 393 367 393 c 0
EndSplineSet
EndChar
StartChar: c
Encoding: 67 99 67
Width: 498
VWidth: 1261
Flags: HW
HStem: -6 68<187.9 384.2> 391 69<222.8 449>
VStem: 87 71<92.5 327.8>
Fore
345 391 m 0
 251 391 158 296 158 190 c 0
 158 115 208 62 275 62 c 0
 359 62 412 132 427 151 c 1
 481 118 l 1
 452 82 377 -6 261 -6 c 0
 154 -6 87 73 87 176 c 0
 87 323 222 460 360 460 c 0
 483 460 518 361 527 336 c 1
 459 302 l 1
 449 329 425 391 345 391 c 0
EndSplineSet
EndChar
StartChar: d
Encoding: 68 100 68
Width: 545
VWidth: 1267
Flags: HW
HStem: -6 67<187.9 331.2> 393 67<227.7 428.9> 646 20G<553 623>
VStem: 87 70<91.5 330.7> 421 78<-7.85156 68.4547>
Fore
87 176 m 0
 87 323 222 460 360 460 c 0
 413 460 465 429 493 386 c 1
 553 666 l 1
 623 666 l 1
 510 133 l 2
 504 105 499 62 499 32 c 0
 499 18 500 7 502 0 c 1
 423 0 l 1
 422 9 421 18 421 28 c 0
 421 39 422 52 426 69 c 1
 380 26 315 -6 261 -6 c 0
 154 -6 87 73 87 176 c 0
275 61 m 0
 366 61 463 157 463 265 c 0
 463 340 413 393 346 393 c 0
 255 393 157 298 157 189 c 0
 157 114 208 61 275 61 c 0
EndSplineSet
EndChar
StartChar: e
Encoding: 69 101 69
Width: 529
VWidth: 1261
Flags: HW
HStem: -6 68<187.9 320.8> 212 66<182 465> 392 68<265.1 430.2>
VStem: 87 70<91.8 218.712>
Fore
182 278 m 1
 465 278 l 1
 459 346 411 392 347 392 c 0
 284 392 216 346 182 278 c 1
87 176 m 0
 87 323 223 460 361 460 c 0
 468 460 537 379 537 277 c 0
 537 254 533 233 530 212 c 1
 159 212 l 1
 158 204 157 196 157 188 c 0
 157 114 208 62 275 62 c 0
 333 62 392 92 440 151 c 1
 494 118 l 1
 409 10 307 -6 261 -6 c 0
 154 -6 87 73 87 176 c 0
EndSplineSet
EndChar
StartChar: f
Encoding: 70 102 70
Width: 262
VWidth: 1267
Flags: HW
HStem: 0 21G<64 135> 385 68<123 146 231 322> 605 55<316 386>
VStem: 64 334<0 660>
Fore
146 385 m 1
 108 385 l 1
 123 453 l 1
 161 453 l 1
 166 476 l 2
 187 576 282 660 382 660 c 2
 398 660 l 1
 386 605 l 1
 371 605 l 2
 316 605 251 545 236 476 c 2
 231 453 l 1
 360 453 l 1
 322 385 l 1
 217 385 l 1
 135 0 l 1
 64 0 l 1
 146 385 l 1
EndSplineSet
EndChar
StartChar: g
Encoding: 71 103 71
Width: 543
VWidth: 1253
Flags: HW
HStem: -219 67<161.1 331.4> -7 67<184.9 329.9> 392 67<224.7 430.1>
VStem: 86 69<90.5 328.4>
Fore
86 174 m 0
 86 311 212 459 360 459 c 0
 414 459 465 426 493 383 c 1
 500 417 508 433 519 453 c 1
 598 453 l 1
 573 419 556 350 550 319 c 2
 485 14 l 2
 458 -111 338 -219 214 -219 c 0
 139 -219 101 -183 72 -149 c 1
 134 -102 l 1
 152 -124 177 -152 230 -152 c 0
 308 -152 394 -80 414 14 c 2
 425 67 l 1
 379 23 314 -7 261 -7 c 0
 154 -7 86 73 86 174 c 0
272 60 m 0
 363 60 461 155 461 264 c 0
 461 339 410 392 343 392 c 0
 252 392 155 296 155 188 c 0
 155 113 205 60 272 60 c 0
EndSplineSet
EndChar
StartChar: h
Encoding: 72 104 72
Width: 482
VWidth: 1267
Flags: HW
HStem: 0 21G<64 135 349 419> 393 67<302 413.4> 647 20G<206 276>
VStem: 412 72<282.164 368.7>
Fore
64 0 m 1
 206 667 l 1
 276 667 l 1
 214 374 l 1
 259 421 317 460 367 460 c 0
 450 460 484 404 484 333 c 0
 484 315 482 296 478 277 c 2
 419 0 l 1
 349 0 l 1
 408 277 l 2
 411 290 412 304 412 318 c 0
 412 357 399 393 351 393 c 0
 289 393 195 283 183 227 c 2
 135 0 l 1
 64 0 l 1
EndSplineSet
EndChar
StartChar: i
Encoding: 73 105 73
Width: 195
VWidth: 1265
Flags: HW
HStem: 0 21G<63 134> 433 20G<160 230> 504 97<188.3 252.8>
VStem: 164 104<528.2 584.9>
Fore
164 542 m 0
 164 575 197 601 226 601 c 0
 251 601 268 584 268 562 c 0
 268 536 242 504 206 504 c 0
 182 504 164 520 164 542 c 0
134 0 m 1
 63 0 l 1
 160 453 l 1
 230 453 l 1
 134 0 l 1
EndSplineSet
EndChar
StartChar: j
Encoding: 74 106 74
Width: 195
VWidth: 1261
Flags: HW
HStem: -130 61<-37 14> 434 20G<160 231> 503 97<179.2 242.7>
VStem: 163 104<519.1 576.8>
Fore
160 454 m 1
 231 454 l 1
 138 16 l 2
 121 -62 46 -130 -34 -130 c 2
 -50 -130 l 1
 -37 -69 l 1
 -21 -69 l 2
 14 -69 57 -33 67 16 c 2
 160 454 l 1
163 543 m 0
 163 569 190 600 226 600 c 0
 250 600 267 584 267 562 c 0
 267 529 234 503 205 503 c 0
 180 503 163 520 163 543 c 0
EndSplineSet
EndChar
StartChar: k
Encoding: 75 107 75
Width: 457
VWidth: 1267
Flags: HW
HStem: 0 21G<64 135 365 457> 434 20G<407 512> 647 20G<206 276>
VStem: 64 448<0 454>
Fore
135 0 m 1
 64 0 l 1
 206 667 l 1
 276 667 l 1
 199 302 l 1
 407 454 l 1
 512 454 l 1
 269 275 l 1
 457 0 l 1
 365 0 l 1
 207 231 l 1
 179 211 l 1
 135 0 l 1
EndSplineSet
EndChar
StartChar: l
Encoding: 76 108 76
Width: 197
VWidth: 1267
Flags: HW
HStem: 0 21G<64 135> 647 20G<206 276>
VStem: 64 212<0 667>
Fore
135 0 m 1
 64 0 l 1
 206 667 l 1
 276 667 l 1
 135 0 l 1
EndSplineSet
EndChar
StartChar: m
Encoding: 77 109 77
Width: 711
VWidth: 1261
Flags: HW
HStem: 0 21G<64 135 321 391 578 648> 393 66<294.6 384.4 545.9 641.4>
VStem: 144 77<384.233 462.272> 642 72<287.831 369.8>
Fore
212 365 m 1
 219 394 221 409 221 424 c 0
 221 433 221 442 219 454 c 1
 141 454 l 1
 143 447 144 437 144 424 c 0
 144 393 139 349 133 320 c 2
 64 0 l 1
 135 0 l 1
 183 227 l 2
 197 291 288 393 335 393 c 0
 373 393 385 361 385 325 c 0
 385 309 382 292 379 277 c 2
 321 0 l 1
 391 0 l 1
 439 226 l 2
 452 285 541 391 592 391 c 0
 630 391 642 359 642 323 c 0
 642 307 639 290 636 275 c 2
 578 0 l 1
 648 0 l 1
 707 275 l 2
 711 295 714 316 714 335 c 0
 714 403 685 459 607 459 c 0
 560 459 503 417 461 365 c 1
 454 419 423 459 357 459 c 0
 309 459 250 416 212 365 c 1
EndSplineSet
EndChar
StartChar: n
Encoding: 78 110 78
Width: 482
VWidth: 1261
Flags: HW
HStem: 0 21G<63 134 348 419> 393 67<302.3 412.1>
VStem: 143 77<382.32 462.33> 412 72<282.43 369.4>
Fore
218 454 m 1
 220 442 220 433 220 423 c 0
 220 409 218 394 212 366 c 1
 253 413 317 460 366 460 c 0
 450 460 484 404 484 332 c 0
 484 315 482 296 478 277 c 2
 419 0 l 1
 348 0 l 1
 407 277 l 2
 410 291 412 305 412 320 c 0
 412 358 398 393 351 393 c 0
 289 393 194 282 182 227 c 2
 134 0 l 1
 63 0 l 1
 132 320 l 2
 138 349 143 394 143 425 c 0
 143 437 142 448 140 454 c 1
 218 454 l 1
EndSplineSet
EndChar
StartChar: o
Encoding: 79 111 79
Width: 573
VWidth: 1261
Flags: HW
HStem: -6 67<191.8 438.8> 392 68<236.8 481.2>
VStem: 87 72<94.2 334.7> 514 69<120.6 358.5>
Fore
583 275 m 0
 583 133 444 -6 286 -6 c 0
 168 -6 87 74 87 181 c 0
 87 319 226 460 385 460 c 0
 502 460 583 381 583 275 c 0
372 392 m 0
 268 392 159 302 159 193 c 0
 159 117 217 61 301 61 c 0
 407 61 514 153 514 261 c 0
 514 336 456 392 372 392 c 0
EndSplineSet
EndChar
StartChar: p
Encoding: 80 112 80
Width: 545
VWidth: 1254
Flags: HW
HStem: -200 21G<22 92> -6 67<213.1 411.4> 393 67<311.8 455.4>
VStem: 144 77<379.878 461.852> 485 71<120.7 362.5>
Fore
556 279 m 0
 556 139 428 -6 282 -6 c 0
 229 -6 177 24 149 68 c 1
 92 -200 l 1
 22 -200 l 1
 132 321 l 2
 138 350 144 394 144 425 c 0
 144 437 143 448 141 454 c 1
 219 454 l 1
 220 445 221 436 221 426 c 0
 221 415 220 402 217 384 c 1
 263 427 328 460 382 460 c 0
 488 460 556 381 556 279 c 0
367 393 m 0
 279 393 179 300 179 189 c 0
 179 114 229 61 297 61 c 0
 385 61 485 154 485 265 c 0
 485 340 435 393 367 393 c 0
EndSplineSet
EndChar
StartChar: q
Encoding: 81 113 81
Width: 545
VWidth: 1254
Flags: HW
HStem: -6 67<187.9 329.9> 393 67<227.7 430.2>
VStem: 87 71<91.5 329.4>
Fore
87 176 m 0
 87 314 214 460 360 460 c 0
 414 460 465 427 493 384 c 1
 500 418 509 434 520 454 c 1
 598 454 l 1
 574 420 556 352 550 321 c 2
 442 -187 l 1
 371 -187 l 1
 426 68 l 1
 379 24 314 -6 261 -6 c 0
 154 -6 87 74 87 176 c 0
275 61 m 0
 366 61 463 157 463 265 c 0
 463 340 413 393 346 393 c 0
 255 393 158 297 158 189 c 0
 158 114 208 61 275 61 c 0
EndSplineSet
EndChar
StartChar: r
Encoding: 82 114 82
Width: 330
VWidth: 1261
Flags: HW
HStem: 0 462<134 341>
VStem: 143 78<386.706 461.852>
Fore
216 386 m 1
 257 424 299 448 341 462 c 1
 417 400 l 1
 231 400 191 265 184 233 c 2
 134 0 l 1
 64 0 l 1
 132 320 l 2
 138 348 143 391 143 422 c 0
 143 436 142 447 140 454 c 1
 219 454 l 1
 220 445 221 436 221 426 c 0
 221 415 220 403 216 386 c 1
EndSplineSet
EndChar
StartChar: s
Encoding: 83 115 83
Width: 405
VWidth: 1261
Flags: HW
HStem: -8 68<168.2 300.8> 394 67<233.4 320.5>
VStem: 73 74<63.1 154.324> 149 74<259 366.9> 322 72<101.9 251.4>
Fore
149 320 m 0
 149 392 216 461 301 461 c 0
 344 461 402 440 412 369 c 2
 414 355 l 1
 343 332 l 1
 341 347 l 2
 336 380 313 394 288 394 c 0
 246 394 223 360 223 337 c 0
 223 277 394 281 394 167 c 0
 394 76 303 -8 200 -8 c 0
 134 -8 73 32 73 119 c 0
 73 129 76 149 76 149 c 1
 148 157 l 1
 148 157 147 142 147 132 c 0
 147 79 179 60 215 60 c 0
 281 60 322 113 322 150 c 0
 322 228 149 216 149 320 c 0
EndSplineSet
EndChar
StartChar: t
Encoding: 84 116 84
Width: 262
VWidth: 1263
Flags: HW
HStem: 1 21G<64 135> 386 67<121 146 231 322>
VStem: 64 296<1 453>
Fore
135 1 m 1
 64 1 l 1
 146 386 l 1
 107 386 l 1
 121 453 l 1
 161 453 l 1
 182 553 l 1
 252 553 l 1
 231 453 l 1
 360 453 l 1
 322 386 l 1
 217 386 l 1
 135 1 l 1
EndSplineSet
EndChar
StartChar: u
Encoding: 85 117 85
Width: 479
VWidth: 1259
Flags: HW
HStem: -7 68<188.3 326.1> 433 20G<160 231 443 513>
VStem: 97 72<81.4 175.67>
Fore
160 453 m 1
 231 453 l 1
 172 177 l 2
 170 167 169 158 169 149 c 0
 169 97 203 61 252 61 c 0
 309 61 370 110 384 177 c 2
 443 453 l 1
 513 453 l 1
 454 177 l 2
 433 77 339 -7 239 -7 c 0
 153 -7 97 55 97 136 c 0
 97 149 99 163 102 177 c 2
 160 453 l 1
EndSplineSet
EndChar
StartChar: v
Encoding: 86 118 86
Width: 451
VWidth: 1259
Flags: HW
HStem: -7 461<107 226>
VStem: 107 431<454 454>
Fore
107 454 m 1
 183 454 l 1
 262 167 l 1
 461 454 l 1
 538 454 l 1
 226 -7 l 1
 107 454 l 1
EndSplineSet
EndChar
StartChar: w
Encoding: 87 119 87
Width: 737
VWidth: 1261
Flags: HW
HStem: -7 467<469 519>
Fore
107 454 m 1
 184 454 l 1
 259 172 l 1
 469 460 l 1
 557 172 l 1
 748 454 l 1
 824 454 l 1
 519 -7 l 1
 432 294 l 1
 219 -7 l 1
 107 454 l 1
EndSplineSet
EndChar
StartChar: x
Encoding: 88 120 88
Width: 445
VWidth: 1261
Flags: HW
HStem: 0 21G<11 94 352 436> 434 20G<125 206 430 514>
Fore
125 454 m 1
 206 454 l 1
 285 298 l 1
 430 454 l 1
 514 454 l 1
 315 239 l 1
 436 0 l 1
 352 0 l 1
 262 180 l 1
 94 0 l 1
 11 0 l 1
 233 239 l 1
 125 454 l 1
EndSplineSet
EndChar
StartChar: y
Encoding: 89 121 89
Width: 450
VWidth: 1253
Flags: HW
HStem: 434 20G<107 181 462 537>
VStem: 52 485<-218 454>
Fore
107 454 m 1
 181 454 l 1
 249 107 l 1
 462 454 l 1
 537 454 l 1
 127 -218 l 1
 52 -218 l 1
 194 14 l 1
 107 454 l 1
EndSplineSet
EndChar
StartChar: z
Encoding: 90 122 90
Width: 438
VWidth: 1261
Flags: HW
HStem: 0 67<160 396> 386 68<180 378>
Fore
180 454 m 1
 525 454 l 1
 160 67 l 1
 434 67 l 1
 396 0 l 1
 11 0 l 1
 378 386 l 1
 142 386 l 1
 180 454 l 1
EndSplineSet
EndChar
StartChar: braceleft
Encoding: 91 123 91
Width: 273
VWidth: 1333
Flags: HW
HStem: -155 59<172.7 216> 657 59<326 389>
VStem: 99 73<-78.9 3.79534> 139 74<159.397 236.1>
Fore
109 306 m 1xd0
 158 334 177 349 191 413 c 2
 219 547 l 2
 249 689 335 716 386 716 c 2
 402 716 l 1
 389 657 l 1
 373 657 l 2
 326 657 301 595 291 547 c 2
 263 415 l 2
 249 348 225 311 190 281 c 1
 204 264 213 242 213 207 c 0xd0
 213 190 211 171 206 148 c 2
 178 15 l 2
 174 -1 172 -19 172 -36 c 0xe0
 172 -69 182 -96 213 -96 c 2xd0
 229 -96 l 1
 216 -155 l 1
 200 -155 l 2
 158 -155 99 -136 99 -46 c 0xe0
 99 -28 101 -8 106 15 c 2
 134 148 l 2
 137 164 139 178 139 188 c 0
 139 225 122 237 98 255 c 1
 109 306 l 1xd0
EndSplineSet
EndChar
StartChar: bar
Encoding: 92 124 92
Width: 199
VWidth: 1333
Flags: HW
VStem: 46 249<-83 749>
Fore
118 -83 m 1
 46 -83 l 1
 223 749 l 1
 295 749 l 1
 118 -83 l 1
EndSplineSet
EndChar
StartChar: braceright
Encoding: 93 125 93
Width: 274
VWidth: 1333
Flags: HW
HStem: -156 59<3 67> 657 58<176 220.3>
VStem: 180 75<324.2 401.356> 221 74<556.452 639.9>
Fore
285 254 m 1xd0
 236 226 217 211 203 147 c 2
 175 13 l 2
 145 -127 60 -156 7 -156 c 2
 -9 -156 l 1
 3 -97 l 1
 19 -97 l 2
 67 -97 93 -34 103 13 c 2
 131 147 l 2
 146 218 173 255 204 280 c 1
 189 299 180 322 180 355 c 0xe0
 180 371 182 390 187 413 c 2
 215 547 l 2
 218 563 221 581 221 597 c 0xd0
 221 630 211 657 180 657 c 2xe0
 164 657 l 1
 176 715 l 1
 192 715 l 2
 236 715 295 695 295 605 c 0xd0
 295 588 293 568 288 545 c 2
 260 412 l 2
 256 395 255 382 255 371 c 0xe0
 255 335 271 323 295 305 c 1
 285 254 l 1xd0
EndSplineSet
EndChar
StartChar: asciitilde
Encoding: 94 126 94
Width: 483
VWidth: 1333
Flags: HW
HStem: 153 74<320.5 431> 213 74<146.1 264.4>
VStem: 77 423<157 283>
Fore
441 283 m 1xa0
 500 283 l 1
 497 267 l 2
 479 186 428 153 377 153 c 0xa0
 304 153 247 213 189 213 c 0
 156 213 144 195 140 173 c 2
 136 157 l 1
 77 157 l 1
 81 173 l 2
 99 258 156 287 205 287 c 0x60
 285 287 337 227 392 227 c 0
 422 227 433 243 438 267 c 2
 441 283 l 1xa0
EndSplineSet
EndChar
StartChar: exclamdown
Encoding: 96 161 95
Width: 255
VWidth: 1333
Flags: HW
HStem: 353 107<187 240.7>
VStem: 160 109<368.6 445.4>
Fore
168 323 m 1
 226 323 l 1
 119 -243 l 1
 33 -243 l 1
 168 323 l 1
160 396 m 0
 160 434 196 460 226 460 c 0
 251 460 269 442 269 418 c 0
 269 380 232 353 203 353 c 0
 178 353 160 371 160 396 c 0
EndSplineSet
EndChar
StartChar: cent
Encoding: 97 162 96
Width: 511
VWidth: 1333
Flags: HW
VStem: 93 71<116.9 311.9>
Fore
265 -123 m 1
 193 -123 l 1
 219 0 l 1
 141 20 93 90 93 175 c 0
 93 293 186 423 316 454 c 1
 342 576 l 1
 414 576 l 1
 389 459 l 1
 493 448 525 360 534 336 c 1
 466 302 l 1
 457 326 436 379 374 390 c 1
 305 64 l 1
 376 75 420 134 434 151 c 1
 487 118 l 1
 461 84 393 5 290 -5 c 1
 265 -123 l 1
300 382 m 1
 235 359 164 284 164 191 c 0
 164 134 192 91 234 72 c 1
 300 382 l 1
EndSplineSet
EndChar
StartChar: sterling
Encoding: 98 163 97
Width: 526
VWidth: 1333
Flags: HW
HStem: 0 69<191 454> 297 68<154 239 316 426> 607 68<380.2 529.4>
Fore
63 58 m 1
 138 96 206 143 235 277 c 2
 239 297 l 1
 116 297 l 1
 154 365 l 1
 247 365 l 1
 252 421 254 475 265 527 c 0
 284 616 371 675 454 675 c 0
 512 675 579 647 579 537 c 0
 579 530 579 523 578 516 c 1
 521 516 l 1
 520 522 529 607 440 607 c 0
 394 607 345 578 334 528 c 0
 325 484 322 427 316 368 c 1
 463 368 l 1
 426 299 l 1
 309 299 l 1
 304 279 l 2
 288 201 255 129 191 69 c 1
 492 69 l 1
 454 0 l 1
 68 0 l 1
 63 58 l 1
EndSplineSet
EndChar
StartChar: fraction
Encoding: 312 8260 98
Width: 526
VWidth: 1333
Flags: HW
Fore
611 683 m 1
 700 683 l 1
 56 -16 l 1
 -33 -16 l 1
 611 683 l 1
EndSplineSet
EndChar
StartChar: yen
Encoding: 100 165 99
Width: 578
VWidth: 1333
Flags: HW
HStem: 0 21G<255 325> 170 72<150 291 376 513> 275 71<173 290 437 540> 647 20G<152 234 629 711>
Fore
529 242 m 1
 513 170 l 1
 361 170 l 1
 325 0 l 1
 255 0 l 1
 291 170 l 1
 135 170 l 1
 150 242 l 1
 306 242 l 1
 313 275 l 1
 158 275 l 1
 173 346 l 1
 290 346 l 1
 152 667 l 1
 234 667 l 1
 366 359 l 1
 629 667 l 1
 711 667 l 1
 437 346 l 1
 555 346 l 1
 540 275 l 1
 383 275 l 1
 376 242 l 1
 529 242 l 1
EndSplineSet
EndChar
StartChar: florin
Encoding: 200 402 100
Width: 374
VWidth: 1333
Flags: HW
HStem: -72 56<-48 31> 333 69<175 221 323 419> 616 56<457 536>
Fore
460 402 m 1
 419 333 l 1
 294 333 l 1
 184 71 l 2
 144 -31 49 -72 -44 -72 c 2
 -60 -72 l 1
 -48 -16 l 1
 -32 -16 l 2
 31 -16 92 19 117 84 c 2
 221 333 l 1
 136 333 l 1
 175 402 l 1
 250 402 l 1
 303 530 l 2
 346 631 438 672 532 672 c 2
 548 672 l 1
 536 616 l 1
 520 616 l 2
 457 616 396 581 371 516 c 2
 323 402 l 1
 460 402 l 1
EndSplineSet
EndChar
StartChar: section
Encoding: 102 167 101
Width: 419
VWidth: 1333
Flags: HW
HStem: -59 69<165.8 298.4> 603 69<259.4 369.511>
VStem: 70 72<10.1 103> 119 72<252.6 339.849> 161 74<469 566.9> 316 74<52.6 147> 360 72<282.983 361.1> 408 73<512 614.6>
Fore
390 121 m 0xc4
 390 32 302 -59 197 -59 c 0
 131 -59 70 -19 70 71 c 0
 70 81 73 103 73 103 c 1
 143 103 l 1
 143 103 142 89 142 79 c 0xe4
 142 26 176 10 210 10 c 0
 278 10 316 64 316 102 c 0
 316 185 119 171 119 297 c 0xd4
 119 338 139 390 186 428 c 1
 166 450 161 475 161 495 c 0
 161 585 250 672 354 672 c 0
 420 672 481 633 481 544 c 0
 481 534 478 512 478 512 c 1
 407 512 l 1
 407 512 408 524 408 534 c 0xc9
 408 596 362 603 340 603 c 0
 278 603 235 554 235 511 c 0
 235 428 432 444 432 319 c 0xca
 432 302 428 239 365 186 c 1
 385 164 390 141 390 121 c 0xc4
311 225 m 1
 353 250 360 287 360 300 c 0
 360 347 297 362 239 390 c 1
 200 367 191 332 191 315 c 0xd2
 191 267 255 253 311 225 c 1
EndSplineSet
EndChar
StartChar: currency
Encoding: 99 164 102
Width: 582
VWidth: 1333
Flags: HW
HStem: 132 73<262.5 378.2> 477 72<349.8 466.8>
VStem: 152 74<260.6 391.9> 504 75<291.1 419.8>
Fore
152 297 m 0
 152 370 191 429 220 461 c 1
 164 532 l 1
 225 583 l 1
 281 512 l 1
 320 535 363 549 407 549 c 0
 453 549 492 534 520 509 c 1
 612 582 l 1
 652 532 l 1
 564 458 l 1
 574 436 579 412 579 386 c 0
 579 313 541 254 511 221 c 1
 571 143 l 1
 510 92 l 1
 449 170 l 1
 410 146 365 132 321 132 c 0
 276 132 237 146 208 170 c 1
 111 91 l 1
 71 141 l 1
 168 220 l 1
 157 243 152 269 152 297 c 0
393 477 m 0
 310 477 226 401 226 312 c 0
 226 251 270 205 336 205 c 0
 417 205 504 280 504 370 c 0
 504 432 459 477 393 477 c 0
EndSplineSet
EndChar
StartChar: quotesingle
Encoding: 7 39 103
Width: 234
VWidth: 1333
Flags: HW
Fore
253 504 m 1
 196 504 l 1
 224 709 l 1
 312 709 l 1
 253 504 l 1
EndSplineSet
EndChar
StartChar: quotedblleft
Encoding: 302 8220 104
Width: 330
VWidth: 1333
Flags: HW
VStem: 162 116<496.7 555.383> 279 116<488.2 555.2>
Fore
278 537 m 0
 278 506 248 473 213 473 c 0
 187 473 162 489 162 524 c 0
 162 548 172 607 257 674 c 1
 258 683 l 1
 337 683 l 1
 296 654 l 2
 272 638 246 605 233 580 c 1
 235 580 l 2
 256 580 278 563 278 537 c 0
395 535 m 0
 395 499 359 472 330 472 c 0
 305 472 279 488 279 524 c 0
 279 548 289 605 374 673 c 1
 376 683 l 1
 455 683 l 1
 413 654 l 2
 390 638 363 604 350 579 c 1
 371 579 395 562 395 535 c 0
EndSplineSet
EndChar
StartChar: guillemotleft
Encoding: 106 171 105
Width: 395
VWidth: 1333
Flags: HW
HStem: 51 352<382 396>
VStem: 72 399<227 403>
Fore
382 403 m 1
 471 403 l 1
 308 227 l 1
 396 51 l 1
 308 51 l 1
 219 227 l 1
 382 403 l 1
236 403 m 1
 324 403 l 1
 161 227 l 1
 250 51 l 1
 161 51 l 1
 72 227 l 1
 236 403 l 1
EndSplineSet
EndChar
StartChar: guilsinglleft
Encoding: 310 8249 106
Width: 211
VWidth: 1333
Flags: HW
HStem: 51 352<208 222>
VStem: 44 253<227 403>
Fore
208 403 m 1
 297 403 l 1
 133 227 l 1
 222 51 l 1
 133 51 l 1
 44 227 l 1
 208 403 l 1
EndSplineSet
EndChar
StartChar: guilsinglright
Encoding: 311 8250 107
Width: 211
VWidth: 1333
Flags: HW
HStem: 51 352<86 100>
VStem: 12 252<51 227>
Fore
86 403 m 1
 175 403 l 1
 264 227 l 1
 100 51 l 1
 12 51 l 1
 175 227 l 1
 86 403 l 1
EndSplineSet
EndChar
StartChar: endash
Encoding: 297 8211 108
Width: 349
VWidth: 1333
Flags: HW
HStem: 191 72<104 342>
VStem: 89 268<191 263>
Fore
357 263 m 1
 342 191 l 1
 89 191 l 1
 104 263 l 1
 357 263 l 1
EndSplineSet
EndChar
StartChar: dagger
Encoding: 305 8224 109
Width: 522
VWidth: 1333
Flags: HW
HStem: 403 74<149 213.286 496.714 560> 410 60<253 319 391 456>
VStem: 134 442<403 477>
Fore
267 -144 m 1x60
 195 -144 l 1
 319 410 l 1x60
 134 403 l 1
 149 477 l 1xa0
 331 470 l 1
 370 683 l 1
 443 683 l 1
 391 470 l 1x60
 576 477 l 1
 560 403 l 1xa0
 378 410 l 1
 267 -144 l 1x60
EndSplineSet
EndChar
StartChar: daggerdbl
Encoding: 306 8225 110
Width: 522
VWidth: 1333
Flags: HW
HStem: 101 73<85 161.5 432.286 496> 107 60<189.571 254 326 405> 366 73<141 205.286 475.5 552> 373 60<232 311 383 448>
VStem: 69 499<101 439>
Fore
267 -144 m 1x48
 194 -144 l 1
 254 107 l 1x48
 69 101 l 1
 85 174 l 1x88
 268 167 l 1
 311 373 l 1x58
 126 366 l 1
 141 439 l 1x28
 323 433 l 1
 370 683 l 1
 443 683 l 1
 383 433 l 1x18
 568 439 l 1
 552 366 l 1x28
 370 373 l 1
 326 167 l 1x58
 512 174 l 1
 496 101 l 1x88
 314 107 l 1
 267 -144 l 1x48
EndSplineSet
EndChar
StartChar: periodcentered
Encoding: 118 183 111
Width: 255
VWidth: 1333
Flags: HW
HStem: 280 107<168.4 230.9>
VStem: 145 108<299.8 366.5>
Fore
145 321 m 0
 145 356 178 387 210 387 c 0
 235 387 253 369 253 344 c 0
 253 310 221 280 188 280 c 0
 162 280 145 298 145 321 c 0
EndSplineSet
EndChar
StartChar: paragraph
Encoding: 117 182 112
Width: 579
VWidth: 1333
Flags: HW
HStem: 597 69<527 573>
Fore
137 381 m 0
 137 511 261 666 478 666 c 2
 658 666 l 1
 493 -108 l 1
 423 -108 l 1
 573 597 l 1
 527 597 l 1
 377 -108 l 1
 307 -108 l 1
 370 190 l 1
 212 192 137 280 137 381 c 0
EndSplineSet
EndChar
StartChar: bullet
Encoding: 307 8226 113
Width: 442
VWidth: 1333
Flags: HW
Fore
101 229 m 0
 101 336 203 443 315 443 c 0
 398 443 455 383 455 304 c 0
 455 198 353 91 241 91 c 0
 158 91 101 150 101 229 c 0
EndSplineSet
EndChar
StartChar: quotesinglbase
Encoding: 301 8218 114
Width: 255
VWidth: 1333
Flags: HW
VStem: 80 117<-11.2 69.4>
Fore
80 20 m 0
 80 58 117 84 146 84 c 0
 173 84 197 66 197 31 c 0
 197 -36 119 -108 94 -121 c 1
 84 -124 l 1
 19 -124 l 1
 60 -96 l 2
 84 -79 109 -48 123 -23 c 1
 98 -22 80 -4 80 20 c 0
EndSplineSet
EndChar
StartChar: quotedblbase
Encoding: 304 8222 115
Width: 375
VWidth: 1333
Flags: HW
VStem: 80 117<-11.2 69.4> 200 117<-11.2 69.4>
Fore
200 20 m 0
 200 58 237 84 266 84 c 0
 293 84 317 66 317 31 c 0
 317 -36 239 -108 214 -121 c 1
 204 -124 l 1
 139 -124 l 1
 180 -96 l 2
 204 -79 229 -48 243 -23 c 1
 218 -22 200 -4 200 20 c 0
80 20 m 0
 80 58 117 84 146 84 c 0
 173 84 197 66 197 31 c 0
 197 -36 119 -108 94 -121 c 1
 84 -124 l 1
 19 -124 l 1
 60 -96 l 2
 84 -79 109 -48 123 -23 c 1
 98 -22 80 -4 80 20 c 0
EndSplineSet
EndChar
StartChar: quotedblright
Encoding: 303 8221 116
Width: 331
VWidth: 1333
Flags: HW
VStem: 180 117<583.9 658> 299 117<584.2 664.8>
Fore
299 618 m 0
 299 654 336 681 365 681 c 0
 390 681 416 665 416 629 c 0
 416 562 339 489 313 476 c 1
 303 473 l 1
 237 473 l 1
 281 502 l 2
 305 518 332 550 344 575 c 1
 342 575 l 2
 321 575 299 592 299 618 c 0
180 619 m 0
 180 649 212 681 246 681 c 0
 271 681 297 665 297 629 c 0
 297 545 195 476 195 476 c 1
 185 473 l 1
 119 473 l 1
 162 502 l 2
 187 518 213 550 226 575 c 1
 224 575 l 2
 202 575 180 592 180 619 c 0
EndSplineSet
EndChar
StartChar: guillemotright
Encoding: 122 187 117
Width: 395
VWidth: 1333
Flags: HW
HStem: 51 352<96 110>
VStem: 21 399<51 227>
Fore
96 403 m 1
 185 403 l 1
 274 227 l 1
 110 51 l 1
 21 51 l 1
 185 227 l 1
 96 403 l 1
243 403 m 1
 332 403 l 1
 420 227 l 1
 257 51 l 1
 168 51 l 1
 332 227 l 1
 243 403 l 1
EndSplineSet
EndChar
StartChar: ellipsis
Encoding: 308 8230 118
Width: 789
VWidth: 1333
Flags: HW
HStem: -23 107<108.3 160.7 376.3 428.7 636.1 705.4>
VStem: 80 109<-7.4 69.4> 348 109<-7.4 69.4> 614 108<3 63.2>
Fore
80 20 m 0
 80 58 117 84 146 84 c 0
 171 84 189 66 189 42 c 0
 189 4 152 -23 123 -23 c 0
 98 -23 80 -5 80 20 c 0
614 19 m 0
 614 53 646 84 679 84 c 0
 704 84 722 66 722 42 c 0
 722 12 694 -23 656 -23 c 0
 631 -23 614 -5 614 19 c 0
348 20 m 0
 348 58 385 84 414 84 c 0
 439 84 457 66 457 42 c 0
 457 4 420 -23 391 -23 c 0
 366 -23 348 -5 348 20 c 0
EndSplineSet
EndChar
StartChar: perthousand
Encoding: 309 8240 119
Width: 989
VWidth: 1333
Flags: HW
HStem: -24 73<457.2 570.3 790.2 896.8> 196 73<473.9 581.8 806.9 914.8> 393 74<215.2 317.9> 613 74<237.1 339.8>
VStem: 128 73<482.4 590.3> 354 73<489.7 597.6> 370 73<64.1 169.4> 596 73<81.8 180.6> 703 73<63.4 167.4> 929 73<74.6 179.9>
Fore
669 153 m 0xfbc0
 669 64 583 -24 488 -24 c 0
 418 -24 370 26 370 92 c 0
 370 180 454 269 551 269 c 0
 621 269 669 220 669 153 c 0xfbc0
535 196 m 0
 488 196 443 155 443 107 c 0
 443 74 468 49 504 49 c 0
 555 49 596 95 596 139 c 0
 596 171 571 196 535 196 c 0
1002 151 m 0
 1002 64 918 -25 821 -25 c 0
 751 -25 703 24 703 90 c 0
 703 180 789 268 884 268 c 0
 954 268 1002 218 1002 151 c 0
868 195 m 0
 821 195 776 153 776 105 c 0
 776 73 801 48 837 48 c 0
 883 48 929 89 929 137 c 0
 929 170 904 195 868 195 c 0
427 570 m 0xfdc0
 427 477 337 393 246 393 c 0
 176 393 128 443 128 509 c 0
 128 599 214 687 309 687 c 0
 379 687 427 637 427 570 c 0xfdc0
293 613 m 0
 250 613 201 575 201 524 c 0
 201 492 226 467 262 467 c 0
 305 467 354 505 354 556 c 0
 354 588 329 613 293 613 c 0
676 679 m 1
 765 679 l 1
 120 -20 l 1
 31 -20 l 1
 676 679 l 1
EndSplineSet
EndChar
StartChar: questiondown
Encoding: 126 191 120
Width: 487
VWidth: 1333
Flags: HW
HStem: -252 72<125.8 298.7> 353 107<317.3 381.4>
VStem: 32 73<-162.9 56.8> 289 109<379 442.8>
Fore
398 418 m 0
 398 388 370 353 332 353 c 0
 307 353 289 371 289 396 c 0
 289 432 326 460 355 460 c 0
 380 460 398 442 398 418 c 0
287 316 m 1
 359 316 l 1
 342 233 l 2
 304 52 105 22 105 -94 c 0
 105 -147 142 -180 196 -180 c 0
 275 -180 340 -119 351 -68 c 2
 354 -52 l 1
 426 -52 l 1
 423 -68 l 2
 402 -166 292 -252 181 -252 c 0
 90 -252 32 -194 32 -109 c 0
 32 56 239 89 270 233 c 2
 287 316 l 1
EndSplineSet
EndChar
StartChar: grave
Encoding: 64 96 121
Width: 190
VWidth: 1333
Flags: HW
Fore
262 533 m 1
 199 533 l 1
 154 696 l 1
 242 696 l 1
 262 533 l 1
EndSplineSet
EndChar
StartChar: acute
Encoding: 115 180 122
Width: 282
VWidth: 1333
Flags: HW
HStem: 517 192<256 334>
VStem: 172 279<517 709>
Fore
334 709 m 1
 451 709 l 1
 256 517 l 1
 172 517 l 1
 334 709 l 1
EndSplineSet
EndChar
StartChar: circumflex
Encoding: 201 710 123
Width: 309
VWidth: 1333
Flags: HW
HStem: 637 151<300 449>
VStem: 131 318<637 637>
Fore
300 788 m 1
 344 788 l 1
 449 637 l 1
 351 637 l 1
 304 703 l 1
 229 637 l 1
 131 637 l 1
 300 788 l 1
EndSplineSet
EndChar
StartChar: tilde
Encoding: 206 732 124
Width: 290
VWidth: 1333
Flags: HW
HStem: 616 71<211.809 248.6>
VStem: 138 282<575 681>
Fore
142 591 m 2
 159 672 206 687 235 687 c 0
 285 687 317 642 341 640 c 0
 344 640 354 645 358 665 c 2
 362 681 l 1
 420 681 l 1
 416 665 l 2
 401 592 368 567 326 567 c 0
 278 567 242 616 220 616 c 0
 212 616 205 609 200 590 c 2
 196 575 l 1
 138 575 l 1
 142 591 l 2
EndSplineSet
EndChar
StartChar: macron
Encoding: 110 175 125
Width: 402
VWidth: 1333
Flags: HW
HStem: 524 72<175 466>
VStem: 159 322<524 596>
Fore
481 596 m 1
 466 524 l 1
 159 524 l 1
 175 596 l 1
 481 596 l 1
EndSplineSet
EndChar
StartChar: dotaccent
Encoding: 203 729 126
Width: 255
VWidth: 1333
Flags: HW
HStem: 537 107<227.3 291.4>
VStem: 199 109<563 629.4>
Fore
199 580 m 0
 199 618 236 644 265 644 c 0
 290 644 308 626 308 602 c 0
 308 572 280 537 242 537 c 0
 217 537 199 555 199 580 c 0
EndSplineSet
EndChar
StartChar: dieresis
Encoding: 103 168 127
Width: 298
VWidth: 1333
Flags: HW
HStem: 524 107<161.4 223.9 321.4 383.9>
VStem: 138 108<544.8 610.5> 298 108<544.8 610.5>
Fore
138 565 m 0
 138 600 171 631 203 631 c 0
 229 631 246 613 246 589 c 0
 246 555 214 524 181 524 c 0
 155 524 138 542 138 565 c 0
298 565 m 0
 298 600 331 631 363 631 c 0
 389 631 406 613 406 589 c 0
 406 555 374 524 341 524 c 0
 315 524 298 542 298 565 c 0
EndSplineSet
EndChar
StartChar: ring
Encoding: 204 730 128
Width: 255
VWidth: 1333
Flags: HW
HStem: 485 72<222.6 273.3> 637 72<229.2 287.7>
VStem: 141 73<565.6 618.9> 296 73<569.9 628.4>
Fore
369 620 m 0
 369 555 307 485 231 485 c 0
 177 485 141 523 141 574 c 0
 141 639 203 709 279 709 c 0
 333 709 369 671 369 620 c 0
263 637 m 0
 237 637 214 612 214 589 c 0
 214 571 228 557 246 557 c 0
 267 557 296 578 296 605 c 0
 296 623 282 637 263 637 c 0
EndSplineSet
EndChar
StartChar: cedilla
Encoding: 119 184 129
Width: 279
VWidth: 1333
Flags: HW
HStem: -205 71<82.0922 128.363>
Fore
209 -98 m 0
 209 -154 161 -204 89 -205 c 0
 64 -205 38 -198 17 -181 c 2
 5 -173 l 1
 57 -112 l 1
 68 -121 l 2
 80 -130 94 -134 106 -134 c 0
 120 -134 134 -129 134 -119 c 0
 134 -114 125 -108 104 -104 c 2
 52 -97 l 1
 133 5 l 1
 207 5 l 1
 170 -43 l 1
 201 -55 209 -78 209 -98 c 0
EndSplineSet
EndChar
StartChar: hungarumlaut
Encoding: 207 733 130
Width: 455
VWidth: 1333
Flags: HW
HStem: 517 192<256 334>
VStem: 172 452<517 709>
Fore
334 709 m 1
 451 709 l 1
 256 517 l 1
 172 517 l 1
 334 709 l 1
507 709 m 1
 624 709 l 1
 430 517 l 1
 345 517 l 1
 507 709 l 1
EndSplineSet
EndChar
StartChar: ogonek
Encoding: 205 731 131
Width: 270
VWidth: 1333
Flags: HW
HStem: -191 66<101 134.754>
VStem: 24 75<-125.8 -84.2>
Fore
24 -121 m 0
 24 -66 77 -16 114 16 c 1
 201 16 l 1
 169 -11 l 2
 114 -58 99 -89 99 -105 c 0
 99 -121 117 -125 127 -125 c 0
 134 -125 143 -122 152 -117 c 2
 166 -107 l 1
 197 -157 l 1
 180 -167 l 2
 153 -183 125 -191 101 -191 c 0
 56 -191 24 -164 24 -121 c 0
EndSplineSet
EndChar
StartChar: caron
Encoding: 202 711 132
Width: 309
VWidth: 1333
Flags: HW
HStem: 637 151<163 312>
VStem: 163 318<788 788>
Fore
312 637 m 1
 268 637 l 1
 163 788 l 1
 261 788 l 1
 308 722 l 1
 383 788 l 1
 481 788 l 1
 312 637 l 1
EndSplineSet
EndChar
StartChar: emdash
Encoding: 298 8212 133
Width: 615
VWidth: 1333
Flags: HW
HStem: 191 72<104 609>
Fore
624 263 m 1
 609 191 l 1
 89 191 l 1
 104 263 l 1
 624 263 l 1
EndSplineSet
EndChar
StartChar: AE
Encoding: 133 198 134
Width: 743
VWidth: 1333
Flags: HW
HStem: 0 68<505 694> 197 69<257 435> 350 69<513 732> 598 69<517 811>
VStem: 431 74<68 147.75> 438 73<266 350> 445 72<463.75 562> 445 68<435.143 553.25>
Fore
746 419 m 1xf1
 732 350 l 1
 511 350 l 1xf4
 505 68 l 1
 709 68 l 1
 694 0 l 1
 431 0 l 1xf8
 435 197 l 1
 212 197 l 1
 86 0 l 1
 11 0 l 1
 436 667 l 1
 825 667 l 1
 811 598 l 1
 517 598 l 1xf2
 513 419 l 1
 746 419 l 1xf1
257 266 m 1
 438 266 l 1xf4
 445 562 l 1xf2
 257 266 l 1
EndSplineSet
EndChar
StartChar: ordfeminine
Encoding: 105 170 135
Width: 374
VWidth: 1333
Flags: HW
HStem: 261 67<194.4 280.5> 445 60<170.9 337.226> 560 65<232.6 349.6>
VStem: 112 69<334.3 409.7> 337 71<273 317.164>
Fore
284 445 m 0
 197 445 181 401 181 372 c 0
 181 343 204 328 236 328 c 0
 296 328 347 393 356 420 c 2
 359 435 l 1
 338 441 311 445 284 445 c 0
112 357 m 0
 112 423 161 505 293 505 c 0
 320 505 345 502 368 495 c 1
 365 536 337 560 295 560 c 0
 247 560 216 527 204 512 c 1
 152 530 l 1
 171 553 227 625 312 625 c 0
 385 625 439 579 439 502 c 0
 439 489 437 476 434 461 c 2
 414 367 l 2
 409 342 408 312 408 293 c 2
 408 273 l 1
 338 258 l 1
 337 268 337 276 337 286 c 0
 337 293 337 301 338 312 c 1
 307 284 267 261 222 261 c 0
 157 261 112 299 112 357 c 0
EndSplineSet
EndChar
StartChar: Lslash
Encoding: 191 321 136
Width: 518
VWidth: 1286
Flags: HW
HStem: 0 69<149 476> 647 20G<206 276>
VStem: 27 463<69 128>
Fore
476 0 m 1
 64 0 l 1
 103 185 l 1
 27 128 l 1
 48 225 l 1
 124 281 l 1
 206 667 l 1
 276 667 l 1
 208 344 l 1
 401 489 l 1
 381 393 l 1
 187 248 l 1
 149 69 l 1
 490 69 l 1
 476 0 l 1
EndSplineSet
EndChar
StartChar: Oslash
Encoding: 151 216 137
Width: 782
VWidth: 1286
Flags: HW
HStem: -6 68<349.1 627.3> 604 69<299 574.6>
VStem: 107 72<200 504.2> 745 73<162.5 468>
Fore
818 403 m 0
 818 195 615 -6 390 -6 c 0
 334 -6 283 7 241 30 c 1
 152 -73 l 1
 100 -34 l 1
 189 68 l 1
 138 116 107 185 107 264 c 0
 107 470 310 673 535 673 c 0
 591 673 641 660 683 637 c 1
 772 739 l 1
 825 701 l 1
 736 599 l 1
 787 550 818 482 818 403 c 0
405 62 m 0
 576 62 745 215 745 390 c 0
 745 450 723 502 685 540 c 1
 292 88 l 1
 324 72 362 62 405 62 c 0
520 604 m 0
 350 604 179 452 179 278 c 0
 179 218 201 165 239 126 c 1
 633 579 l 1
 600 595 562 604 520 604 c 0
EndSplineSet
EndChar
StartChar: OE
Encoding: 193 338 138
Width: 893
VWidth: 1333
Flags: HW
HStem: -7 69<238.1 451.367> 0 68<517 844> 350 69<590 892> 598 69<685.5 970> 605 68<300.8 569.289>
VStem: 114 72<118.4 499.3>
Fore
114 263 m 0xa4
 114 474 320 673 541 673 c 0xac
 564 673 586 671 607 667 c 1
 984 667 l 1
 970 598 l 1
 629 598 l 1
 590 419 l 1
 907 419 l 1
 892 350 l 1
 577 350 l 1
 517 68 l 1
 858 68 l 1
 844 0 l 1
 465 0 l 1x74
 443 -4 420 -7 397 -7 c 0
 229 -7 114 109 114 263 c 0xa4
527 605 m 0
 353 605 186 448 186 277 c 0
 186 155 278 62 411 62 c 0
 423 62 435 63 446 64 c 1
 560 603 l 1
 550 604 538 605 527 605 c 0
EndSplineSet
EndChar
StartChar: ordmasculine
Encoding: 121 186 139
Width: 366
VWidth: 1333
Flags: HW
HStem: 260 71<195.5 329.4> 525 71<220.6 354.5>
VStem: 103 74<350.8 489.9> 373 74<366.1 505.2>
Fore
447 463 m 0
 447 361 348 260 239 260 c 0
 158 260 103 317 103 392 c 0
 103 492 199 596 311 596 c 0
 391 596 447 539 447 463 c 0
296 525 m 0
 238 525 177 471 177 408 c 0
 177 364 209 331 254 331 c 0
 312 331 373 385 373 448 c 0
 373 492 341 525 296 525 c 0
EndSplineSet
EndChar
StartChar: ae
Encoding: 165 230 140
Width: 846
VWidth: 1261
Flags: HW
HStem: -8 68<144.8 292 498.9 632.1> 212 66<492 776> 215 63<294.4 413> 392 68<234.5 382.7 577.1 741.2>
VStem: 71 72<81.8 130.712>
Fore
401 215 m 1xb8
 319 214 143 204 143 113 c 0
 143 89 161 60 215 60 c 0
 276 60 349 107 388 155 c 1
 401 215 l 1xb8
492 278 m 1xd8
 776 278 l 1
 770 346 722 392 658 392 c 0
 595 392 527 346 492 278 c 1xd8
471 212 m 1
 469 206 468 198 468 189 c 0
 468 114 519 62 586 62 c 0
 643 62 703 92 751 151 c 1
 804 118 l 1
 720 10 618 -6 571 -6 c 0
 493 -6 436 37 411 100 c 1
 355 38 271 -8 201 -8 c 0
 106 -8 71 47 71 100 c 0
 71 108 71 116 73 124 c 0
 104 272 312 278 413 278 c 1xb8
 414 284 414 289 414 294 c 0
 414 361 368 394 319 394 c 0
 254 394 209 341 196 327 c 1
 147 363 l 1
 166 385 233 461 333 461 c 0
 398 461 454 427 475 365 c 1
 527 422 599 460 672 460 c 0
 779 460 848 379 848 277 c 0
 848 254 844 233 841 212 c 1
 471 212 l 1
EndSplineSet
EndChar
StartChar: lslash
Encoding: 192 322 141
Width: 197
VWidth: 1286
Flags: HW
HStem: 0 21G<64 135> 647 20G<206 276>
VStem: 43 233<146 667>
Fore
135 0 m 1
 64 0 l 1
 105 192 l 1
 43 146 l 1
 63 242 l 1
 125 288 l 1
 206 667 l 1
 276 667 l 1
 209 352 l 1
 270 397 l 1
 249 301 l 1
 189 255 l 1
 135 0 l 1
EndSplineSet
EndChar
StartChar: oslash
Encoding: 183 248 142
Width: 573
VWidth: 1261
Flags: HW
HStem: -6 67<259.4 441.4> 392 68<235.5 398.873>
VStem: 87 72<152.7 333.4> 514 69<123.5 318.5>
Fore
583 274 m 0
 583 132 444 -6 286 -6 c 0
 252 -6 222 0 195 12 c 1
 134 -71 l 1
 76 -37 l 1
 140 49 l 1
 107 82 87 128 87 180 c 0
 87 320 227 460 385 460 c 0
 404 460 422 458 439 454 c 1
 491 524 l 1
 549 489 l 1
 503 427 l 1
 553 394 583 339 583 274 c 0
372 392 m 0
 267 392 159 301 159 193 c 0
 159 162 169 134 187 112 c 1
 393 391 l 1
 386 392 379 392 372 392 c 0
301 61 m 0
 409 61 514 155 514 260 c 0
 514 305 493 344 458 367 c 1
 240 72 l 1
 258 65 279 61 301 61 c 0
EndSplineSet
EndChar
StartChar: oe
Encoding: 194 339 143
Width: 954
VWidth: 1261
Flags: HW
HStem: -6 67<191.8 400.4 606.9 740.1> 212 66<600 884> 392 68<236.8 481.2 684.1 849.2>
VStem: 87 72<94.2 334.7> 514 62<120.6 261>
Fore
372 392 m 0
 268 392 159 302 159 193 c 0
 159 117 217 61 301 61 c 0
 407 61 514 153 514 261 c 0
 514 336 456 392 372 392 c 0
87 181 m 0
 87 319 226 460 385 460 c 0
 473 460 540 415 569 348 c 1
 621 414 699 460 780 460 c 0
 887 460 956 379 956 277 c 0
 956 254 952 233 949 212 c 1
 578 212 l 1
 577 204 576 196 576 188 c 0
 576 114 627 62 694 62 c 0
 751 62 811 92 859 151 c 1
 913 118 l 1
 828 10 726 -6 679 -6 c 0
 599 -6 541 39 517 105 c 1
 460 38 374 -6 286 -6 c 0
 168 -6 87 74 87 181 c 0
600 278 m 1
 884 278 l 1
 878 346 830 392 766 392 c 0
 703 392 635 346 600 278 c 1
EndSplineSet
EndChar
StartChar: germandbls
Encoding: 158 223 144
Width: 495
VWidth: 1333
Flags: HW
HStem: -7 62<261.3 408.2> 675 67<320.1 448.8>
VStem: 324 73<319.2 440.1> 432 73<130.8 275.1> 474 74<449 662.2>
Fore
505 200 m 0xf0
 505 118 422 -7 297 -7 c 0
 249 -7 199 13 155 58 c 1
 216 92 l 1
 241 66 270 55 299 55 c 0
 383 55 432 144 432 188 c 0xf0
 432 255 324 286 324 366 c 0
 324 472 474 482 474 592 c 0
 474 646 435 675 389 675 c 0
 336 675 269 633 244 514 c 2
 135 1 l 1
 64 1 l 1
 173 513 l 2
 206 667 312 742 406 742 c 0
 483 742 548 692 548 605 c 0xe8
 548 460 397 426 397 379 c 0
 397 333 505 293 505 200 c 0xf0
EndSplineSet
EndChar
StartChar: logicalnot
Encoding: 107 172 145
Width: 594
VWidth: 1333
Flags: HW
HStem: 351 72<114 573>
Fore
660 423 m 1
 601 144 l 1
 529 144 l 1
 573 351 l 1
 99 351 l 1
 114 423 l 1
 660 423 l 1
EndSplineSet
EndChar
StartChar: trademark
Encoding: 314 8482 146
Width: 758
VWidth: 1333
Flags: HW
HStem: 736 64<225 304 369 462>
VStem: 745 66<451 639> 748 62<451 639>
Fore
476 800 m 1x80
 462 736 l 1
 369 736 l 1
 309 451 l 1
 243 451 l 1
 304 736 l 1
 211 736 l 1
 225 800 l 1
 476 800 l 1x80
748 639 m 1xa0
 597 444 l 1
 534 639 l 1
 456 451 l 1
 389 451 l 1
 544 807 l 1
 626 570 l 1
 810 806 l 1xa0
 811 451 l 1
 745 451 l 1xc0
 748 639 l 1xa0
EndSplineSet
EndChar
StartChar: Eth
Encoding: 143 208 147
Width: 609
VWidth: 1333
Flags: HW
HStem: 0 68<149 453.2> 299 69<77 128 213 392> 598 69<262 513.2>
VStem: 566 71<167 546.6>
Fore
227 68 m 2
 401 68 566 218 566 388 c 0
 566 510 473 598 339 598 c 2
 262 598 l 1
 213 368 l 1
 406 368 l 1
 392 299 l 1
 198 299 l 1
 149 68 l 1
 227 68 l 2
637 402 m 0
 637 196 437 0 212 0 c 2
 64 0 l 1
 128 299 l 1
 63 299 l 1
 77 368 l 1
 143 368 l 1
 206 667 l 1
 354 667 l 2
 521 667 637 555 637 402 c 0
EndSplineSet
EndChar
StartChar: onehalf
Encoding: 124 189 148
Width: 813
VWidth: 1333
Flags: HW
HStem: 0 69<558 760> 392 69<658.9 748.6> 647 20G<723 809>
VStem: 765 74<301.127 377.4>
Fore
839 341 m 0
 839 183 623 156 558 69 c 1
 774 69 l 1
 760 0 l 1
 461 0 l 1
 468 33 l 2
 501 187 744 216 763 307 c 0
 765 314 765 321 765 328 c 0
 765 366 739 392 707 392 c 0
 670 392 626 357 616 307 c 2
 612 292 l 1
 543 292 l 1
 546 307 l 2
 563 390 641 461 723 461 c 0
 794 461 839 409 839 341 c 0
723 667 m 1
 809 667 l 1
 186 0 l 1
 100 0 l 1
 723 667 l 1
247 557 m 1
 202 530 l 1
 175 587 l 1
 345 688 l 1
 244 215 l 1
 174 215 l 1
 247 557 l 1
EndSplineSet
LCarets2: 2 0 0 
Ligature2: "'frac' Diagonal Fractions in Latin lookup 42" one fraction two
Ligature2: "'frac' Diagonal Fractions in Latin lookup 42" one slash two
EndChar
StartChar: plusminus
Encoding: 112 177 149
Width: 422
VWidth: 1333
Flags: HW
HStem: 0 69<39 399> 286 69<99 237 322 460>
VStem: 24 450<0 355>
Fore
414 69 m 1
 399 0 l 1
 24 0 l 1
 39 69 l 1
 414 69 l 1
275 136 m 1
 205 136 l 1
 237 286 l 1
 85 286 l 1
 99 355 l 1
 252 355 l 1
 284 505 l 1
 354 505 l 1
 322 355 l 1
 474 355 l 1
 460 286 l 1
 307 286 l 1
 275 136 l 1
EndSplineSet
EndChar
StartChar: Thorn
Encoding: 157 222 150
Width: 515
VWidth: 1333
Flags: HW
HStem: 0 21G<64 135> 135 70<177.441 464.1> 462 67<243.991 437.2> 647 20G<206 276>
VStem: 469 72<278.7 443.8>
Fore
247 205 m 0
 414 205 469 297 469 358 c 0
 469 424 406 462 302 462 c 0
 281 462 257 460 232 457 c 1
 179 210 l 1
 203 206 226 205 247 205 c 0
541 371 m 0
 541 259 438 135 233 135 c 0
 210 135 187 136 164 140 c 1
 135 0 l 1
 64 0 l 1
 206 667 l 1
 276 667 l 1
 246 524 l 1
 270 528 294 529 316 529 c 0
 458 529 541 467 541 371 c 0
EndSplineSet
EndChar
StartChar: onequarter
Encoding: 123 188 151
Width: 813
VWidth: 1333
Flags: HW
HStem: 0 21G<140 226 634 704> 69 70<544 649 732 763> 647 20G<763 849>
Fore
763 667 m 1
 849 667 l 1
 226 0 l 1
 140 0 l 1
 763 667 l 1
664 139 m 1
 697 295 l 1
 544 139 l 1
 664 139 l 1
247 557 m 1
 202 530 l 1
 175 587 l 1
 345 688 l 1
 244 215 l 1
 174 215 l 1
 247 557 l 1
649 69 m 1
 388 69 l 1
 809 498 l 1
 732 139 l 1
 800 139 l 1
 763 69 l 1
 719 69 l 1
 704 0 l 1
 634 0 l 1
 649 69 l 1
EndSplineSet
LCarets2: 2 0 0 
Ligature2: "'frac' Diagonal Fractions in Latin lookup 42" one fraction four
Ligature2: "'frac' Diagonal Fractions in Latin lookup 42" one slash four
EndChar
StartChar: divide
Encoding: 182 247 152
Width: 482
VWidth: 1333
Flags: HW
HStem: 156 107<251.5 313> 297 72<127 498>
VStem: 231 109<170.6 239.6> 284 109<418.6 495.4>
Fore
231 198 m 0xe0
 231 230 262 263 297 263 c 0
 322 263 340 245 340 220 c 0
 340 182 304 156 274 156 c 0
 249 156 231 174 231 198 c 0xe0
284 446 m 0xd0
 284 484 321 511 350 511 c 0
 375 511 393 493 393 468 c 0
 393 430 356 404 327 404 c 0
 302 404 284 422 284 446 c 0xd0
513 369 m 1
 498 297 l 1
 111 297 l 1
 127 369 l 1
 513 369 l 1
EndSplineSet
EndChar
StartChar: brokenbar
Encoding: 101 166 153
Width: 167
VWidth: 1333
Flags: HW
VStem: -4 272<-243 696>
Fore
185 304 m 1
 113 304 l 1
 196 696 l 1
 268 696 l 1
 185 304 l 1
68 -243 m 1
 -4 -243 l 1
 80 149 l 1
 152 149 l 1
 68 -243 l 1
EndSplineSet
EndChar
StartChar: degree
Encoding: 111 176 154
Width: 354
VWidth: 1333
Flags: HW
HStem: 525 74<268.6 351.8> 711 73<287.7 364.4>
VStem: 184 75<608.9 693.4> 373 76<618.6 699.2>
Fore
449 681 m 0
 449 605 376 525 289 525 c 0
 227 525 184 569 184 628 c 0
 184 705 259 784 344 784 c 0
 406 784 449 740 449 681 c 0
328 711 m 0
 297 711 259 682 259 644 c 0
 259 617 277 599 305 599 c 0
 341 599 373 630 373 668 c 0
 373 692 356 711 328 711 c 0
EndSplineSet
EndChar
StartChar: thorn
Encoding: 189 254 155
Width: 513
VWidth: 1333
Flags: HW
HStem: -8 70<197.3 410.5> 393 67<295 448> 646 20G<194 265>
VStem: 479 73<127.2 363.8>
Fore
552 278 m 0
 552 136 423 -8 273 -8 c 0
 214 -8 166 17 135 56 c 1
 76 -222 l 1
 5 -222 l 1
 194 666 l 1
 265 666 l 1
 208 400 l 1
 256 439 313 460 373 460 c 0
 482 460 552 382 552 278 c 0
287 62 m 0
 382 62 479 159 479 265 c 0
 479 341 427 393 357 393 c 0
 280 393 200 331 174 241 c 2
 169 214 l 2
 168 205 167 196 167 188 c 0
 167 112 218 62 287 62 c 0
EndSplineSet
EndChar
StartChar: threequarters
Encoding: 125 190 156
Width: 813
VWidth: 1333
Flags: HW
HStem: 0 21G<192 278 661 730> 70 69<570 675 759 789> 207 68<202.3 319.3> 438 69<287 333> 605 68<284 358.1>
VStem: 115 71<290.9 365.291> 355 69<305.4 421.1> 368 69<516.2 594.2>
Fore
424 385 m 0xfe
 424 298 336 207 238 207 c 0
 165 207 115 258 115 326 c 0
 115 342 118 358 121 372 c 1
 191 372 l 1
 191 372 186 349 186 339 c 0
 186 302 214 275 253 275 c 0
 304 275 355 321 355 373 c 0xfe
 355 410 328 438 288 438 c 2
 273 438 l 1
 287 507 l 1
 303 507 l 2
 333 507 368 527 368 563 c 0
 368 587 350 605 323 605 c 0
 293 605 264 581 258 552 c 2
 255 537 l 1
 185 537 l 1
 188 552 l 2
 202 619 269 673 337 673 c 0
 396 673 437 632 437 577 c 0xfd
 437 530 409 494 386 474 c 1
 410 453 424 421 424 385 c 0xfe
815 667 m 1
 901 667 l 1
 278 0 l 1
 192 0 l 1
 815 667 l 1
690 139 m 1
 723 294 l 1
 570 139 l 1
 690 139 l 1
675 70 m 1
 414 70 l 1
 835 499 l 1
 759 139 l 1
 827 139 l 1
 789 70 l 1
 745 70 l 1
 730 0 l 1
 661 0 l 1
 675 70 l 1
EndSplineSet
LCarets2: 2 0 0 
Ligature2: "'frac' Diagonal Fractions in Latin lookup 42" three fraction four
Ligature2: "'frac' Diagonal Fractions in Latin lookup 42" three slash four
EndChar
StartChar: registered
Encoding: 109 174 157
Width: 789
VWidth: 1333
Flags: HW
HStem: -7 69<235.1 627.7> 295 69<420 462> 464 69<442 546.6> 605 68<302 695.9>
VStem: 114 71<118.1 500.3> 556 72<380.8 454.9> 746 71<164.4 549.2>
Fore
628 439 m 0
 628 387 590 331 538 308 c 1
 598 133 l 1
 517 133 l 1
 462 295 l 1
 406 295 l 1
 371 133 l 1
 301 133 l 1
 386 533 l 1
 533 533 l 2
 590 533 628 493 628 439 c 0
523 605 m 0
 353 605 185 449 185 278 c 0
 185 155 275 62 408 62 c 0
 577 62 746 216 746 388 c 0
 746 512 656 605 523 605 c 0
817 402 m 0
 817 195 616 -7 393 -7 c 0
 228 -7 114 109 114 263 c 0
 114 473 317 673 538 673 c 0
 703 673 817 557 817 402 c 0
498 364 m 2
 527 364 556 391 556 425 c 0
 556 448 540 464 518 464 c 2
 442 464 l 1
 420 364 l 1
 498 364 l 2
EndSplineSet
EndChar
StartChar: eth
Encoding: 175 240 158
Width: 522
VWidth: 1333
Flags: HW
HStem: -7 68<166.8 408.6> 399 70<210.2 405.6>
VStem: 65 69<95.9 336.4> 489 75<118.8 372.3>
Fore
564 307 m 0
 564 100 392 -7 263 -7 c 0
 145 -7 65 74 65 182 c 0
 65 326 206 469 364 469 c 0
 396 469 426 463 452 452 c 1
 433 489 408 523 377 553 c 1
 217 470 l 1
 195 529 l 1
 325 597 l 1
 285 626 247 641 211 653 c 1
 246 719 l 1
 301 701 349 678 399 637 c 1
 560 720 l 1
 582 660 l 1
 447 590 l 1
 542 488 564 382 564 307 c 0
276 61 m 0
 378 61 489 153 489 267 c 0
 489 348 427 399 348 399 c 0
 242 399 134 304 134 196 c 0
 134 119 192 61 276 61 c 0
EndSplineSet
EndChar
StartChar: multiply
Encoding: 150 215 159
Width: 511
VWidth: 1333
Flags: HW
HStem: 140 387<123 531>
Fore
531 140 m 1
 429 140 l 1
 317 281 l 1
 149 140 l 1
 48 140 l 1
 277 332 l 1
 123 527 l 1
 225 527 l 1
 339 383 l 1
 511 527 l 1
 612 527 l 1
 379 332 l 1
 531 140 l 1
EndSplineSet
EndChar
StartChar: copyright
Encoding: 104 169 160
Width: 789
VWidth: 1333
Flags: HW
HStem: -7 69<235.1 627.7> 132 69<371 519.2> 463 69<406.2 571.3> 605 68<302 695.9>
VStem: 114 71<118.1 500.3> 277 71<223 415.4> 746 71<164.4 549.2>
Fore
817 402 m 0
 817 195 616 -7 393 -7 c 0
 228 -7 114 109 114 263 c 0
 114 473 317 673 538 673 c 0
 703 673 817 557 817 402 c 0
523 605 m 0
 353 605 185 449 185 278 c 0
 185 155 275 62 408 62 c 0
 577 62 746 216 746 388 c 0
 746 512 656 605 523 605 c 0
492 463 m 0
 426 463 348 389 348 301 c 0
 348 241 386 201 436 201 c 0
 500 201 539 255 555 275 c 1
 608 241 l 1
 581 207 519 132 421 132 c 0
 332 132 277 200 277 286 c 0
 277 414 389 532 506 532 c 0
 604 532 635 458 646 423 c 1
 579 389 l 1
 570 412 553 463 492 463 c 0
EndSplineSet
EndChar
StartChar: Aacute
Encoding: 128 193 161
Width: 617
VWidth: 1287
Flags: HW
HStem: 1 21G<11 87 531 607> 198 69<258 475>
Fore
532 855 m 1
 657 855 l 1
 454 704 l 1
 373 704 l 1
 532 855 l 1
258 267 m 1
 475 267 l 1
 415 496 l 1
 258 267 l 1
212 198 m 1
 87 1 l 1
 11 1 l 1
 452 674 l 1
 607 1 l 1
 531 1 l 1
 489 198 l 1
 212 198 l 1
EndSplineSet
EndChar
StartChar: Acircumflex
Encoding: 129 194 162
Width: 617
VWidth: 1287
Flags: HW
HStem: 1 21G<11 87 531 607> 198 69<258 475>
Fore
258 267 m 1
 475 267 l 1
 415 496 l 1
 258 267 l 1
212 198 m 1
 87 1 l 1
 11 1 l 1
 452 674 l 1
 607 1 l 1
 531 1 l 1
 489 198 l 1
 212 198 l 1
469 855 m 1
 512 855 l 1
 617 704 l 1
 519 704 l 1
 472 770 l 1
 397 704 l 1
 299 704 l 1
 469 855 l 1
EndSplineSet
EndChar
StartChar: Adieresis
Encoding: 131 196 163
Width: 617
VWidth: 1287
Flags: HW
HStem: 1 21G<11 87 531 607> 198 69<258 475> 704 107<355.5 417 515.5 577>
VStem: 335 109<718.6 787.6> 495 109<718.6 787.6>
Fore
258 267 m 1
 475 267 l 1
 415 496 l 1
 258 267 l 1
212 198 m 1
 87 1 l 1
 11 1 l 1
 452 674 l 1
 607 1 l 1
 531 1 l 1
 489 198 l 1
 212 198 l 1
335 746 m 0
 335 778 366 811 401 811 c 0
 426 811 444 793 444 768 c 0
 444 730 408 704 378 704 c 0
 353 704 335 722 335 746 c 0
495 746 m 0
 495 778 526 811 561 811 c 0
 586 811 604 793 604 768 c 0
 604 730 568 704 538 704 c 0
 513 704 495 722 495 746 c 0
EndSplineSet
EndChar
StartChar: Agrave
Encoding: 127 192 164
Width: 617
VWidth: 1287
Flags: HW
HStem: 1 21G<11 87 531 607> 198 69<258 475>
Fore
302 855 m 1
 428 855 l 1
 523 704 l 1
 441 704 l 1
 302 855 l 1
258 267 m 1
 475 267 l 1
 415 496 l 1
 258 267 l 1
212 198 m 1
 87 1 l 1
 11 1 l 1
 452 674 l 1
 607 1 l 1
 531 1 l 1
 489 198 l 1
 212 198 l 1
EndSplineSet
EndChar
StartChar: Aring
Encoding: 132 197 165
Width: 617
VWidth: 1287
Flags: HW
HStem: 1 21G<11 87 531 607> 198 69<258 475> 697 72<447.3 504.5> 849 72<450 513.7>
VStem: 366 73<778.6 826.7> 521 74<785.5 841.4>
Fore
258 267 m 1
 475 267 l 1
 415 496 l 1
 258 267 l 1
212 198 m 1
 87 1 l 1
 11 1 l 1
 452 674 l 1
 607 1 l 1
 531 1 l 1
 489 198 l 1
 212 198 l 1
595 833 m 0
 595 768 534 697 457 697 c 0
 403 697 366 735 366 786 c 0
 366 850 429 921 504 921 c 0
 558 921 595 884 595 833 c 0
489 849 m 0
 459 849 439 821 439 802 c 0
 439 784 453 769 472 769 c 0
 497 769 521 793 521 818 c 0
 521 836 508 849 489 849 c 0
EndSplineSet
EndChar
StartChar: Atilde
Encoding: 130 195 166
Width: 617
VWidth: 1287
Flags: HW
HStem: 1 21G<11 87 531 607> 198 69<258 475> 746 71<401.809 439.9>
Fore
258 267 m 1
 475 267 l 1
 415 496 l 1
 258 267 l 1
212 198 m 1
 87 1 l 1
 11 1 l 1
 452 674 l 1
 607 1 l 1
 531 1 l 1
 489 198 l 1
 212 198 l 1
386 704 m 1
 329 704 l 1
 333 721 l 2
 342 756 362 817 427 817 c 0
 479 817 510 770 530 770 c 0
 538 770 545 779 549 795 c 2
 552 811 l 1
 611 811 l 1
 607 795 l 2
 592 724 557 697 515 697 c 0
 468 697 433 746 410 746 c 0
 402 746 395 739 390 719 c 2
 386 704 l 1
EndSplineSet
EndChar
StartChar: Ccedilla
Encoding: 134 199 167
Width: 723
VWidth: 1286
Flags: HW
HStem: -205 71<307.092 353.363> 603 70<293.8 700.7>
VStem: 108 72<117.4 500.9>
Fore
520 603 m 0
 346 603 180 449 180 276 c 0
 180 154 271 61 405 61 c 0
 543 61 635 154 662 182 c 1
 711 145 l 1
 625 55 527 4 424 -5 c 1
 395 -43 l 1
 426 -55 434 -78 434 -98 c 0
 434 -154 386 -204 314 -205 c 0
 289 -205 263 -198 242 -181 c 2
 230 -173 l 1
 282 -112 l 1
 293 -121 l 2
 305 -130 319 -134 331 -134 c 0
 345 -134 359 -129 359 -119 c 0
 359 -114 350 -108 329 -104 c 2
 277 -97 l 1
 351 -4 l 1
 205 12 108 122 108 264 c 0
 108 470 310 673 535 673 c 0
 708 673 773 558 791 522 c 1
 726 481 l 1
 710 509 659 603 520 603 c 0
EndSplineSet
EndChar
StartChar: Eacute
Encoding: 136 201 168
Width: 518
VWidth: 1286
Flags: HW
HStem: 0 69<149 474> 350 69<224 523> 598 69<262 603>
Fore
580 855 m 5
 377 704 l 5
 295 704 l 5
 454 855 l 5
 580 855 l 5
537 419 m 1
 523 350 l 1
 209 350 l 1
 149 69 l 1
 489 69 l 1
 474 0 l 1
 64 0 l 1
 206 667 l 1
 617 667 l 1
 603 598 l 1
 262 598 l 1
 224 419 l 1
 537 419 l 1
EndSplineSet
EndChar
StartChar: Ecircumflex
Encoding: 137 202 169
Width: 518
VWidth: 1286
Flags: HW
HStem: 0 69<149 474> 350 69<224 523> 598 69<262 603>
Fore
433 770 m 1
 358 704 l 1
 260 704 l 1
 429 855 l 1
 474 855 l 1
 579 704 l 1
 481 704 l 1
 433 770 l 1
537 419 m 1
 523 350 l 1
 209 350 l 1
 149 69 l 1
 489 69 l 1
 474 0 l 1
 64 0 l 1
 206 667 l 1
 617 667 l 1
 603 598 l 1
 262 598 l 1
 224 419 l 1
 537 419 l 1
EndSplineSet
EndChar
StartChar: Edieresis
Encoding: 138 203 170
Width: 518
VWidth: 1286
Flags: HW
HStem: 0 69<149 474> 350 69<224 523> 598 69<262 603> 704 107<312.6 376.7 472.6 536.7>
VStem: 296 109<721.2 785> 456 109<721.2 785>
Fore
296 746 m 0
 296 776 324 811 362 811 c 0
 387 811 405 793 405 768 c 0
 405 732 368 704 339 704 c 0
 314 704 296 722 296 746 c 0
456 746 m 0
 456 776 484 811 522 811 c 0
 547 811 565 793 565 768 c 0
 565 732 528 704 499 704 c 0
 474 704 456 722 456 746 c 0
537 419 m 1
 523 350 l 1
 209 350 l 1
 149 69 l 1
 489 69 l 1
 474 0 l 1
 64 0 l 1
 206 667 l 1
 617 667 l 1
 603 598 l 1
 262 598 l 1
 224 419 l 1
 537 419 l 1
EndSplineSet
EndChar
StartChar: Egrave
Encoding: 135 200 171
Width: 518
VWidth: 1286
Flags: HW
HStem: 0 69<149 474> 350 69<224 523> 598 69<262 603>
Fore
263 855 m 5
 389 855 l 5
 484 704 l 5
 402 704 l 5
 263 855 l 5
537 419 m 1
 523 350 l 1
 209 350 l 1
 149 69 l 1
 489 69 l 1
 474 0 l 1
 64 0 l 1
 206 667 l 1
 617 667 l 1
 603 598 l 1
 262 598 l 1
 224 419 l 1
 537 419 l 1
EndSplineSet
EndChar
StartChar: Iacute
Encoding: 140 205 172
Width: 197
VWidth: 1286
Flags: HW
HStem: 0 21G<64 135> 647 20G<206 276>
VStem: 64 379<0 855>
Fore
443 855 m 1
 240 704 l 1
 158 704 l 1
 317 855 l 1
 443 855 l 1
135 0 m 1
 64 0 l 1
 206 667 l 1
 276 667 l 1
 135 0 l 1
EndSplineSet
EndChar
StartChar: Icircumflex
Encoding: 141 206 173
Width: 197
VWidth: 1286
Flags: HW
HStem: 0 21G<64 135> 647 20G<206 276>
VStem: 64 344<0 704>
Fore
135 0 m 1
 64 0 l 1
 206 667 l 1
 276 667 l 1
 135 0 l 1
262 770 m 1
 187 704 l 1
 89 704 l 1
 258 855 l 1
 303 855 l 1
 408 704 l 1
 310 704 l 1
 262 770 l 1
EndSplineSet
EndChar
StartChar: Idieresis
Encoding: 142 207 174
Width: 197
VWidth: 1286
Flags: HW
HStem: 0 21G<64 135> 647 20G<206 276> 704 107<145.5 207 305.5 367>
VStem: 125 109<718.6 787.6> 285 109<718.6 787.6>
Fore
135 0 m 1
 64 0 l 1
 206 667 l 1
 276 667 l 1
 135 0 l 1
125 746 m 0
 125 778 156 811 191 811 c 0
 216 811 234 793 234 768 c 0
 234 730 198 704 168 704 c 0
 143 704 125 722 125 746 c 0
285 746 m 0
 285 778 316 811 351 811 c 0
 376 811 394 793 394 768 c 0
 394 730 358 704 328 704 c 0
 303 704 285 722 285 746 c 0
EndSplineSet
EndChar
StartChar: Igrave
Encoding: 139 204 175
Width: 197
VWidth: 1286
Flags: HW
HStem: 0 21G<64 135> 647 20G<206 276>
VStem: 64 245<0 704>
Fore
89 855 m 1
 214 855 l 1
 309 704 l 1
 228 704 l 1
 89 855 l 1
135 0 m 1
 64 0 l 1
 206 667 l 1
 276 667 l 1
 135 0 l 1
EndSplineSet
EndChar
StartChar: Ntilde
Encoding: 144 209 176
Width: 747
VWidth: 1286
Flags: HW
HStem: 0 21G<64 135> 647 20G<756 827>
Fore
64 0 m 1
 207 674 l 1
 648 162 l 1
 756 667 l 1
 827 667 l 1
 683 -8 l 1
 242 504 l 1
 135 0 l 1
 64 0 l 1
601 797 m 0
 611 797 617 808 620 821 c 2
 623 837 l 1
 682 837 l 1
 679 821 l 2
 664 751 628 724 586 724 c 0
 539 724 503 772 481 772 c 0
 472 772 466 765 461 746 c 2
 457 731 l 1
 399 731 l 1
 404 747 l 2
 412 783 432 844 497 844 c 0
 549 844 580 797 601 797 c 0
EndSplineSet
EndChar
StartChar: Oacute
Encoding: 146 211 177
Width: 782
VWidth: 1286
Flags: HW
HStem: -6 68<229.5 626> 604 69<297.7 692.9>
VStem: 107 72<118.1 502.9> 745 73<162.8 548.9>
Fore
756 855 m 1
 553 704 l 1
 471 704 l 1
 630 855 l 1
 756 855 l 1
818 402 m 0
 818 196 615 -6 390 -6 c 0
 223 -6 107 109 107 264 c 0
 107 470 310 673 535 673 c 0
 702 673 818 557 818 402 c 0
520 604 m 0
 349 604 179 451 179 278 c 0
 179 155 270 62 405 62 c 0
 575 62 745 215 745 389 c 0
 745 512 653 604 520 604 c 0
EndSplineSet
EndChar
StartChar: Ocircumflex
Encoding: 147 212 178
Width: 782
VWidth: 1286
Flags: HW
HStem: -6 68<229.5 626> 604 69<297.7 692.9>
VStem: 107 72<118.1 502.9> 745 73<162.8 548.9>
Fore
818 402 m 0
 818 196 615 -6 390 -6 c 4
 223 -6 107 109 107 264 c 0
 107 470 310 673 535 673 c 4
 702 673 818 557 818 402 c 0
520 604 m 4
 349 604 179 451 179 278 c 0
 179 155 270 62 405 62 c 4
 575 62 745 215 745 389 c 0
 745 512 653 604 520 604 c 4
554 770 m 1
 479 704 l 1
 381 704 l 1
 551 855 l 1
 595 855 l 1
 700 704 l 1
 603 704 l 1
 554 770 l 1
EndSplineSet
EndChar
StartChar: Odieresis
Encoding: 149 214 179
Width: 782
VWidth: 1286
Flags: HW
HStem: -6 68<229.5 626> 604 69<297.7 692.9> 704 107<434.6 498.7 594.6 658.7>
VStem: 107 72<118.1 502.9> 418 109<721.2 785> 578 109<721.2 785> 745 73<162.8 548.9>
Fore
818 402 m 0
 818 196 615 -6 390 -6 c 0
 223 -6 107 109 107 264 c 0
 107 470 310 673 535 673 c 0
 702 673 818 557 818 402 c 0
520 604 m 0
 349 604 179 451 179 278 c 0
 179 155 270 62 405 62 c 0
 575 62 745 215 745 389 c 0
 745 512 653 604 520 604 c 0
418 746 m 0
 418 776 446 811 484 811 c 0
 509 811 527 793 527 768 c 0
 527 732 490 704 461 704 c 0
 436 704 418 722 418 746 c 0
578 746 m 0
 578 776 606 811 644 811 c 0
 669 811 687 793 687 768 c 0
 687 732 650 704 621 704 c 0
 596 704 578 722 578 746 c 0
EndSplineSet
EndChar
StartChar: Ograve
Encoding: 145 210 180
Width: 782
VWidth: 1286
Flags: HW
HStem: -6 68<229.5 626> 604 69<297.7 692.9>
VStem: 107 72<118.1 502.9> 745 73<162.8 548.9>
Fore
361 855 m 5
 486 855 l 5
 581 704 l 5
 500 704 l 5
 361 855 l 5
818 402 m 0
 818 196 615 -6 390 -6 c 0
 223 -6 107 109 107 264 c 0
 107 470 310 673 535 673 c 0
 702 673 818 557 818 402 c 0
520 604 m 0
 349 604 179 451 179 278 c 0
 179 155 270 62 405 62 c 0
 575 62 745 215 745 389 c 0
 745 512 653 604 520 604 c 0
EndSplineSet
EndChar
StartChar: Otilde
Encoding: 148 213 181
Width: 782
VWidth: 1286
Flags: HW
HStem: -6 68<230.8 627.3> 604 69<292.5 694.2>
VStem: 107 73<118.4 499.3> 746 72<164.1 548.9>
Fore
818 402 m 0
 818 195 615 -6 391 -6 c 0
 223 -6 107 109 107 264 c 0
 107 470 310 673 535 673 c 0
 702 673 818 557 818 402 c 0
520 604 m 0
 345 604 180 448 180 277 c 0
 180 155 271 62 405 62 c 0
 576 62 746 216 746 389 c 0
 746 512 654 604 520 604 c 0
618 797 m 0
 623 797 632 800 637 821 c 2
 640 837 l 1
 699 837 l 1
 696 821 l 2
 681 751 645 724 603 724 c 0
 557 724 521 772 498 772 c 0
 490 772 484 765 479 746 c 2
 474 731 l 1
 417 731 l 1
 421 747 l 2
 430 783 450 844 515 844 c 0
 566 844 598 797 618 797 c 0
EndSplineSet
EndChar
StartChar: Scaron
Encoding: 195 352 182
Width: 529
VWidth: 1286
Flags: HW
HStem: -8 70<193.8 407> 604 70<295.2 453.8>
VStem: 86 73<72.6 215.847> 202 72<358.5 550.9> 461 72<119 388.1>
Fore
202 478 m 0
 202 571 290 674 409 674 c 0
 482 674 549 630 561 544 c 2
 563 530 l 1
 492 507 l 1
 490 522 l 2
 482 578 440 604 394 604 c 0
 318 604 274 538 274 495 c 0
 274 390 533 405 533 239 c 0
 533 111 404 -8 263 -8 c 0
 169 -8 86 47 86 172 c 0
 86 182 88 209 88 209 c 1
 161 218 l 1
 161 218 159 197 159 187 c 0
 159 99 213 62 277 62 c 0
 377 62 461 143 461 223 c 0
 461 350 202 329 202 478 c 0
433 691 m 1
 390 691 l 1
 285 841 l 1
 382 841 l 1
 430 776 l 1
 505 841 l 1
 602 841 l 1
 433 691 l 1
EndSplineSet
EndChar
StartChar: Uacute
Encoding: 153 218 183
Width: 623
VWidth: 1286
Flags: HW
HStem: -7 69<220.4 449.2> 647 20G<206 276 632 702>
VStem: 113 71<98.3 251.578>
Fore
554 855 m 5
 680 855 l 5
 477 704 l 5
 395 704 l 5
 554 855 l 5
206 667 m 1
 276 667 l 1
 189 257 l 2
 186 242 184 227 184 214 c 0
 184 125 245 62 327 62 c 0
 421 62 521 146 545 257 c 2
 632 667 l 1
 702 667 l 1
 615 257 l 2
 585 113 450 -7 311 -7 c 0
 191 -7 113 82 113 198 c 0
 113 217 115 237 119 257 c 2
 206 667 l 1
EndSplineSet
EndChar
StartChar: Ucircumflex
Encoding: 154 219 184
Width: 623
VWidth: 1286
Flags: HW
HStem: -7 69<220.4 449.2> 647 20G<206 276 632 702>
VStem: 113 71<98.3 251.578>
Fore
206 667 m 1
 276 667 l 1
 189 257 l 2
 186 242 184 227 184 214 c 0
 184 125 245 62 327 62 c 0
 421 62 521 146 545 257 c 2
 632 667 l 1
 702 667 l 1
 615 257 l 2
 585 113 450 -7 311 -7 c 0
 191 -7 113 82 113 198 c 0
 113 217 115 237 119 257 c 2
 206 667 l 1
621 704 m 1
 522 704 l 1
 475 770 l 1
 400 704 l 1
 302 704 l 1
 471 855 l 1
 516 855 l 1
 621 704 l 1
EndSplineSet
EndChar
StartChar: Udieresis
Encoding: 155 220 185
Width: 623
VWidth: 1286
Flags: HW
HStem: -7 69<220.4 449.2> 647 20G<206 276 632 702> 704 107<362.4 424.9 522.4 584.9>
VStem: 113 71<98.3 251.578> 339 108<724.8 790.5> 499 108<724.8 790.5>
Fore
206 667 m 1
 276 667 l 1
 189 257 l 2
 186 242 184 227 184 214 c 0
 184 125 245 62 327 62 c 0
 421 62 521 146 545 257 c 2
 632 667 l 1
 702 667 l 1
 615 257 l 2
 585 113 450 -7 311 -7 c 0
 191 -7 113 82 113 198 c 0
 113 217 115 237 119 257 c 2
 206 667 l 1
339 745 m 0
 339 780 372 811 404 811 c 0
 430 811 447 793 447 769 c 0
 447 735 415 704 382 704 c 0
 356 704 339 722 339 745 c 0
499 745 m 0
 499 780 532 811 564 811 c 0
 590 811 607 793 607 769 c 0
 607 735 575 704 542 704 c 0
 516 704 499 722 499 745 c 0
EndSplineSet
EndChar
StartChar: Ugrave
Encoding: 152 217 186
Width: 623
VWidth: 1286
Flags: HW
HStem: -7 69<220.4 449.2> 647 20G<206 276 632 702>
VStem: 113 71<98.3 251.578>
Fore
286 855 m 5
 412 855 l 5
 507 704 l 5
 425 704 l 5
 286 855 l 5
206 667 m 1
 276 667 l 1
 189 257 l 2
 186 242 184 227 184 214 c 0
 184 125 245 62 327 62 c 0
 421 62 521 146 545 257 c 2
 632 667 l 1
 702 667 l 1
 615 257 l 2
 585 113 450 -7 311 -7 c 0
 191 -7 113 82 113 198 c 0
 113 217 115 237 119 257 c 2
 206 667 l 1
EndSplineSet
EndChar
StartChar: Yacute
Encoding: 156 221 187
Width: 583
VWidth: 1286
Flags: HW
HStem: 0 21G<257 328> 647 20G<152 235 633 716>
Fore
529 855 m 1
 655 855 l 1
 452 704 l 1
 370 704 l 1
 529 855 l 1
152 667 m 1
 235 667 l 1
 369 359 l 1
 633 667 l 1
 716 667 l 1
 389 286 l 1
 328 0 l 1
 257 0 l 1
 318 286 l 1
 152 667 l 1
EndSplineSet
EndChar
StartChar: Ydieresis
Encoding: 197 376 188
Width: 583
VWidth: 1286
Flags: HW
HStem: 0 21G<257 328> 647 20G<152 235 633 716> 704 107<342.4 404.9 502.4 564.9>
VStem: 319 108<724.8 790.5> 479 108<724.8 790.5>
Fore
152 667 m 1
 235 667 l 1
 369 359 l 1
 633 667 l 1
 716 667 l 1
 389 286 l 1
 328 0 l 1
 257 0 l 1
 318 286 l 1
 152 667 l 1
319 745 m 0
 319 780 352 811 384 811 c 0
 410 811 427 793 427 769 c 0
 427 735 395 704 362 704 c 0
 336 704 319 722 319 745 c 0
479 745 m 0
 479 780 512 811 544 811 c 0
 570 811 587 793 587 769 c 0
 587 735 555 704 522 704 c 0
 496 704 479 722 479 745 c 0
EndSplineSet
EndChar
StartChar: Zcaron
Encoding: 198 381 189
Width: 559
VWidth: 1286
Flags: HW
HStem: 0 69<157 527> 598 69<213 544>
Fore
213 667 m 1
 690 667 l 1
 157 69 l 1
 565 69 l 1
 527 0 l 1
 11 0 l 1
 544 598 l 1
 175 598 l 1
 213 667 l 1
449 691 m 1
 405 691 l 1
 300 841 l 1
 398 841 l 1
 445 776 l 1
 520 841 l 1
 618 841 l 1
 449 691 l 1
EndSplineSet
EndChar
StartChar: aacute
Encoding: 160 225 190
Width: 489
VWidth: 1261
Flags: HW
HStem: -8 68<144.8 279> 215 58<294.4 412> 394 67<234.5 384> 647 20G<402 528>
VStem: 71 72<81.8 130.712> 364 77<-1.31562 63.7966> 413 72<268.266 377.1>
Fore
402 667 m 5xf8
 528 667 l 5
 325 516 l 5
 243 516 l 5
 402 667 l 5xf8
446 0 m 1
 368 0 l 1
 366 9 364 20 364 31 c 0xfc
 364 42 366 54 368 62 c 1
 321 23 261 -8 201 -8 c 0
 106 -8 71 47 71 100 c 0
 71 108 71 116 73 124 c 0
 104 272 311 273 412 273 c 1
 413 279 413 285 413 290 c 0
 413 357 369 394 319 394 c 0
 254 394 209 341 196 327 c 1
 147 363 l 1
 166 385 233 461 333 461 c 0
 416 461 485 405 485 306 c 0xfa
 485 291 483 275 480 258 c 2
 449 108 l 2
 444 86 441 61 441 40 c 0xfc
 441 24 443 10 446 0 c 1
401 215 m 1
 319 214 143 205 143 113 c 0
 143 89 161 60 215 60 c 0
 277 60 349 107 388 155 c 1
 401 215 l 1
EndSplineSet
EndChar
StartChar: acircumflex
Encoding: 161 226 191
Width: 489
VWidth: 1261
Flags: HW
HStem: -8 68<144.8 279> 215 58<294.4 412> 394 67<234.5 384> 647 20G<355 398>
VStem: 71 72<81.8 130.712> 364 77<-1.31562 63.7966> 413 72<268.266 377.1>
Fore
355 667 m 1xf8
 398 667 l 1
 503 516 l 1
 405 516 l 1
 358 582 l 1
 283 516 l 1
 185 516 l 1
 355 667 l 1xf8
446 0 m 1
 368 0 l 1
 366 9 364 20 364 31 c 0xfc
 364 42 366 54 368 62 c 1
 321 23 261 -8 201 -8 c 0
 106 -8 71 47 71 100 c 0
 71 108 71 116 73 124 c 0
 104 272 311 273 412 273 c 1
 413 279 413 285 413 290 c 0
 413 357 369 394 319 394 c 0
 254 394 209 341 196 327 c 1
 147 363 l 1
 166 385 233 461 333 461 c 0
 416 461 485 405 485 306 c 0xfa
 485 291 483 275 480 258 c 2
 449 108 l 2
 444 86 441 61 441 40 c 0xfc
 441 24 443 10 446 0 c 1
401 215 m 1
 319 214 143 205 143 113 c 0
 143 89 161 60 215 60 c 0
 277 60 349 107 388 155 c 1
 401 215 l 1
EndSplineSet
EndChar
StartChar: adieresis
Encoding: 163 228 192
Width: 489
VWidth: 1261
Flags: HW
HStem: -8 68<144.8 279> 215 58<294.4 412> 394 67<234.5 384> 517 107<248.3 312.4 408.3 472.4>
VStem: 71 72<81.8 130.712> 220 109<543 606.8> 364 77<-1.31562 63.7966> 380 109<543 606.8> 413 72<268.266 377.1>
Fore
220 560 m 0xfc
 220 596 257 624 286 624 c 0
 311 624 329 606 329 582 c 0
 329 552 301 517 263 517 c 0
 238 517 220 535 220 560 c 0xfc
380 560 m 0xfd
 380 596 417 624 446 624 c 0
 471 624 489 606 489 582 c 0
 489 552 461 517 423 517 c 0
 398 517 380 535 380 560 c 0xfd
446 0 m 1
 368 0 l 1
 366 9 364 20 364 31 c 0xfe
 364 42 366 54 368 62 c 1
 321 23 261 -8 201 -8 c 0
 106 -8 71 47 71 100 c 0
 71 108 71 116 73 124 c 0
 104 272 311 273 412 273 c 1
 413 279 413 285 413 290 c 0
 413 357 369 394 319 394 c 0
 254 394 209 341 196 327 c 1
 147 363 l 1
 166 385 233 461 333 461 c 0
 416 461 485 405 485 306 c 0xfc80
 485 291 483 275 480 258 c 2
 449 108 l 2
 444 86 441 61 441 40 c 0xfe
 441 24 443 10 446 0 c 1
401 215 m 1
 319 214 143 205 143 113 c 0
 143 89 161 60 215 60 c 0
 277 60 349 107 388 155 c 1
 401 215 l 1
EndSplineSet
EndChar
StartChar: agrave
Encoding: 159 224 193
Width: 489
VWidth: 1261
Flags: HW
HStem: -8 68<144.8 279> 215 58<294.4 412> 394 67<234.5 384> 647 20G<175 301>
VStem: 71 72<81.8 130.712> 364 77<-1.31562 63.7966> 413 72<268.266 377.1>
Fore
175 667 m 1xf8
 301 667 l 1
 396 516 l 1
 314 516 l 1
 175 667 l 1xf8
446 0 m 1
 368 0 l 1
 366 9 364 20 364 31 c 0xfc
 364 42 366 54 368 62 c 1
 321 23 261 -8 201 -8 c 0
 106 -8 71 47 71 100 c 0
 71 108 71 116 73 124 c 0
 104 272 311 273 412 273 c 1
 413 279 413 285 413 290 c 0
 413 357 369 394 319 394 c 0
 254 394 209 341 196 327 c 1
 147 363 l 1
 166 385 233 461 333 461 c 0
 416 461 485 405 485 306 c 0xfa
 485 291 483 275 480 258 c 2
 449 108 l 2
 444 86 441 61 441 40 c 0xfc
 441 24 443 10 446 0 c 1
401 215 m 1
 319 214 143 205 143 113 c 0
 143 89 161 60 215 60 c 0
 277 60 349 107 388 155 c 1
 401 215 l 1
EndSplineSet
EndChar
StartChar: aring
Encoding: 164 229 194
Width: 489
VWidth: 1261
Flags: HW
HStem: -8 68<144.8 279> 215 58<294.4 412> 394 67<234.5 384> 511 72<334.3 392.8> 663 72<348.7 399.4>
VStem: 71 72<81.8 130.712> 253 73<591.6 650.1> 364 77<-1.31562 63.7966> 408 73<601.1 654.4> 413 72<268.266 377.1>
Fore
481 646 m 0xfe80
 481 581 419 511 343 511 c 0
 289 511 253 549 253 600 c 0
 253 665 315 735 391 735 c 0
 445 735 481 697 481 646 c 0xfe80
376 663 m 0
 355 663 326 642 326 615 c 0
 326 597 340 583 359 583 c 0
 385 583 408 608 408 631 c 0
 408 649 394 663 376 663 c 0
446 0 m 1
 368 0 l 1
 366 9 364 20 364 31 c 0xff
 364 42 366 54 368 62 c 1
 321 23 261 -8 201 -8 c 0
 106 -8 71 47 71 100 c 0
 71 108 71 116 73 124 c 0
 104 272 311 273 412 273 c 1
 413 279 413 285 413 290 c 0
 413 357 369 394 319 394 c 0
 254 394 209 341 196 327 c 1
 147 363 l 1
 166 385 233 461 333 461 c 0
 416 461 485 405 485 306 c 0xfe40
 485 291 483 275 480 258 c 2
 449 108 l 2
 444 86 441 61 441 40 c 0xff
 441 24 443 10 446 0 c 1
401 215 m 1
 319 214 143 205 143 113 c 0
 143 89 161 60 215 60 c 0
 277 60 349 107 388 155 c 1
 401 215 l 1
EndSplineSet
EndChar
StartChar: atilde
Encoding: 162 227 195
Width: 489
VWidth: 1261
Flags: HW
HStem: -8 68<143.5 279.3> 215 58<280.7 412> 394 67<234.5 384> 509 74<388.8 427.9> 558 71<289.475 327.9>
VStem: 71 71<82.8 126.817> 365 76<-1.31562 65.5097> 413 72<268.266 377.1>
Fore
220 533 m 2xec
 238 615 285 629 314 629 c 0xec
 363 629 396 584 420 583 c 0
 425 583 433 586 436 604 c 2
 440 620 l 1
 497 620 l 1
 493 604 l 2
 479 535 444 509 404 509 c 0xf4
 356 509 321 558 298 558 c 0
 290 558 283 552 278 533 c 2
 275 517 l 1
 217 517 l 1
 220 533 l 2xec
446 0 m 1
 368 0 l 1
 366 9 365 20 365 31 c 0xe6
 365 42 366 54 368 62 c 1
 321 23 261 -8 200 -8 c 0
 106 -8 71 47 71 100 c 0
 71 108 71 116 73 124 c 0
 105 272 311 273 412 273 c 1
 413 279 413 285 413 290 c 0
 413 357 369 394 319 394 c 0
 254 394 209 341 197 327 c 1
 146 363 l 1
 166 385 233 461 333 461 c 0
 417 461 485 405 485 304 c 0xe5
 485 290 484 274 481 258 c 2
 449 108 l 2
 444 86 441 61 441 40 c 0xe6
 441 24 443 10 446 0 c 1
215 60 m 0
 277 60 349 107 388 155 c 1
 401 215 l 1
 291 213 160 201 143 124 c 0
 142 121 142 118 142 114 c 0
 142 90 160 60 215 60 c 0
EndSplineSet
EndChar
StartChar: ccedilla
Encoding: 166 231 196
Width: 498
VWidth: 1261
Flags: HW
HStem: -180 62<189.488 241.5> 391 69<222.8 449>
VStem: 86 72<92.5 327.8>
Fore
345 391 m 0
 251 391 158 296 158 190 c 0
 158 115 208 62 275 62 c 0
 359 62 412 132 427 151 c 1
 481 118 l 1
 456 86 393 12 297 -4 c 1
 287 -18 l 1
 319 -30 326 -53 326 -73 c 0
 326 -141 264 -180 207 -180 c 0
 181 -180 156 -172 134 -156 c 2
 123 -147 l 1
 171 -100 l 1
 183 -109 l 2
 191 -115 200 -118 209 -118 c 0
 234 -118 253 -99 253 -87 c 0
 253 -78 245 -69 224 -65 c 2
 183 -58 l 1
 224 -3 l 1
 139 13 86 85 86 175 c 0
 86 322 222 460 360 460 c 0
 483 460 518 361 527 336 c 1
 459 302 l 1
 449 329 425 391 345 391 c 0
EndSplineSet
EndChar
StartChar: eacute
Encoding: 168 233 197
Width: 529
VWidth: 1261
Flags: HW
HStem: -6 68<187.9 320.8> 212 66<182 465> 392 68<265.1 430.2> 648 20G<448 574>
VStem: 87 70<91.8 218.712>
Fore
182 278 m 1
 465 278 l 1
 459 346 411 392 347 392 c 0
 284 392 216 346 182 278 c 1
87 176 m 0
 87 323 223 460 361 460 c 0
 468 460 537 379 537 277 c 0
 537 254 533 233 530 212 c 1
 159 212 l 1
 158 204 157 196 157 188 c 0
 157 114 208 62 275 62 c 0
 333 62 392 92 440 151 c 1
 494 118 l 1
 409 10 307 -6 261 -6 c 0
 154 -6 87 73 87 176 c 0
448 668 m 1
 574 668 l 1
 371 517 l 1
 289 517 l 1
 448 668 l 1
EndSplineSet
EndChar
StartChar: ecircumflex
Encoding: 169 234 198
Width: 529
VWidth: 1261
Flags: HW
HStem: -6 68<187.9 320.8> 212 66<182 465> 392 68<265.1 430.2> 648 20G<385 428>
VStem: 87 70<91.8 218.712>
Fore
182 278 m 1
 465 278 l 1
 459 346 411 392 347 392 c 0
 284 392 216 346 182 278 c 1
87 176 m 0
 87 323 223 460 361 460 c 0
 468 460 537 379 537 277 c 0
 537 254 533 233 530 212 c 1
 159 212 l 1
 158 204 157 196 157 188 c 0
 157 114 208 62 275 62 c 0
 333 62 392 92 440 151 c 1
 494 118 l 1
 409 10 307 -6 261 -6 c 0
 154 -6 87 73 87 176 c 0
385 668 m 1
 428 668 l 1
 533 517 l 1
 436 517 l 1
 389 583 l 1
 314 517 l 1
 216 517 l 1
 385 668 l 1
EndSplineSet
EndChar
StartChar: edieresis
Encoding: 170 235 199
Width: 529
VWidth: 1261
Flags: HW
HStem: -6 68<187.9 320.8> 212 66<182 465> 392 68<265.1 430.2> 517 107<274.1 336.6 434.1 496.6>
VStem: 87 70<91.8 218.712> 252 108<537.5 603.2> 412 108<537.5 603.2>
Fore
182 278 m 1
 465 278 l 1
 459 346 411 392 347 392 c 0
 284 392 216 346 182 278 c 1
87 176 m 0
 87 323 223 460 361 460 c 0
 468 460 537 379 537 277 c 0
 537 254 533 233 530 212 c 1
 159 212 l 1
 158 204 157 196 157 188 c 0
 157 114 208 62 275 62 c 0
 333 62 392 92 440 151 c 1
 494 118 l 1
 409 10 307 -6 261 -6 c 0
 154 -6 87 73 87 176 c 0
252 559 m 0
 252 593 284 624 317 624 c 0
 343 624 360 606 360 583 c 0
 360 548 327 517 295 517 c 0
 269 517 252 535 252 559 c 0
412 559 m 0
 412 593 444 624 477 624 c 0
 503 624 520 606 520 583 c 0
 520 548 487 517 455 517 c 0
 429 517 412 535 412 559 c 0
EndSplineSet
EndChar
StartChar: egrave
Encoding: 167 232 200
Width: 529
VWidth: 1261
Flags: HW
HStem: -6 68<187.9 320.8> 212 66<182 465> 392 68<265.1 430.2> 648 20G<177 303>
VStem: 87 70<91.8 218.712>
Fore
177 668 m 1
 303 668 l 1
 398 517 l 1
 316 517 l 1
 177 668 l 1
182 278 m 1
 465 278 l 1
 459 346 411 392 347 392 c 0
 284 392 216 346 182 278 c 1
87 176 m 0
 87 323 223 460 361 460 c 0
 468 460 537 379 537 277 c 0
 537 254 533 233 530 212 c 1
 159 212 l 1
 158 204 157 196 157 188 c 0
 157 114 208 62 275 62 c 0
 333 62 392 92 440 151 c 1
 494 118 l 1
 409 10 307 -6 261 -6 c 0
 154 -6 87 73 87 176 c 0
EndSplineSet
EndChar
StartChar: iacute
Encoding: 172 237 201
Width: 195
VWidth: 1265
Flags: HW
HStem: 0 21G<63 134> 433 20G<160 230> 648 20G<271 395>
VStem: 63 332<0 668>
Fore
271 668 m 5
 395 668 l 5
 192 517 l 5
 110 517 l 5
 271 668 l 5
134 0 m 1
 63 0 l 1
 160 453 l 1
 230 453 l 1
 134 0 l 1
EndSplineSet
EndChar
StartChar: icircumflex
Encoding: 173 238 202
Width: 195
VWidth: 1265
Flags: HW
HStem: 0 21G<63 134> 433 20G<160 230> 648 20G<218 262>
VStem: 49 318<517 517>
Fore
134 0 m 5
 63 0 l 5
 160 453 l 5
 230 453 l 5
 134 0 l 5
218 668 m 1
 262 668 l 1
 367 517 l 1
 269 517 l 1
 222 583 l 1
 147 517 l 1
 49 517 l 1
 218 668 l 1
EndSplineSet
EndChar
StartChar: idieresis
Encoding: 174 239 203
Width: 195
VWidth: 1265
Flags: HW
HStem: 0 21G<63 134> 433 20G<160 230> 517 107<112 173.5 272 333.5>
VStem: 85 109<540.4 609.4> 245 109<540.4 609.4>
Fore
134 0 m 1
 63 0 l 1
 160 453 l 1
 230 453 l 1
 134 0 l 1
85 560 m 0
 85 598 121 624 151 624 c 0
 176 624 194 606 194 582 c 0
 194 550 163 517 128 517 c 0
 103 517 85 535 85 560 c 0
245 560 m 0
 245 598 281 624 311 624 c 0
 336 624 354 606 354 582 c 0
 354 550 323 517 288 517 c 0
 263 517 245 535 245 560 c 0
EndSplineSet
EndChar
StartChar: igrave
Encoding: 171 236 204
Width: 195
VWidth: 1265
Flags: HW
HStem: 0 21G<63 134> 433 20G<160 230> 648 20G<45 171>
VStem: 45 221<517 668>
Fore
45 668 m 5
 171 668 l 5
 266 517 l 5
 184 517 l 5
 45 668 l 5
134 0 m 1
 63 0 l 1
 160 453 l 1
 230 453 l 1
 134 0 l 1
EndSplineSet
EndChar
StartChar: ntilde
Encoding: 176 241 205
Width: 482
VWidth: 1261
Flags: HW
HStem: 0 21G<63 134 348 419> 393 67<302.3 412.1>
VStem: 143 77<382.32 462.33> 412 72<282.43 369.4>
Fore
218 454 m 1
 220 442 220 433 220 423 c 0
 220 409 218 394 212 366 c 1
 253 413 317 460 366 460 c 0
 450 460 484 404 484 332 c 0
 484 315 482 296 478 277 c 2
 419 0 l 1
 348 0 l 1
 407 277 l 2
 410 291 412 305 412 320 c 0
 412 358 398 393 351 393 c 0
 289 393 194 282 182 227 c 2
 134 0 l 1
 63 0 l 1
 132 320 l 2
 138 349 143 394 143 425 c 0
 143 437 142 448 140 454 c 1
 218 454 l 1
225 533 m 2
 243 615 290 629 319 629 c 0
 368 629 404 583 425 583 c 0
 428 583 438 588 443 608 c 2
 446 623 l 1
 503 623 l 1
 499 604 l 2
 484 535 450 509 410 509 c 0
 361 509 326 559 304 559 c 0
 295 559 289 552 284 533 c 2
 281 517 l 1
 222 517 l 1
 225 533 l 2
EndSplineSet
EndChar
StartChar: oacute
Encoding: 178 243 206
Width: 573
VWidth: 1261
Flags: HW
HStem: -6 67<191.8 438.8> 392 68<236.8 481.2> 648 20G<448 574>
VStem: 87 72<94.2 334.7> 514 69<120.6 358.5>
Fore
448 668 m 5
 574 668 l 5
 371 517 l 5
 289 517 l 5
 448 668 l 5
583 275 m 0
 583 133 444 -6 286 -6 c 0
 168 -6 87 74 87 181 c 0
 87 319 226 460 385 460 c 0
 502 460 583 381 583 275 c 0
372 392 m 0
 268 392 159 302 159 193 c 0
 159 117 217 61 301 61 c 0
 407 61 514 153 514 261 c 0
 514 336 456 392 372 392 c 0
EndSplineSet
EndChar
StartChar: ocircumflex
Encoding: 179 244 207
Width: 573
VWidth: 1261
Flags: HW
HStem: -6 67<191.8 438.8> 392 68<236.8 481.2> 648 20G<407 450>
VStem: 87 72<94.2 334.7> 514 69<120.6 358.5>
Fore
583 275 m 0
 583 133 444 -6 286 -6 c 0
 168 -6 87 74 87 181 c 0
 87 319 226 460 385 460 c 0
 502 460 583 381 583 275 c 0
372 392 m 0
 268 392 159 302 159 193 c 0
 159 117 217 61 301 61 c 0
 407 61 514 153 514 261 c 0
 514 336 456 392 372 392 c 0
407 668 m 1
 450 668 l 1
 555 517 l 1
 458 517 l 1
 411 583 l 1
 336 517 l 1
 238 517 l 1
 407 668 l 1
EndSplineSet
EndChar
StartChar: odieresis
Encoding: 181 246 208
Width: 573
VWidth: 1261
Flags: HW
HStem: -6 67<191.8 438.8> 392 68<236.8 481.2> 517 107<296.1 358.6 456.1 518.6>
VStem: 87 72<94.2 334.7> 274 108<537.5 603.2> 434 108<537.5 603.2> 514 69<120.6 358.5>
Fore
583 275 m 0xfa
 583 133 444 -6 286 -6 c 0
 168 -6 87 74 87 181 c 0
 87 319 226 460 385 460 c 0
 502 460 583 381 583 275 c 0xfa
372 392 m 0
 268 392 159 302 159 193 c 0
 159 117 217 61 301 61 c 0
 407 61 514 153 514 261 c 0
 514 336 456 392 372 392 c 0
274 559 m 0
 274 593 306 624 339 624 c 0
 365 624 382 606 382 583 c 0
 382 548 349 517 317 517 c 0
 291 517 274 535 274 559 c 0
434 559 m 0xfc
 434 593 466 624 499 624 c 0
 525 624 542 606 542 583 c 0
 542 548 509 517 477 517 c 0
 451 517 434 535 434 559 c 0xfc
EndSplineSet
EndChar
StartChar: ograve
Encoding: 177 242 209
Width: 573
VWidth: 1261
Flags: HW
HStem: -6 67<191.8 438.8> 392 68<236.8 481.2> 648 20G<236 361>
VStem: 87 72<94.2 334.7> 514 69<120.6 358.5>
Fore
236 668 m 1
 361 668 l 1
 456 517 l 1
 375 517 l 1
 236 668 l 1
583 275 m 0
 583 133 444 -6 286 -6 c 0
 168 -6 87 74 87 181 c 0
 87 319 226 460 385 460 c 0
 502 460 583 381 583 275 c 0
372 392 m 0
 268 392 159 302 159 193 c 0
 159 117 217 61 301 61 c 0
 407 61 514 153 514 261 c 0
 514 336 456 392 372 392 c 0
EndSplineSet
EndChar
StartChar: otilde
Encoding: 180 245 210
Width: 573
VWidth: 1261
Flags: HW
HStem: -6 67<191.8 438.8> 392 68<236.8 481.2> 559 70<340.809 377.6>
VStem: 87 72<94.2 334.7> 514 69<120.6 358.5>
Fore
583 275 m 0
 583 133 444 -6 286 -6 c 0
 168 -6 87 74 87 181 c 0
 87 319 226 460 385 460 c 0
 502 460 583 381 583 275 c 0
372 392 m 0
 268 392 159 302 159 193 c 0
 159 117 217 61 301 61 c 0
 407 61 514 153 514 261 c 0
 514 336 456 392 372 392 c 0
271 533 m 2
 288 615 335 629 364 629 c 0
 413 629 449 583 470 583 c 0
 473 583 484 588 488 608 c 2
 491 623 l 1
 548 623 l 1
 544 604 l 2
 530 535 495 509 455 509 c 0
 407 509 371 559 349 559 c 0
 341 559 334 552 329 533 c 2
 326 517 l 1
 267 517 l 1
 271 533 l 2
EndSplineSet
EndChar
StartChar: scaron
Encoding: 196 353 211
Width: 405
VWidth: 1261
Flags: HW
HStem: -8 68<168.2 300.8> 394 67<233.4 320.5>
VStem: 73 74<61.8 154.324> 149 74<259 366.9> 322 72<101.9 251.4>
Fore
149 320 m 0
 149 392 216 461 301 461 c 0
 344 461 402 440 412 369 c 2
 414 355 l 1
 343 332 l 1
 341 347 l 2
 336 380 313 394 288 394 c 0
 246 394 223 360 223 337 c 0
 223 277 394 281 394 167 c 0
 394 76 303 -8 200 -8 c 0
 134 -8 73 32 73 119 c 0
 73 129 76 149 76 149 c 1
 148 157 l 1
 148 157 147 142 147 132 c 0
 147 78 179 60 215 60 c 0
 281 60 322 113 322 150 c 0
 322 228 149 216 149 320 c 0
326 477 m 1
 282 477 l 1
 177 628 l 1
 275 628 l 1
 322 562 l 1
 397 628 l 1
 495 628 l 1
 326 477 l 1
EndSplineSet
EndChar
StartChar: uacute
Encoding: 185 250 212
Width: 479
VWidth: 1259
Flags: HW
HStem: -7 68<188.3 326.1> 433 20G<160 231 443 513> 648 20G<424 550>
VStem: 97 72<81.4 175.67>
Fore
424 668 m 5
 550 668 l 5
 347 517 l 5
 265 517 l 5
 424 668 l 5
160 453 m 1
 231 453 l 1
 172 177 l 2
 170 167 169 158 169 149 c 0
 169 97 203 61 252 61 c 0
 309 61 370 110 384 177 c 2
 443 453 l 1
 513 453 l 1
 454 177 l 2
 433 77 339 -7 239 -7 c 0
 153 -7 97 55 97 136 c 0
 97 149 99 163 102 177 c 2
 160 453 l 1
EndSplineSet
EndChar
StartChar: ucircumflex
Encoding: 186 251 213
Width: 479
VWidth: 1259
Flags: HW
HStem: -7 68<188.3 326.1> 433 20G<160 231 443 513> 648 20G<360 404>
VStem: 97 72<81.4 175.67>
Fore
160 453 m 1
 231 453 l 1
 172 177 l 2
 170 167 169 158 169 149 c 0
 169 97 203 61 252 61 c 0
 309 61 370 110 384 177 c 2
 443 453 l 1
 513 453 l 1
 454 177 l 2
 433 77 339 -7 239 -7 c 0
 153 -7 97 55 97 136 c 0
 97 149 99 163 102 177 c 2
 160 453 l 1
360 668 m 1
 404 668 l 1
 509 517 l 1
 411 517 l 1
 364 583 l 1
 289 517 l 1
 191 517 l 1
 360 668 l 1
EndSplineSet
EndChar
StartChar: udieresis
Encoding: 187 252 214
Width: 479
VWidth: 1259
Flags: HW
HStem: -7 68<188.3 326.1> 433 20G<160 231 443 513> 517 107<254 315.5 414 475.5>
VStem: 97 72<81.4 175.67> 227 109<540.4 609.4> 387 109<540.4 609.4>
Fore
160 453 m 1
 231 453 l 1
 172 177 l 2
 170 167 169 158 169 149 c 0
 169 97 203 61 252 61 c 0
 309 61 370 110 384 177 c 2
 443 453 l 1
 513 453 l 1
 454 177 l 2
 433 77 339 -7 239 -7 c 0
 153 -7 97 55 97 136 c 0
 97 149 99 163 102 177 c 2
 160 453 l 1
227 560 m 0
 227 598 263 624 293 624 c 0
 318 624 336 606 336 582 c 0
 336 550 305 517 270 517 c 0
 245 517 227 535 227 560 c 0
387 560 m 0
 387 598 423 624 453 624 c 0
 478 624 496 606 496 582 c 0
 496 550 465 517 430 517 c 0
 405 517 387 535 387 560 c 0
EndSplineSet
EndChar
StartChar: ugrave
Encoding: 184 249 215
Width: 479
VWidth: 1259
Flags: HW
HStem: -7 68<188.3 326.1> 433 20G<160 231 443 513> 648 20G<194 320>
VStem: 97 72<81.4 175.67>
Fore
194 668 m 5
 320 668 l 5
 415 517 l 5
 333 517 l 5
 194 668 l 5
160 453 m 1
 231 453 l 1
 172 177 l 2
 170 167 169 158 169 149 c 0
 169 97 203 61 252 61 c 0
 309 61 370 110 384 177 c 2
 443 453 l 1
 513 453 l 1
 454 177 l 2
 433 77 339 -7 239 -7 c 0
 153 -7 97 55 97 136 c 0
 97 149 99 163 102 177 c 2
 160 453 l 1
EndSplineSet
EndChar
StartChar: yacute
Encoding: 188 253 216
Width: 450
VWidth: 1253
Flags: HW
HStem: 434 20G<107 181 462 537> 648 20G<408 534>
VStem: 52 485<-218 454>
Fore
408 668 m 5
 534 668 l 5
 331 517 l 5
 249 517 l 5
 408 668 l 5
107 454 m 1
 181 454 l 1
 249 107 l 1
 462 454 l 1
 537 454 l 1
 127 -218 l 1
 52 -218 l 1
 194 14 l 1
 107 454 l 1
EndSplineSet
EndChar
StartChar: ydieresis
Encoding: 190 255 217
Width: 450
VWidth: 1253
Flags: HW
HStem: 434 20G<107 181 462 537> 524 107<237.4 299.9 397.4 459.9>
VStem: 214 108<544.8 610.5> 374 108<544.8 610.5>
Fore
107 454 m 1
 181 454 l 1
 249 107 l 1
 462 454 l 1
 537 454 l 1
 127 -218 l 1
 52 -218 l 1
 194 14 l 1
 107 454 l 1
214 565 m 0
 214 600 247 631 279 631 c 0
 305 631 322 613 322 589 c 0
 322 555 290 524 257 524 c 0
 231 524 214 542 214 565 c 0
374 565 m 0
 374 600 407 631 439 631 c 0
 465 631 482 613 482 589 c 0
 482 555 450 524 417 524 c 0
 391 524 374 542 374 565 c 0
EndSplineSet
EndChar
StartChar: zcaron
Encoding: 199 382 218
Width: 438
VWidth: 1261
Flags: HW
HStem: 0 67<160 396> 386 68<180 378>
Fore
180 454 m 1
 525 454 l 1
 160 67 l 1
 434 67 l 1
 396 0 l 1
 11 0 l 1
 378 386 l 1
 142 386 l 1
 180 454 l 1
343 477 m 1
 299 477 l 1
 194 628 l 1
 292 628 l 1
 339 562 l 1
 414 628 l 1
 512 628 l 1
 343 477 l 1
EndSplineSet
EndChar
StartChar: uni00AD
Encoding: 108 173 220
Width: 487
VWidth: 1333
Flags: HW
HStem: 191 72<106 478>
VStem: 91 402<191 263>
Fore
493 263 m 1
 478 191 l 1
 91 191 l 1
 106 263 l 1
 493 263 l 1
EndSplineSet
EndChar
StartChar: uni00B2
Encoding: 113 178 221
Width: 350
VWidth: 1333
Flags: HW
HStem: 396 73<200 418> 808 72<305.3 398.9>
VStem: 415 77<712.887 793>
Fore
492 755 m 0
 492 591 268 560 200 469 c 1
 433 469 l 1
 418 396 l 1
 100 396 l 1
 108 432 l 2
 142 593 392 623 413 719 c 0
 415 727 415 734 415 741 c 0
 415 781 389 808 356 808 c 0
 317 808 272 771 261 719 c 2
 257 703 l 1
 185 703 l 1
 189 719 l 2
 207 805 288 880 372 880 c 0
 445 880 492 825 492 755 c 0
EndSplineSet
EndChar
StartChar: uni00B3
Encoding: 114 179 222
Width: 350
VWidth: 1333
Flags: HW
HStem: 391 70<219.7 340.6> 632 72<308 362.3> 807 72<305.7 381.1>
VStem: 130 74<477.3 549.991> 378 71<492.2 614.4> 391 72<721.8 795.2>
Fore
324 704 m 2xf8
 356 704 391 726 391 764 c 0
 391 788 373 807 346 807 c 0
 315 807 285 782 279 752 c 2
 275 736 l 1
 203 736 l 1
 207 752 l 2
 221 822 290 879 360 879 c 0
 421 879 463 836 463 779 c 0xf4
 463 735 439 696 410 670 c 1
 435 648 449 615 449 577 c 0
 449 488 361 391 256 391 c 0
 181 391 130 444 130 514 c 0
 130 529 134 548 137 563 c 1
 209 563 l 1
 207 552 204 539 204 528 c 0
 204 489 232 461 273 461 c 0
 325 461 378 509 378 565 c 0
 378 603 350 632 309 632 c 2
 293 632 l 1
 308 704 l 1
 324 704 l 2xf8
EndSplineSet
EndChar
StartChar: uni00B5
Encoding: 116 181 223
Width: 475
VWidth: 1333
Flags: HW
HStem: -6 69<188.6 323.8> 433 20G<160 230 440 510>
VStem: 34 72<-180.003 -119.233>
Fore
160 453 m 1
 230 453 l 1
 172 181 l 2
 170 171 169 162 169 153 c 0
 169 100 203 63 251 63 c 0
 307 63 367 113 382 181 c 2
 440 453 l 1
 510 453 l 1
 452 181 l 2
 430 80 336 -6 237 -6 c 0
 197 -6 164 8 140 31 c 1
 109 -117 l 2
 107 -127 106 -137 106 -146 c 0
 106 -158 108 -170 111 -180 c 2
 115 -193 l 1
 47 -225 l 1
 43 -212 l 2
 37 -196 34 -179 34 -160 c 0
 34 -147 36 -132 39 -118 c 2
 160 453 l 1
EndSplineSet
EndChar
StartChar: uni00B9
Encoding: 120 185 224
Width: 350
VWidth: 1333
Flags: HW
HStem: 397 495<326 431>
VStem: 255 176<397 892>
Fore
331 755 m 1
 284 727 l 1
 256 787 l 1
 431 892 l 1
 326 397 l 1
 255 397 l 1
 331 755 l 1
EndSplineSet
EndChar
StartChar: uni0E01
Encoding: 209 3585 225
Width: 529
VWidth: 1273
Flags: HW
HStem: 0 21G<64 135 396 466> 472 68<293 436.6>
VStem: 471 71<331.522 454.1>
Fore
203 385 m 1
 269 342 l 1
 244 332 200 306 187 248 c 2
 135 0 l 1
 64 0 l 1
 117 248 l 2
 123 279 147 310 174 332 c 1
 122 362 l 1
 190 512 311 540 371 540 c 0
 472 540 542 470 542 378 c 0
 542 365 541 351 538 337 c 2
 466 0 l 1
 396 0 l 1
 468 337 l 2
 470 348 471 358 471 367 c 0
 471 434 418 472 356 472 c 0
 303 472 240 446 203 385 c 1
EndSplineSet
EndChar
StartChar: uni0E02
Encoding: 210 3586 226
Width: 549
VWidth: 1273
Flags: HW
HStem: -7 68<199.6 389.4> 283 68<195 291.169> 465 68<280 319>
VStem: 102 72<88.7 201.233>
Fore
242 465 m 1
 280 533 l 1
 404 533 l 1
 369 367 l 2
 359 321 311 283 263 283 c 2
 195 283 l 1
 177 196 l 2
 175 186 174 177 174 168 c 0
 174 107 220 61 288 61 c 0
 366 61 441 121 456 196 c 2
 528 533 l 1
 599 533 l 1
 527 196 l 2
 503 84 389 -7 274 -7 c 0
 172 -7 102 63 102 156 c 0
 102 169 103 182 106 196 c 2
 139 351 l 1
 278 351 l 2
 287 351 296 358 298 367 c 2
 319 465 l 1
 242 465 l 1
EndSplineSet
EndChar
StartChar: uni0E03
Encoding: 211 3587 227
Width: 549
VWidth: 1273
Flags: HW
HStem: -6 68<199.9 388.4> 283 68<195 290.15>
VStem: 102 71<89.7 201.478>
Fore
287 483 m 1
 343 534 l 1
 403 534 l 1
 368 368 l 2
 358 321 311 283 263 283 c 2
 195 283 l 1
 176 196 l 2
 174 187 173 178 173 169 c 0
 173 108 220 62 287 62 c 0
 365 62 440 122 456 196 c 2
 528 534 l 1
 598 534 l 1
 526 196 l 2
 503 84 389 -6 273 -6 c 0
 172 -6 102 63 102 155 c 0
 102 168 103 182 106 196 c 2
 139 351 l 1
 277 351 l 2
 287 351 296 359 298 368 c 2
 308 417 l 1
 248 362 l 1
 243 424 221 458 174 486 c 1
 221 546 l 1
 253 527 269 513 287 483 c 1
EndSplineSet
EndChar
StartChar: uni0E04
Encoding: 212 3588 228
Width: 547
VWidth: 1273
Flags: HW
HStem: 0 21G<64 135 414 485> 233 68<198 322> 472 68<273.6 462.1>
VStem: 489 71<331.522 444.3>
Fore
360 301 m 1
 322 233 l 1
 184 233 l 1
 135 0 l 1
 64 0 l 1
 136 337 l 2
 159 449 273 540 389 540 c 0
 490 540 560 470 560 378 c 0
 560 365 559 351 556 337 c 2
 485 0 l 1
 414 0 l 1
 486 337 l 2
 488 346 489 356 489 365 c 0
 489 426 442 472 375 472 c 0
 297 472 222 412 206 337 c 2
 198 301 l 1
 360 301 l 1
EndSplineSet
EndChar
StartChar: uni0E05
Encoding: 213 3589 229
Width: 549
VWidth: 1273
Flags: HW
HStem: 0 21G<65 135 415 485> 233 68<199 321> 386 69<343.4 399.3>
VStem: 493 72<352.48 421.45>
Fore
359 301 m 1
 321 233 l 1
 185 233 l 1
 135 0 l 1
 65 0 l 1
 139 351 l 2
 155 425 201 487 268 524 c 2
 300 542 l 1
 314 514 l 2
 333 476 350 455 372 455 c 0
 393 455 419 473 455 513 c 2
 479 540 l 1
 504 524 l 2
 547 496 565 449 565 398 c 0
 565 383 563 367 560 351 c 2
 485 0 l 1
 415 0 l 1
 489 351 l 2
 492 363 493 375 493 386 c 0
 493 410 487 430 475 446 c 1
 441 415 400 386 357 386 c 0
 314 386 285 415 265 446 c 1
 237 423 218 390 210 351 c 2
 199 301 l 1
 359 301 l 1
EndSplineSet
EndChar
StartChar: uni0E06
Encoding: 214 3590 230
Width: 547
VWidth: 1273
Flags: HW
HStem: -6 68<241.2 431> 283 68<195 290.15>
Fore
174 486 m 1
 221 546 l 1
 253 527 269 513 287 483 c 1
 343 534 l 1
 403 534 l 1
 368 368 l 2
 358 321 311 283 263 283 c 2
 195 283 l 1
 188 249 l 2
 186 242 186 235 186 227 c 0
 186 152 261 62 327 62 c 0
 407 62 442 132 456 196 c 2
 528 534 l 1
 598 534 l 1
 526 196 l 2
 503 88 433 -6 312 -6 c 0
 245 -6 191 46 157 106 c 1
 135 0 l 1
 64 0 l 1
 139 351 l 1
 277 351 l 2
 287 351 296 359 298 368 c 2
 308 417 l 1
 248 362 l 1
 241 432 221 458 174 486 c 1
EndSplineSet
EndChar
StartChar: uni0E07
Encoding: 215 3591 231
Width: 547
VWidth: 1273
Flags: HW
HStem: -7 68<199.9 388.4> 465 68<372 461.4>
VStem: 102 71<88.7 201.478> 487 72<325.522 437>
Fore
144 378 m 1
 220 401 l 1
 176 196 l 2
 174 187 173 177 173 168 c 0
 173 107 220 61 287 61 c 0
 365 61 440 121 456 196 c 2
 484 331 l 2
 486 340 487 350 487 359 c 0
 487 419 441 465 373 465 c 2
 358 465 l 1
 372 533 l 1
 388 533 l 2
 489 533 559 463 559 372 c 0
 559 359 558 345 555 331 c 2
 526 196 l 2
 503 84 389 -7 273 -7 c 0
 172 -7 102 63 102 155 c 0
 102 168 103 182 106 196 c 2
 144 378 l 1
EndSplineSet
EndChar
StartChar: uni0E08
Encoding: 216 3592 232
Width: 526
VWidth: 1273
Flags: HW
HStem: 0 21G<393 463> 233 68<319 442> 472 68<252.9 442.7>
VStem: 468 71<331.522 444.6>
Fore
281 233 m 1
 319 301 l 1
 457 301 l 1
 465 337 l 2
 467 346 468 355 468 364 c 0
 468 426 422 472 353 472 c 0
 276 472 201 412 185 337 c 2
 182 322 l 1
 111 322 l 1
 114 337 l 2
 138 449 252 540 368 540 c 0
 469 540 539 470 539 378 c 0
 539 365 538 351 535 337 c 2
 463 0 l 1
 393 0 l 1
 442 233 l 1
 281 233 l 1
EndSplineSet
EndChar
StartChar: uni0E09
Encoding: 217 3593 233
Width: 525
VWidth: 1273
Flags: HW
HStem: -4 68<188 306.6> 472 68<251.9 441.7>
VStem: 103 71<63.2 180.865> 467 71<331.522 444.6>
Fore
64 224 m 1
 102 292 l 1
 202 292 l 1
 182 199 l 2
 177 174 174 153 174 136 c 0
 174 80 200 64 240 64 c 0
 316 64 429 175 445 249 c 2
 464 337 l 2
 466 346 467 355 467 364 c 0
 467 426 421 472 352 472 c 0
 275 472 200 412 184 337 c 9
 113 337 l 17
 137 449 251 540 367 540 c 0
 468 540 538 470 538 378 c 0
 538 365 537 351 534 337 c 2
 462 0 l 1
 392 0 l 1
 413 98 l 1
 357 41 288 -4 226 -4 c 0
 132 -4 103 54 103 125 c 0
 103 149 106 174 111 199 c 2
 117 224 l 1
 64 224 l 1
EndSplineSet
EndChar
StartChar: uni0E0A
Encoding: 218 3594 234
Width: 547
VWidth: 1273
Flags: HW
HStem: -7 68<199.9 388.4> 283 68<195 291.174> 367 68<383 450> 465 68<280 318>
VStem: 102 71<88.7 201.478> 480 71<292.367 347.9>
Fore
242 465 m 1
 280 533 l 1
 403 533 l 1
 383 435 l 1
 450 435 l 2
 487 435 513 464 521 502 c 2
 528 533 l 1
 598 533 l 1
 591 502 l 2
 583 461 557 425 523 400 c 1
 541 381 551 355 551 327 c 0
 551 317 550 308 548 298 c 2
 526 196 l 2
 503 84 389 -7 273 -7 c 0
 172 -7 102 63 102 155 c 0
 102 168 103 182 106 196 c 2
 139 351 l 1
 277 351 l 2
 287 351 296 358 298 367 c 2
 318 465 l 1
 242 465 l 1
436 367 m 2
 368 367 l 1
 358 321 311 283 263 283 c 2
 195 283 l 1
 176 196 l 2
 174 187 173 177 173 168 c 0
 173 107 220 61 287 61 c 0
 365 61 440 121 456 196 c 2
 478 298 l 2
 479 304 480 311 480 318 c 0
 480 341 471 367 436 367 c 2
EndSplineSet
EndChar
StartChar: uni0E0B
Encoding: 219 3595 235
Width: 547
VWidth: 1273
Flags: HW
HStem: -7 68<199.9 388.4> 283 68<195 291.174> 367 68<383 481.5>
VStem: 102 71<88.7 201.478> 480 71<292.367 347.9>
Fore
436 367 m 2
 368 367 l 1
 358 321 311 283 263 283 c 2
 195 283 l 1
 176 196 l 2
 174 187 173 177 173 168 c 0
 173 107 220 61 287 61 c 0
 365 61 440 121 456 196 c 2
 478 298 l 2
 479 304 480 311 480 318 c 0
 480 341 471 367 436 367 c 2
174 486 m 1
 221 546 l 1
 253 527 269 513 287 483 c 1
 343 534 l 1
 403 533 l 1
 383 435 l 1
 450 435 l 2
 487 435 513 464 521 502 c 2
 528 533 l 1
 598 533 l 1
 591 502 l 2
 583 461 557 425 523 400 c 1
 541 381 551 355 551 327 c 0
 551 317 550 308 548 298 c 2
 526 196 l 2
 503 84 389 -7 273 -7 c 0
 172 -7 102 63 102 155 c 0
 102 168 103 182 106 196 c 2
 139 351 l 1
 277 351 l 2
 287 351 296 358 298 367 c 2
 308 417 l 1
 248 362 l 1
 242 427 221 458 174 486 c 1
EndSplineSet
EndChar
StartChar: uni0E0C
Encoding: 220 3596 236
Width: 838
VWidth: 1273
Flags: HW
HStem: -8 68<553 699.9> 472 68<293 436.3>
VStem: 471 71<331.522 454.1>
Fore
520 248 m 2
 518 238 517 227 517 217 c 0
 517 140 571 60 631 60 c 0
 684 60 725 89 748 195 c 2
 820 533 l 1
 890 533 l 1
 818 195 l 2
 787 50 710 -8 617 -8 c 0
 560 -8 514 31 485 86 c 1
 467 0 l 1
 396 0 l 1
 468 337 l 2
 470 348 471 358 471 367 c 0
 471 434 418 472 357 472 c 0
 303 472 240 446 203 385 c 1
 270 342 l 1
 245 332 200 306 187 248 c 2
 149 68 l 1
 208 68 l 1
 170 0 l 1
 64 0 l 1
 117 248 l 2
 124 279 147 310 174 332 c 1
 122 362 l 1
 190 512 311 540 371 540 c 0
 472 540 542 470 542 378 c 0
 542 365 541 351 538 337 c 2
 520 248 l 2
EndSplineSet
EndChar
StartChar: uni0E0D
Encoding: 221 3597 237
Width: 842
VWidth: 1269
Flags: HW
HStem: -145 67<495.6 647.7> -7 68<528.2 645.8> 472 68<293 436.3>
VStem: 432 73<85.7 193.595> 471 71<331.522 454.1>
Fore
468 337 m 2xf0
 470 348 471 358 471 367 c 0
 471 434 418 472 357 472 c 0
 303 472 240 446 203 385 c 1
 270 342 l 1
 245 332 200 306 187 248 c 2
 149 68 l 1
 208 68 l 1
 170 0 l 1
 64 0 l 1
 117 248 l 2
 124 279 147 310 174 332 c 1
 122 362 l 1
 190 512 311 540 371 540 c 0
 472 540 542 470 542 378 c 0xe8
 542 365 541 351 538 337 c 2
 508 196 l 2
 506 185 505 175 505 165 c 0
 505 104 545 61 601 61 c 0
 665 61 733 119 750 196 c 2
 821 533 l 1
 892 533 l 1
 791 58 l 2
 768 -51 666 -145 557 -145 c 0
 461 -145 429 -79 417 -57 c 1
 485 -23 l 1
 492 -36 513 -78 571 -78 c 0
 630 -78 701 -25 716 43 c 1
 680 11 632 -7 586 -7 c 0
 492 -7 432 62 432 151 c 0
 432 165 434 180 437 195 c 2
 468 337 l 2xf0
EndSplineSet
Substitution2: "Single Substitution lookup 8" uni0E0D.descless
EndChar
StartChar: uni0E0E
Encoding: 222 3598 238
Width: 530
VWidth: 1267
Flags: HW
HStem: -177 68<-9 143> 0 21G<12 135> 472 68<293 436.6>
VStem: 471 72<331.767 454.1>
AnchorPoint: "BelowBase" 426.614 -190 basechar 0
Fore
12 0 m 1
 50 68 l 1
 78 68 l 1
 117 248 l 2
 124 280 147 310 175 332 c 1
 122 362 l 1
 191 512 311 540 371 540 c 0
 473 540 543 470 543 377 c 0
 543 364 542 351 539 337 c 2
 429 -177 l 1
 351 -177 l 1
 261 -111 l 1
 151 -177 l 1
 -48 -177 l 1
 -9 -109 l 1
 143 -109 l 1
 276 -29 l 1
 374 -102 l 1
 468 337 l 2
 470 348 471 358 471 367 c 0
 471 434 418 472 356 472 c 0
 303 472 240 446 203 385 c 1
 270 342 l 1
 245 332 200 306 188 248 c 2
 135 0 l 1
 12 0 l 1
EndSplineSet
EndChar
StartChar: uni0E0F
Encoding: 223 3599 239
Width: 530
VWidth: 1267
Flags: HW
HStem: -178 68<-9 51> 0 21G<12 135> 472 68<293 436.6>
VStem: 471 72<331.767 454.1>
AnchorPoint: "BelowBase" 426.614 -190 basechar 0
Fore
12 0 m 1
 50 68 l 1
 78 68 l 1
 117 248 l 2
 123 279 147 310 175 332 c 1
 122 362 l 1
 191 511 311 540 371 540 c 0
 473 540 543 470 543 377 c 0
 543 364 542 351 539 337 c 2
 429 -178 l 1
 346 -178 l 1
 298 -117 l 1
 205 -190 l 1
 137 -117 l 1
 69 -178 l 1
 -48 -178 l 1
 -9 -110 l 1
 51 -110 l 1
 149 -22 l 1
 221 -98 l 1
 318 -22 l 1
 376 -93 l 1
 468 337 l 2
 470 348 471 358 471 367 c 0
 471 434 418 472 356 472 c 0
 303 472 240 445 203 384 c 1
 270 342 l 1
 245 332 200 306 188 248 c 2
 135 0 l 1
 12 0 l 1
EndSplineSet
EndChar
StartChar: uni0E10
Encoding: 224 3600 240
Width: 534
VWidth: 1267
Flags: HW
HStem: -203 68<-11 50> 0 21G<401 471> 233 68<327 450> 472 68<260.9 430.6>
VStem: 475 73<338.33 417>
Fore
318 -47 m 1
 377 -119 l 1
 388 -65 l 1
 369 -25 l 1
 466 -25 l 1
 428 -203 l 1
 346 -203 l 1
 297 -143 l 1
 204 -215 l 1
 136 -143 l 1
 68 -203 l 1
 -49 -203 l 1
 -11 -135 l 1
 50 -135 l 1
 149 -47 l 1
 220 -123 l 1
 318 -47 l 1
289 233 m 1
 327 301 l 1
 465 301 l 1
 472 337 l 2
 474 347 475 356 475 365 c 0
 475 426 429 472 361 472 c 0
 284 472 209 412 193 337 c 2
 190 322 l 1
 119 322 l 1
 122 337 l 2
 146 449 260 540 376 540 c 0
 418 540 455 527 484 506 c 1
 545 540 l 1
 573 484 l 1
 527 458 l 1
 540 435 548 408 548 378 c 0
 548 365 546 351 543 337 c 2
 471 0 l 1
 401 0 l 1
 450 233 l 1
 289 233 l 1
EndSplineSet
Substitution2: "Single Substitution lookup 8" uni0E10.descless
EndChar
StartChar: uni0E11
Encoding: 225 3601 241
Width: 547
VWidth: 1273
Flags: HW
HStem: 0 21G<64 134 414 484> 473 68<434.8 506.3>
VStem: 507 71<419.5 469.4>
Fore
113 486 m 1
 159 546 l 1
 191 527 207 513 225 483 c 1
 281 534 l 1
 342 534 l 1
 324 452 l 1
 379 496 445 541 494 541 c 0
 559 541 578 510 578 465 c 0
 578 430 567 388 558 345 c 2
 484 0 l 1
 414 0 l 1
 487 345 l 2
 497 392 507 425 507 446 c 0
 507 464 500 473 479 473 c 0
 445 473 308 368 184 233 c 1
 134 0 l 1
 64 0 l 1
 117 249 l 2
 119 260 192 333 238 376 c 1
 246 418 l 1
 186 362 l 1
 181 423 160 458 113 486 c 1
EndSplineSet
EndChar
StartChar: uni0E12
Encoding: 226 3602 242
Width: 871
VWidth: 1273
Flags: HW
HStem: -6 68<176.8 330.2 584.7 731.6> 268 68<257 337.8> 386 68<365.9 408.8>
VStem: 94 72<88.9 283.9> 346 72<122 250.7> 507 72<353.244 421.115>
Fore
234 62 m 0
 308 62 346 140 346 200 c 0
 346 239 327 268 291 268 c 2
 219 268 l 1
 257 336 l 1
 305 336 l 2
 384 336 418 279 418 213 c 0
 418 137 364 -6 219 -6 c 0
 131 -6 94 71 94 164 c 0
 94 312 178 459 297 533 c 2
 312 543 l 1
 319 529 l 2
 345 472 371 454 388 454 c 0
 404 454 435 472 486 528 c 2
 497 541 l 1
 508 532 l 2
 552 498 579 448 579 392 c 0
 579 380 577 368 575 356 c 2
 552 249 l 2
 550 239 549 229 549 218 c 0
 549 142 603 62 664 62 c 0
 716 62 757 91 780 196 c 2
 851 534 l 1
 922 534 l 1
 850 196 l 2
 819 51 742 -6 649 -6 c 0
 592 -6 546 32 517 87 c 1
 499 0 l 1
 428 0 l 1
 504 356 l 2
 506 367 507 377 507 387 c 0
 507 409 502 428 490 444 c 1
 452 411 410 386 373 386 c 0
 332 386 301 412 280 444 c 1
 201 374 166 259 166 176 c 0
 166 109 190 62 234 62 c 0
EndSplineSet
EndChar
StartChar: uni0E13
Encoding: 227 3603 243
Width: 839
VWidth: 1273
Flags: HW
HStem: -8 68<514.3 626.1> 472 68<293 436.6>
VStem: 428 72<60.5 171.964> 471 71<335.06 455.1>
Fore
207 68 m 1xd0
 169 0 l 1
 64 0 l 1
 117 248 l 2
 123 279 147 310 174 332 c 1
 121 362 l 1
 190 511 311 540 371 540 c 0
 472 540 542 470 542 378 c 0xd0
 542 365 541 351 538 337 c 2
 508 195 l 2
 503 170 500 149 500 132 c 0
 500 77 526 60 565 60 c 0
 633 60 740 163 758 248 c 2
 819 533 l 1
 889 533 l 1
 776 0 l 1
 705 0 l 1
 724 86 l 1
 671 31 609 -8 552 -8 c 0
 477 -8 428 30 428 120 c 0xe0
 428 142 431 167 437 195 c 2
 467 337 l 2
 469 348 471 359 471 368 c 0
 471 435 418 472 356 472 c 0
 303 472 240 445 202 384 c 1
 269 342 l 1
 244 332 199 306 187 248 c 2
 149 68 l 1
 207 68 l 1xd0
EndSplineSet
EndChar
StartChar: uni0E14
Encoding: 228 3604 244
Width: 562
VWidth: 1273
Flags: HW
HStem: -6 67<176.8 331.5> 268 68<257 337.8> 472 68<210.5 474.4>
VStem: 94 72<86.9 348.2> 346 72<123.6 249.7> 503 72<331.638 444.6>
Fore
234 61 m 0
 309 61 346 141 346 199 c 0
 346 238 327 268 291 268 c 2
 219 268 l 1
 257 336 l 1
 305 336 l 2
 384 336 418 278 418 212 c 0
 418 113 344 -6 219 -6 c 0
 139 -6 94 60 94 162 c 0
 94 332 211 540 401 540 c 0
 502 540 575 469 575 376 c 0
 575 363 574 350 571 337 c 2
 499 0 l 1
 428 0 l 1
 500 337 l 2
 502 346 503 355 503 364 c 0
 503 426 454 472 386 472 c 0
 251 472 166 308 166 174 c 0
 166 107 190 61 234 61 c 0
EndSplineSet
EndChar
StartChar: uni0E15
Encoding: 229 3605 245
Width: 562
VWidth: 1273
Flags: HW
HStem: -6 68<176.8 330.2> 267 69<257 338.1> 384 67<364.9 409.1>
VStem: 94 72<88.9 312.5> 346 72<123.6 249.7> 507 71<350.965 417.012>
Fore
234 62 m 0
 308 62 346 141 346 199 c 0
 346 238 327 267 290 267 c 2
 219 267 l 1
 257 336 l 1
 305 336 l 2
 384 336 418 279 418 213 c 0
 418 137 364 -6 219 -6 c 0
 131 -6 94 71 94 164 c 0
 94 311 176 455 296 530 c 2
 312 540 l 1
 318 526 l 2
 345 469 370 451 387 451 c 0
 404 451 434 470 485 525 c 2
 497 538 l 1
 508 529 l 2
 551 495 578 446 578 390 c 0
 578 378 577 366 574 353 c 2
 499 0 l 1
 428 0 l 1
 503 353 l 2
 505 364 507 374 507 384 c 0
 507 406 501 425 489 442 c 1
 452 408 409 384 373 384 c 0
 332 384 301 409 279 441 c 1
 215 383 166 281 166 176 c 0
 166 109 190 62 234 62 c 0
EndSplineSet
EndChar
StartChar: uni0E16
Encoding: 230 3606 246
Width: 530
VWidth: 1273
Flags: HW
HStem: 0 21G<64 170 396 467> 472 68<293 436.3>
VStem: 471 71<331.522 454.1>
Fore
208 68 m 1
 170 0 l 1
 64 0 l 1
 117 248 l 2
 124 279 147 310 174 332 c 1
 122 362 l 1
 190 512 311 540 371 540 c 0
 472 540 542 470 542 378 c 0
 542 365 541 351 538 337 c 2
 467 0 l 1
 396 0 l 1
 468 337 l 2
 470 348 471 358 471 367 c 0
 471 434 418 472 357 472 c 0
 303 472 240 446 203 385 c 1
 270 342 l 1
 245 332 200 306 187 248 c 2
 149 68 l 1
 208 68 l 1
EndSplineSet
EndChar
StartChar: uni0E17
Encoding: 231 3607 247
Width: 549
VWidth: 1273
Flags: HW
HStem: 0 21G<65 135 415 485> 472 68<341.9 492>
VStem: 492 72<347.133 447.8>
Fore
65 0 m 1
 178 534 l 1
 249 534 l 1
 226 428 l 1
 285 488 362 540 429 540 c 0
 525 540 564 480 564 400 c 0
 564 380 562 359 557 337 c 2
 485 0 l 1
 415 0 l 1
 486 337 l 2
 490 354 492 371 492 388 c 0
 492 434 474 472 414 472 c 0
 343 472 212 364 196 284 c 2
 135 0 l 1
 65 0 l 1
EndSplineSet
EndChar
StartChar: uni0E18
Encoding: 232 3608 248
Width: 549
VWidth: 1273
Flags: HW
HStem: 0 68<150 289> 233 68<199 464> 472 68<274.9 463.4>
VStem: 489 72<331.522 444.3>
Fore
65 0 m 1
 108 203 l 1
 178 203 l 1
 150 68 l 1
 289 68 l 2
 367 68 442 128 458 203 c 2
 464 233 l 1
 114 233 l 1
 136 337 l 2
 160 449 274 540 390 540 c 0
 491 540 561 470 561 378 c 0
 561 365 560 351 557 337 c 9
 486 337 l 17
 488 347 489 356 489 365 c 0
 489 426 443 472 375 472 c 0
 298 472 223 412 207 337 c 2
 199 301 l 1
 549 301 l 1
 528 203 l 2
 505 91 391 0 275 0 c 2
 65 0 l 1
EndSplineSet
EndChar
StartChar: uni0E19
Encoding: 233 3609 249
Width: 549
VWidth: 1273
Flags: HW
HStem: -4 68<172.3 320.8>
VStem: 100 72<88.9 189.114>
Fore
178 533 m 1
 249 533 l 1
 177 199 l 2
 174 183 172 166 172 150 c 0
 172 103 190 64 249 64 c 0
 326 64 452 175 468 249 c 2
 528 533 l 1
 599 533 l 1
 485 0 l 1
 415 0 l 1
 437 106 l 1
 378 47 301 -4 235 -4 c 0
 138 -4 100 56 100 135 c 0
 100 156 102 177 107 199 c 2
 178 533 l 1
EndSplineSet
EndChar
StartChar: uni0E1A
Encoding: 234 3610 250
Width: 549
VWidth: 1273
Flags: HW
HStem: -7 68<199.6 389.4>
VStem: 102 73<87.4 201.233>
Fore
178 533 m 1
 250 533 l 1
 178 196 l 2
 176 186 175 177 175 168 c 0
 175 106 220 61 288 61 c 0
 366 61 439 121 455 196 c 2
 527 533 l 1
 599 533 l 1
 527 196 l 2
 503 84 389 -7 274 -7 c 0
 172 -7 102 63 102 156 c 0
 102 169 103 182 106 196 c 2
 178 533 l 1
EndSplineSet
EndChar
StartChar: uni0E1B
Encoding: 235 3611 251
Width: 549
VWidth: 1275
Flags: HW
HStem: -7 68<199.6 389.4>
VStem: 103 72<87.4 201.478>
AnchorPoint: "AboveBase" 497.732 568 basechar 0
Fore
178 533 m 1
 249 533 l 1
 178 196 l 2
 176 186 175 177 175 168 c 0
 175 106 220 61 288 61 c 0
 366 61 439 121 455 196 c 2
 553 659 l 1
 625 659 l 1
 527 196 l 2
 503 84 390 -7 274 -7 c 0
 173 -7 103 63 103 155 c 0
 103 168 104 182 107 196 c 2
 178 533 l 1
EndSplineSet
EndChar
StartChar: uni0E1C
Encoding: 236 3612 252
Width: 593
VWidth: 1273
Flags: HW
HStem: -7 68<178.8 244.1 360.9 475.3> 467 68<228.4 312>
VStem: 94 71<76.6 354.1>
Fore
296 467 m 2
 244 467 165 311 165 165 c 0
 165 97 186 61 210 61 c 0
 265 61 288 123 296 158 c 2
 376 533 l 1
 445 533 l 1
 365 158 l 2
 362 144 360 130 360 118 c 0
 360 86 372 61 409 61 c 0
 460 61 483 110 493 158 c 2
 573 533 l 1
 644 533 l 1
 564 158 l 2
 540 46 468 -7 394 -7 c 0
 356 -7 325 16 307 51 c 1
 274 16 233 -7 196 -7 c 0
 130 -7 94 52 94 150 c 0
 94 307 181 535 311 535 c 2
 326 535 l 1
 312 467 l 1
 296 467 l 2
EndSplineSet
EndChar
StartChar: uni0E1D
Encoding: 237 3613 253
Width: 593
VWidth: 1275
Flags: HW
HStem: -7 68<178.8 245.4 360.9 475.3> 466 68<228.4 312>
VStem: 94 71<76.9 351.5>
AnchorPoint: "AboveBase" 541.732 568 basechar 0
Fore
296 466 m 2
 244 466 165 312 165 164 c 0
 165 97 186 61 210 61 c 0
 265 61 288 122 296 158 c 2
 375 533 l 1
 445 533 l 1
 366 158 l 2
 363 144 361 129 361 116 c 0
 361 85 372 61 409 61 c 0
 460 61 483 110 494 158 c 2
 600 659 l 1
 670 659 l 1
 564 158 l 2
 540 45 469 -7 395 -7 c 0
 357 -7 325 15 307 50 c 1
 274 15 234 -7 196 -7 c 0
 130 -7 94 52 94 150 c 0
 94 305 181 534 311 534 c 2
 327 534 l 1
 312 466 l 1
 296 466 l 2
EndSplineSet
EndChar
StartChar: uni0E1E
Encoding: 238 3614 254
Width: 610
VWidth: 1273
Flags: HW
HStem: -7 68<164.6 251.7 371.3 492.2>
VStem: 92 71<76.1 152.013>
Fore
177 533 m 1
 248 533 l 1
 168 158 l 2
 165 144 163 131 163 119 c 0
 163 86 176 61 214 61 c 0
 272 61 296 120 304 158 c 2
 384 533 l 1
 454 533 l 1
 375 158 l 2
 372 145 370 132 370 120 c 0
 370 87 383 61 422 61 c 0
 476 61 500 111 511 158 c 2
 590 533 l 1
 661 533 l 1
 581 158 l 2
 557 45 484 -7 408 -7 c 0
 368 -7 336 16 317 52 c 1
 283 16 240 -7 201 -7 c 0
 138 -7 92 29 92 106 c 0
 92 121 94 139 98 158 c 2
 177 533 l 1
EndSplineSet
EndChar
StartChar: uni0E1F
Encoding: 239 3615 255
Width: 610
VWidth: 1275
Flags: HW
HStem: -7 68<164.6 252.7 371.3 492.2>
VStem: 92 72<75.4 152.013>
AnchorPoint: "AboveBase" 558.732 568 basechar 0
Fore
177 533 m 1
 248 533 l 1
 169 158 l 2
 166 144 164 130 164 117 c 0
 164 85 176 61 214 61 c 0
 272 61 296 120 304 158 c 2
 383 533 l 1
 454 533 l 1
 375 158 l 2
 372 145 370 132 370 120 c 0
 370 87 383 61 422 61 c 0
 476 61 501 111 511 158 c 2
 617 659 l 1
 687 659 l 1
 581 158 l 2
 557 45 484 -7 408 -7 c 0
 369 -7 335 16 317 52 c 1
 282 16 241 -7 202 -7 c 0
 138 -7 92 29 92 106 c 0
 92 121 94 139 98 158 c 2
 177 533 l 1
EndSplineSet
EndChar
StartChar: uni0E20
Encoding: 240 3616 256
Width: 529
VWidth: 1273
Flags: HW
HStem: 0 21G<8 134 395 466> 472 68<292 436.6>
VStem: 470 72<331.767 454.1>
Fore
8 0 m 1
 46 68 l 1
 78 68 l 1
 116 248 l 2
 123 279 147 310 173 332 c 1
 121 362 l 1
 190 512 310 540 370 540 c 0
 472 540 542 470 542 377 c 0
 542 364 541 351 538 337 c 2
 466 0 l 1
 395 0 l 1
 467 337 l 2
 469 348 470 358 470 367 c 0
 470 434 418 472 356 472 c 0
 302 472 239 446 202 385 c 1
 269 342 l 1
 244 332 199 306 187 248 c 2
 134 0 l 1
 8 0 l 1
EndSplineSet
EndChar
StartChar: uni0E21
Encoding: 241 3617 257
Width: 547
VWidth: 1273
Flags: HW
HStem: -7 68<241.2 431>
Fore
177 533 m 1
 248 533 l 1
 187 249 l 2
 186 242 185 236 185 229 c 0
 185 152 261 61 327 61 c 0
 407 61 442 132 456 196 c 2
 528 533 l 1
 598 533 l 1
 526 196 l 2
 503 88 433 -7 312 -7 c 0
 245 -7 191 46 157 105 c 1
 134 0 l 1
 64 0 l 1
 177 533 l 1
EndSplineSet
EndChar
StartChar: uni0E22
Encoding: 242 3618 258
Width: 547
VWidth: 1273
Flags: HW
HStem: -7 68<196.7 389.1> 298 63<227.5 349> 465 68<306 389>
VStem: 93 73<81 194.7>
Fore
93 144 m 0
 93 183 105 258 188 298 c 1
 128 298 l 1
 135 332 l 2
 159 444 272 533 388 533 c 2
 404 533 l 1
 389 465 l 1
 374 465 l 2
 306 465 241 422 215 361 c 1
 387 361 l 1
 349 298 l 1
 338 298 l 2
 253 298 166 244 166 159 c 0
 166 99 218 61 289 61 c 0
 366 61 439 110 455 183 c 2
 529 533 l 1
 598 533 l 1
 524 183 l 2
 500 70 387 -7 273 -7 c 0
 173 -7 93 50 93 144 c 0
EndSplineSet
EndChar
StartChar: uni0E23
Encoding: 243 3619 259
Width: 547
VWidth: 1273
Flags: HW
HStem: 0 68<273 367> 233 68<198 464> 472 68<273.6 462.1>
VStem: 489 71<331.522 444.3>
Fore
273 68 m 1
 289 68 l 2
 367 68 441 128 457 203 c 2
 464 233 l 1
 113 233 l 1
 136 337 l 2
 159 449 273 540 389 540 c 0
 490 540 560 470 560 378 c 0
 560 365 559 351 556 337 c 9
 486 337 l 17
 488 346 489 356 489 365 c 0
 489 426 442 472 375 472 c 0
 297 472 222 412 206 337 c 2
 198 301 l 1
 549 301 l 1
 528 203 l 2
 504 91 390 0 274 0 c 2
 259 0 l 1
 273 68 l 1
EndSplineSet
EndChar
StartChar: uni0E24
Encoding: 244 3620 260
Width: 529
VWidth: 1267
Flags: HW
HStem: 0 21G<64 169> 472 68<293 436.6>
VStem: 471 71<335.06 455.1>
Fore
207 68 m 1
 169 0 l 1
 64 0 l 1
 117 248 l 2
 123 279 147 310 174 332 c 1
 122 362 l 1
 190 511 311 540 371 540 c 0
 472 540 542 470 542 378 c 0
 542 365 541 351 538 337 c 2
 426 -192 l 1
 355 -192 l 1
 467 337 l 2
 469 348 471 359 471 368 c 0
 471 435 418 472 356 472 c 0
 303 472 240 445 202 384 c 1
 269 342 l 1
 244 332 199 306 187 248 c 2
 149 68 l 1
 207 68 l 1
EndSplineSet
EndChar
StartChar: uni0E25
Encoding: 245 3621 261
Width: 547
VWidth: 1273
Flags: HW
HStem: 0 68<200.6 290> 233 68<184 464> 472 68<273.6 462.1>
VStem: 103 72<95.7 208.478> 489 71<331.522 444.3>
Fore
305 68 m 1
 290 0 l 1
 274 0 l 2
 173 0 103 70 103 162 c 0
 103 175 104 189 107 203 c 2
 128 301 l 1
 478 301 l 1
 486 337 l 2
 488 346 489 356 489 365 c 0
 489 426 442 472 375 472 c 0
 297 472 222 412 206 337 c 9
 136 337 l 17
 159 449 273 540 389 540 c 0
 490 540 560 470 560 378 c 0
 560 365 559 351 556 337 c 2
 485 0 l 1
 414 0 l 1
 464 233 l 1
 184 233 l 1
 178 203 l 2
 176 193 175 184 175 175 c 0
 175 114 221 68 289 68 c 2
 305 68 l 1
EndSplineSet
EndChar
StartChar: uni0E26
Encoding: 246 3622 262
Width: 529
VWidth: 1267
Flags: HW
HStem: 0 21G<8 134> 472 68<292 436.6>
VStem: 470 72<331.767 454.1>
Fore
8 0 m 1
 46 68 l 1
 78 68 l 1
 116 248 l 2
 123 279 146 310 173 332 c 1
 121 362 l 1
 190 511 310 540 370 540 c 0
 472 540 542 470 542 377 c 0
 542 364 541 351 538 337 c 2
 425 -192 l 1
 355 -192 l 1
 467 337 l 2
 469 348 470 358 470 367 c 0
 470 434 418 472 356 472 c 0
 302 472 239 445 202 384 c 1
 269 342 l 1
 244 332 199 306 187 248 c 2
 134 0 l 1
 8 0 l 1
EndSplineSet
EndChar
StartChar: uni0E27
Encoding: 247 3623 263
Width: 559
VWidth: 1273
Flags: HW
HStem: -6 67<164.8 418.3> 472 68<294.7 468.9>
VStem: 86 72<102.104 180.97> 503 71<139.3 438.3>
Fore
574 332 m 0
 574 169 434 -6 273 -6 c 0
 183 -6 103 40 86 164 c 1
 158 191 l 1
 167 131 193 61 287 61 c 0
 388 61 503 181 503 320 c 0
 503 411 447 472 374 472 c 0
 313 472 249 433 194 344 c 1
 134 369 l 1
 207 489 301 540 389 540 c 0
 503 540 574 448 574 332 c 0
EndSplineSet
EndChar
StartChar: uni0E28
Encoding: 248 3624 264
Width: 547
VWidth: 1273
Flags: HW
HStem: 0 21G<64 135 414 485> 233 68<199 322> 473 68<274.9 447.5>
VStem: 489 72<338.502 416.4>
Fore
360 301 m 1
 322 233 l 1
 184 233 l 1
 135 0 l 1
 64 0 l 1
 136 339 l 2
 160 450 274 541 389 541 c 0
 434 541 473 528 502 505 c 1
 563 545 l 1
 602 497 l 1
 542 457 l 1
 554 435 561 408 561 380 c 0
 561 366 559 352 556 337 c 2
 485 0 l 1
 414 0 l 1
 486 337 l 2
 488 346 489 356 489 365 c 0
 489 426 442 473 375 473 c 0
 298 473 222 412 206 337 c 2
 199 301 l 1
 360 301 l 1
EndSplineSet
EndChar
StartChar: uni0E29
Encoding: 249 3625 265
Width: 546
VWidth: 1273
Flags: HW
HStem: -7 68<197.6 386.1> 282 68<380 472 557 571>
VStem: 101 72<87.4 201.478>
Fore
313 367 m 1
 388 389 l 1
 380 350 l 1
 487 350 l 1
 526 533 l 1
 596 533 l 1
 557 350 l 1
 609 350 l 1
 571 282 l 1
 544 282 l 1
 526 196 l 2
 502 84 388 -7 272 -7 c 0
 171 -7 101 63 101 155 c 0
 101 168 102 182 105 196 c 2
 177 533 l 1
 247 533 l 1
 176 196 l 2
 174 186 173 177 173 168 c 0
 173 106 218 61 286 61 c 0
 363 61 438 121 454 196 c 2
 472 282 l 1
 294 282 l 1
 313 367 l 1
EndSplineSet
EndChar
StartChar: uni0E2A
Encoding: 250 3626 266
Width: 547
VWidth: 1273
Flags: HW
HStem: 0 68<200.6 290> 233 68<184 464> 472 69<273.6 447.5>
VStem: 103 72<95.7 208.478> 489 72<338.502 416.4>
Fore
563 545 m 1
 602 497 l 1
 542 457 l 1
 554 434 561 408 561 380 c 0
 561 366 559 352 556 337 c 2
 485 0 l 1
 414 0 l 1
 464 233 l 1
 184 233 l 1
 178 203 l 2
 176 193 175 184 175 175 c 0
 175 114 221 68 289 68 c 2
 305 68 l 1
 290 0 l 1
 274 0 l 2
 173 0 103 70 103 162 c 0
 103 175 104 189 107 203 c 2
 128 301 l 1
 478 301 l 1
 486 337 l 2
 488 346 489 356 489 365 c 0
 489 426 442 472 375 472 c 0
 297 472 222 413 207 339 c 9
 136 339 l 17
 160 450 274 541 389 541 c 0
 434 541 473 528 502 505 c 1
 563 545 l 1
EndSplineSet
EndChar
StartChar: uni0E2B
Encoding: 251 3627 267
Width: 547
VWidth: 1273
Flags: HW
HStem: 0 21G<64 135 414 485>
VStem: 474 71<261.625 367.1>
Fore
207 342 m 1
 299 440 444 524 524 541 c 1
 592 485 l 1
 588 485 l 2
 555 485 482 463 461 446 c 1
 517 427 545 372 545 308 c 0
 545 292 543 274 539 257 c 2
 485 0 l 1
 414 0 l 1
 469 257 l 2
 472 272 474 289 474 306 c 0
 474 353 457 400 397 400 c 0
 340 400 190 256 173 181 c 2
 135 0 l 1
 64 0 l 1
 177 534 l 1
 248 534 l 1
 207 342 l 1
EndSplineSet
EndChar
StartChar: uni0E2C
Encoding: 252 3628 268
Width: 610
VWidth: 1275
Flags: HW
HStem: -7 68<164 255.3 371.3 492.2> 465 68<454 559>
VStem: 92 72<77.4 152.013> 564 70<393.427 455.4>
AnchorPoint: "AboveBase" 558.732 568 basechar 0
Fore
177 533 m 1
 248 533 l 1
 169 158 l 2
 166 145 164 131 164 119 c 0
 164 87 176 61 216 61 c 0
 273 61 296 120 304 158 c 2
 359 420 l 1
 430 420 l 1
 375 158 l 2
 372 145 370 132 370 120 c 0
 370 87 383 61 422 61 c 0
 476 61 501 111 511 158 c 2
 562 399 l 2
 564 406 564 413 564 419 c 0
 564 447 550 465 520 465 c 2
 440 465 l 1
 454 533 l 1
 534 533 l 2
 571 533 596 562 605 600 c 2
 609 621 l 1
 679 621 l 1
 675 600 l 2
 666 560 641 523 607 498 c 1
 625 479 634 454 634 426 c 0
 634 416 633 406 631 396 c 2
 581 158 l 2
 557 45 484 -7 408 -7 c 0
 367 -7 333 9 315 41 c 1
 282 9 243 -7 202 -7 c 0
 138 -7 92 29 92 106 c 0
 92 121 94 139 98 158 c 2
 177 533 l 1
EndSplineSet
EndChar
StartChar: uni0E2D
Encoding: 253 3629 269
Width: 607
VWidth: 1273
Flags: HW
HStem: -5 68<208.1 462.9> 233 68<173 350> 471 68<311.7 511.9>
VStem: 101 72<100.4 233> 546 75<140.8 433.3>
CounterMasks: 1 e0
Fore
621 328 m 0
 621 165 472 -5 303 -5 c 0
 180 -5 101 88 101 207 c 0
 101 226 103 246 107 267 c 2
 115 301 l 1
 391 301 l 1
 350 233 l 1
 173 233 l 1
 173 220 l 2
 173 128 233 63 316 63 c 0
 429 63 546 181 546 315 c 0
 546 406 487 471 404 471 c 0
 333 471 250 437 195 326 c 1
 131 344 l 1
 208 499 331 539 419 539 c 0
 542 539 621 446 621 328 c 0
EndSplineSet
EndChar
StartChar: uni0E2E
Encoding: 254 3630 270
Width: 607
VWidth: 1273
Flags: HW
HStem: -5 68<208.1 460.3> 233 66<173 350> 471 68<311.7 478.8>
VStem: 101 72<100.4 233> 546 75<139.5 393>
Fore
621 328 m 0
 621 165 473 -5 303 -5 c 0
 180 -5 101 88 101 207 c 0
 101 226 103 246 107 267 c 2
 114 299 l 1
 390 299 l 1
 350 233 l 1
 173 233 l 1
 173 220 l 2
 173 128 233 63 316 63 c 0
 427 63 546 180 546 315 c 0
 546 406 487 471 404 471 c 0
 333 471 250 437 195 326 c 1
 131 344 l 1
 208 499 331 539 419 539 c 0
 465 539 505 525 537 503 c 1
 591 540 l 1
 633 494 l 1
 581 458 l 1
 607 423 621 378 621 328 c 0
EndSplineSet
EndChar
StartChar: uni0E2F
Encoding: 255 3631 271
Width: 511
VWidth: 1273
Flags: HW
HStem: 0 21G<379 449> 322 68<239.935 363.3> 472 68<246 304>
VStem: 139 71<394 447.3>
Fore
139 407 m 0
 139 469 216 540 303 540 c 2
 318 540 l 1
 304 472 l 1
 288 472 l 2
 246 472 210 441 210 420 c 0
 210 400 249 390 271 390 c 0
 357 390 467 476 496 534 c 1
 563 534 l 1
 449 0 l 1
 379 0 l 1
 465 408 l 1
 414 367 339 322 258 322 c 0
 192 322 139 355 139 407 c 0
EndSplineSet
EndChar
StartChar: uni0E30
Encoding: 256 3632 272
Width: 291
VWidth: 1333
Flags: HW
HStem: 37 72<159 245> 372 72<230 316>
VStem: 72 283<37 444>
Fore
355 444 m 1
 316 372 l 1
 143 372 l 1
 166 478 l 1
 243 502 l 1
 230 444 l 1
 355 444 l 1
284 109 m 1
 245 37 l 1
 72 37 l 1
 95 144 l 1
 172 168 l 1
 159 109 l 1
 284 109 l 1
EndSplineSet
EndChar
StartChar: uni0E31
Encoding: 257 3633 273
Width: 0
VWidth: 1333
Flags: HW
HStem: 587 72<-51 232>
VStem: -138 433<587 659>
AnchorPoint: "AboveMark" 59.417 750 basemark 0
AnchorPoint: "AboveBase" 56.7324 568 mark 0
Fore
295 659 m 1
 232 587 l 1
 -138 587 l 1
 -116 693 l 1
 -39 717 l 1
 -51 659 l 1
 295 659 l 1
EndSplineSet
EndChar
StartChar: uni0E32
Encoding: 258 3634 274
Width: 405
VWidth: 1333
Flags: HW
HStem: 0 21G<271 342> 472 68<221 349>
VStem: 349 72<347.133 447.8>
Fore
155 491 m 1
 189 513 236 540 286 540 c 0
 382 540 421 480 421 400 c 0
 421 380 419 359 414 337 c 2
 342 0 l 1
 271 0 l 1
 343 337 l 2
 347 354 349 371 349 388 c 0
 349 434 331 472 271 472 c 0
 223 472 167 429 137 408 c 1
 155 491 l 1
EndSplineSet
EndChar
StartChar: uni0E33
Encoding: 259 3635 275
Width: 405
VWidth: 1333
Flags: HW
HStem: 0 21G<271 342> 472 68<221 349> 560 49<29.5 69.8> 657 49<26.5 77.2>
VStem: -24 52<616.99 643.092> 79 52<618.2 652.014> 349 72<347.133 447.8>
Fore
155 491 m 1
 189 513 236 540 286 540 c 0
 382 540 421 480 421 400 c 0
 421 380 419 359 414 337 c 2
 342 0 l 1
 271 0 l 1
 343 337 l 2
 347 354 349 371 349 388 c 0
 349 434 331 472 271 472 c 0
 223 472 167 429 137 408 c 1
 155 491 l 1
131 648 m 0
 131 607 90 560 38 560 c 0
 2 560 -24 585 -24 618 c 0
 -24 660 19 706 69 706 c 0
 106 706 131 681 131 648 c 0
59 657 m 0
 34 657 28 635 28 627 c 0
 28 618 34 609 49 609 c 0
 65 609 79 623 79 639 c 0
 79 648 73 657 59 657 c 0
EndSplineSet
MultipleSubs2: "Multiple Substitution lookup 7" uni0E4D uni0E32
Substitution2: "Single Substitution lookup 6" uni0E32
LCarets2: 1 0 
EndChar
StartChar: uni0E34
Encoding: 260 3636 276
Width: 0
VWidth: 1333
Flags: HW
HStem: 587 72<-298 61>
VStem: -361 437<587 659>
AnchorPoint: "AboveMark" 59.417 750 basemark 0
AnchorPoint: "AboveBase" 56.7324 568 mark 0
Fore
-361 587 m 1
 -298 659 l 1
 76 659 l 1
 61 587 l 1
 -361 587 l 1
EndSplineSet
LCarets2: 1 0 
EndChar
StartChar: uni0E35
Encoding: 261 3637 277
Width: 0
VWidth: 1333
Flags: HW
HStem: 587 72<-298 4>
VStem: -361 448<587 711>
AnchorPoint: "AboveMark" 59.417 750 basemark 0
AnchorPoint: "AboveBase" 56.7324 568 mark 0
Fore
4 659 m 1
 15 711 l 1
 87 711 l 1
 61 587 l 1
 -361 587 l 1
 -298 659 l 1
 4 659 l 1
EndSplineSet
LCarets2: 1 0 
EndChar
StartChar: uni0E36
Encoding: 262 3638 278
Width: 0
VWidth: 1333
Flags: HW
HStem: 587 72<-297 -37> 587 46<15.2 63.3> 696 45<26.9 68.5>
VStem: -37 47<657.562 682.2> 74 46<646 680>
AnchorPoint: "AboveMark" 59.417 750 basemark 0
AnchorPoint: "AboveBase" 56.7324 568 mark 0
Fore
49 696 m 0x78
 32 696 10 681 10 659 c 0xb8
 10 644 20 633 36 633 c 0
 57 633 74 652 74 672 c 0
 74 686 64 696 49 696 c 0x78
120 680 m 0
 120 628 68 587 25 587 c 2
 -360 587 l 1x78
 -297 659 l 1
 -37 659 l 1
 -37 660 -36 662 -36 664 c 1
 -27 706 16 741 58 741 c 0
 95 741 120 715 120 680 c 0
EndSplineSet
EndChar
StartChar: uni0E37
Encoding: 263 3639 279
Width: 0
VWidth: 1333
Flags: HW
HStem: 587 124<-85 -24 15 61> 587 72<-298 -96 -24 4>
VStem: -361 448<587 711>
AnchorPoint: "AboveMark" 9.41699 750 basemark 0
AnchorPoint: "AboveBase" 56.7324 568 mark 0
Fore
4 659 m 1x60
 15 711 l 1
 87 711 l 1
 61 587 l 1xa0
 -361 587 l 1
 -298 659 l 1
 -96 659 l 1x60
 -85 711 l 1
 -13 711 l 1xa0
 -24 659 l 1
 4 659 l 1x60
EndSplineSet
EndChar
StartChar: uni0E38
Encoding: 264 3640 280
Width: 0
VWidth: 1333
Flags: HW
VStem: -214 141<-112 -40>
AnchorPoint: "BelowBase" -70.377 -30 mark 0
Fore
-214 -112 m 1
 -175 -40 l 1
 -73 -40 l 1
 -112 -228 l 1
 -184 -228 l 1
 -160 -112 l 1
 -214 -112 l 1
EndSplineSet
EndChar
StartChar: uni0E39
Encoding: 265 3641 281
Width: 0
VWidth: 1333
Flags: HW
HStem: -235 72<-249.9 -184.9>
VStem: -334 74<-152.9 -110.243>
AnchorPoint: "BelowBase" -70.377 -30 mark 0
Fore
-373 -112 m 1
 -334 -40 l 1
 -244 -40 l 1
 -259 -113 l 2
 -260 -117 -260 -120 -260 -123 c 0
 -260 -146 -243 -163 -220 -163 c 0
 -193 -163 -166 -140 -160 -113 c 2
 -145 -40 l 1
 -73 -40 l 1
 -88 -113 l 2
 -102 -181 -168 -235 -235 -235 c 0
 -294 -235 -334 -194 -334 -139 c 0
 -334 -130 -333 -122 -331 -113 c 1
 -331 -112 l 1
 -373 -112 l 1
EndSplineSet
EndChar
StartChar: uni0E3A
Encoding: 266 3642 282
Width: 0
VWidth: 1333
Flags: HW
HStem: -131 99<-152.5 -85.1>
VStem: -167 100<-108.7 -56.9>
AnchorPoint: "BelowBase" -70.377 -30 mark 0
Fore
-167 -92 m 0
 -167 -65 -142 -32 -107 -32 c 0
 -84 -32 -67 -49 -67 -71 c 0
 -67 -100 -95 -131 -128 -131 c 0
 -151 -131 -167 -115 -167 -92 c 0
EndSplineSet
EndChar
StartChar: uni0E3F
Encoding: 267 3647 283
Width: 579
VWidth: 1286
Flags: HW
HStem: 0 69<149 191 277 444.9> 335 68<220 262 348 388> 598 69<262 318 404 446>
VStem: 511 72<115.5 304> 524 73<450.4 573.2>
Fore
583 240 m 0xf0
 583 120 456 0 310 0 c 2
 263 0 l 1
 250 -59 l 1
 178 -59 l 1
 191 0 l 1
 64 0 l 1
 206 667 l 1
 332 667 l 1
 345 725 l 1
 417 725 l 1
 404 667 l 1
 446 667 l 2
 534 667 597 609 597 531 c 0xe8
 597 469 559 412 505 375 c 1
 553 347 583 298 583 240 c 0xf0
524 516 m 0
 524 560 487 598 429 598 c 2
 390 598 l 1
 348 403 l 1
 388 403 l 2
 460 406 524 458 524 516 c 0
324 69 m 2
 417 69 511 141 511 226 c 0xf0
 511 286 460 335 381 335 c 2
 334 335 l 1
 277 69 l 1
 324 69 l 2
276 403 m 1
 318 598 l 1
 262 598 l 1
 220 403 l 1
 276 403 l 1
262 335 m 1
 206 335 l 1
 149 69 l 1
 205 69 l 1
 262 335 l 1
EndSplineSet
EndChar
StartChar: uni0E40
Encoding: 268 3648 284
Width: 197
VWidth: 1273
Flags: HW
HStem: 0 21G<64 135>
VStem: 64 184<0 534>
Fore
135 0 m 1
 64 0 l 1
 177 534 l 1
 248 534 l 1
 135 0 l 1
EndSplineSet
EndChar
StartChar: uni0E41
Encoding: 269 3649 285
Width: 315
VWidth: 1273
Flags: HW
HStem: 0 21G<64 135 182 252>
VStem: 64 302<0 534>
Fore
135 0 m 1
 64 0 l 1
 177 534 l 1
 248 534 l 1
 135 0 l 1
252 0 m 1
 182 0 l 1
 295 534 l 1
 366 534 l 1
 252 0 l 1
EndSplineSet
EndChar
StartChar: uni0E42
Encoding: 270 3650 286
Width: 218
VWidth: 1279
Flags: HW
HStem: 0 21G<85 185> 706 68<151 211.7 263 443>
VStem: 212 71<576.359 667.898>
Fore
223 68 m 1
 185 0 l 1
 85 0 l 1
 207 572 l 2
 210 588 212 605 212 621 c 0
 212 667 194 706 135 706 c 2
 113 706 l 1
 151 774 l 1
 481 774 l 1
 443 706 l 1
 263 706 l 1
 276 684 283 655 283 624 c 0
 283 607 281 589 277 572 c 2
 170 68 l 1
 223 68 l 1
EndSplineSet
EndChar
StartChar: uni0E43
Encoding: 271 3651 287
Width: 234
VWidth: 1279
Flags: HW
HStem: 0 21G<101 196> 712 69<198.6 297.4>
VStem: 305 74<630.3 686.2>
Fore
234 68 m 1
 196 0 l 1
 101 0 l 1
 212 524 l 2
 234 625 305 639 305 668 c 0
 305 682 286 712 248 712 c 0
 210 712 179 685 175 667 c 0
 173 657 172 650 172 650 c 1
 101 650 l 1
 105 667 l 2
 118 727 192 781 262 781 c 0
 327 781 379 735 379 682 c 0
 379 607 300 600 284 525 c 2
 186 68 l 1
 234 68 l 1
EndSplineSet
EndChar
StartChar: uni0E44
Encoding: 272 3652 288
Width: 219
VWidth: 1281
Flags: HW
HStem: 0 21G<86 183>
VStem: 86 310<0 775>
Fore
221 68 m 1
 183 0 l 1
 86 0 l 1
 210 585 l 2
 221 637 252 677 283 707 c 1
 250 707 l 1
 183 638 l 1
 114 713 l 1
 134 805 l 1
 198 738 l 1
 232 775 l 1
 396 775 l 1
 385 719 l 1
 342 690 295 654 280 584 c 2
 171 68 l 1
 221 68 l 1
EndSplineSet
EndChar
StartChar: uni0E45
Encoding: 273 3653 289
Width: 405
VWidth: 1267
Flags: HW
HStem: 466 68<220.3 346.7>
VStem: 348 72<342.38 441.8>
Fore
154 485 m 1
 188 508 235 534 284 534 c 0
 381 534 420 474 420 394 c 0
 420 375 418 354 413 332 c 2
 300 -197 l 1
 230 -197 l 1
 342 332 l 2
 346 349 348 366 348 382 c 0
 348 428 329 466 270 466 c 0
 222 466 166 423 136 402 c 1
 154 485 l 1
EndSplineSet
EndChar
StartChar: uni0E46
Encoding: 274 3654 290
Width: 534
VWidth: 1267
Flags: HW
HStem: 239 68<201.3 284.4> 385 70<322.6 395.4>
VStem: 128 69<322.3 401.6> 479 73<358.33 413.386>
Fore
246 447 m 1
 216 428 197 392 197 360 c 0
 197 331 213 307 252 307 c 0
 270 307 286 310 300 313 c 1
 303 248 l 1
 277 242 263 239 239 239 c 0
 163 239 128 288 128 346 c 0
 128 415 176 495 261 526 c 2
 289 537 l 1
 301 514 l 2
 310 494 331 455 359 455 c 0
 387 455 424 494 442 514 c 2
 467 544 l 1
 494 523 l 2
 530 494 552 449 552 398 c 0
 552 385 550 371 547 357 c 2
 430 -197 l 1
 359 -197 l 1
 476 355 l 2
 478 364 479 372 479 380 c 0
 479 404 472 425 460 442 c 1
 425 410 385 385 343 385 c 0
 298 385 268 412 246 447 c 1
EndSplineSet
EndChar
StartChar: uni0E47
Encoding: 275 3655 291
Width: 0
VWidth: 1333
Flags: HW
HStem: 577 59<-23.3976 27.9135> 723 58<-226.3 112>
VStem: -298 64<657.2 701.4>
AnchorPoint: "AboveMark" -134.268 568 mark 0
AnchorPoint: "AboveBase" 56.7324 568 mark 0
Fore
-173 723 m 2
 -214 723 -234 696 -234 678 c 0
 -234 662 -223 648 -199 646 c 1
 -111 695 l 1
 -26 642 l 1
 -16 638 -7 636 3 636 c 0
 18 636 35 641 54 646 c 1
 70 593 l 1
 40 584 14 577 -11 577 c 0
 -31 577 -50 581 -67 591 c 2
 -122 625 l 1
 -190 587 l 1
 -200 587 l 2
 -249 587 -298 615 -298 666 c 0
 -298 727 -230 781 -159 781 c 2
 148 781 l 1
 112 723 l 1
 -173 723 l 2
EndSplineSet
EndChar
StartChar: uni0E48
Encoding: 276 3656 292
Width: 0
VWidth: 1333
Flags: HW
VStem: 26 102<763 904>
AnchorPoint: "AboveMark" 59.417 750 mark 0
Fore
98 763 m 1
 26 763 l 1
 56 904 l 1
 128 904 l 1
 98 763 l 1
EndSplineSet
MultipleSubs2: "Multiple Substitution lookup 5" uni0E4D uni0E48
Substitution2: "Single Substitution lookup 4" uni0E48.low
EndChar
StartChar: uni0E49
Encoding: 277 3657 293
Width: 0
VWidth: 1333
Flags: HW
HStem: 763 72<33 170>
VStem: -100 309<831 835>
AnchorPoint: "AboveMark" 59.417 750 mark 0
Fore
-100 831 m 1
 -61 903 l 1
 -28 903 l 2
 19 903 34 873 34 848 c 0
 34 843 34 839 33 835 c 1
 209 835 l 1
 170 763 l 1
 -54 763 l 1
 -40 827 l 2
 -39 831 -42 830 -44 831 c 1
 -100 831 l 1
EndSplineSet
MultipleSubs2: "Multiple Substitution lookup 5" uni0E4D uni0E49
Substitution2: "Single Substitution lookup 4" uni0E49.low
EndChar
StartChar: uni0E4A
Encoding: 278 3658 294
Width: 0
VWidth: 1333
Flags: HW
HStem: 763 72<-37.2 -10 224 322> 861 72<-48.6 55.4>
VStem: -103 464<830 835>
AnchorPoint: "AboveMark" 59.417 750 mark 0
Fore
-103 830 m 0
 -103 872 -64 933 19 933 c 0
 71 933 94 905 105 879 c 1
 172 921 l 1
 243 921 l 1
 224 835 l 1
 361 835 l 1
 322 763 l 1
 137 763 l 1
 152 832 l 1
 50 767 l 1
 49 789 l 2
 46 825 44 861 6 861 c 0
 -36 861 -33 836 -19 836 c 2
 6 836 l 1
 -10 764 l 1
 -35 764 l 2
 -79 764 -103 794 -103 830 c 0
EndSplineSet
MultipleSubs2: "Multiple Substitution lookup 5" uni0E4D uni0E4A
Substitution2: "Single Substitution lookup 4" uni0E4A.low
EndChar
StartChar: uni0E4B
Encoding: 279 3659 295
Width: 0
VWidth: 1333
Flags: HW
HStem: 804 69<11 35 122 146>
VStem: -4 165<804 875>
AnchorPoint: "AboveMark" 59.417 750 mark 0
Fore
-4 804 m 1
 11 873 l 1
 50 873 l 1
 58 915 l 1
 130 915 l 1
 122 875 l 1
 161 875 l 1
 146 803 l 1
 107 803 l 1
 98 763 l 1
 26 763 l 1
 35 804 l 1
 -4 804 l 1
EndSplineSet
MultipleSubs2: "Multiple Substitution lookup 5" uni0E4D uni0E4B
Substitution2: "Single Substitution lookup 4" uni0E4B.low
EndChar
StartChar: uni0E4C
Encoding: 280 3660 296
Width: 0
VWidth: 1333
Flags: HW
HStem: 812 72<108 193>
VStem: 26 206<763 884>
AnchorPoint: "AboveMark" 59.417 750 mark 0
Fore
232 884 m 1
 193 812 l 1
 113 812 l 2
 108 811 109 812 108 808 c 2
 98 763 l 1
 26 763 l 1
 36 808 l 2
 41 835 67 884 128 884 c 2
 232 884 l 1
EndSplineSet
MultipleSubs2: "Multiple Substitution lookup 5" uni0E4D uni0E4C
Substitution2: "Single Substitution lookup 4" uni0E4C.low
EndChar
StartChar: uni0E4D
Encoding: 281 3661 297
Width: 0
VWidth: 1333
Flags: HMW
HStem: 572 52<14.5 66.5> 675 52<20.6 63.5>
VStem: -40 53<628.981 663.8> 66 53<651 660>
AnchorPoint: "AboveMark" 60.417 750 basemark 0
AnchorPoint: "AboveBase" 82.7324 568 mark 0
Fore
119 665 m 0
 119 616 71 572 23 572 c 0
 -14 572 -40 599 -40 633 c 0
 -40 682 8 727 56 727 c 0
 93 727 119 700 119 665 c 0
44 675 m 0
 26 675 13 659 13 643 c 0
 13 633 19 624 34 624 c 0
 59 624 66 647 66 655 c 0
 66 665 59 675 44 675 c 0
EndSplineSet
Substitution2: "Single Substitution lookup 3" uni0E4D.high
LCarets2: 1 0 
EndChar
StartChar: uni0E4E
Encoding: 282 3662 298
Width: 0
VWidth: 1333
Flags: HW
HStem: 636 63<-142.6 -89.8459> 940 65<5.6 158.835>
VStem: -100 68<860.1 912.1>
AnchorPoint: "AboveBase" 56.7324 568 mark 0
Fore
-220 706 m 0
 -220 758 -178 813 -96 838 c 1
 -99 845 -100 853 -100 861 c 0
 -100 927 -11 1005 122 1005 c 0
 150 1005 170 1002 190 999 c 1
 167 934 l 1
 148 937 131 940 107 940 c 0
 29 940 -32 904 -32 877 c 0
 -32 864 -19 853 12 849 c 2
 78 849 l 1
 2 784 l 1
 -17 784 l 2
 -141 784 -154 727 -154 720 c 0
 -154 712 -136 699 -114 699 c 0
 -98 699 -80 705 -65 724 c 1
 -16 692 l 1
 -32 673 -60 636 -126 636 c 0
 -177 636 -220 662 -220 706 c 0
EndSplineSet
EndChar
StartChar: uni0E4F
Encoding: 283 3663 299
Width: 679
VWidth: 1333
Flags: HW
HStem: -21 73<214.8 520.3> 112 73<328.3 453.1> 351 73<340.9 465.7> 484 73<269.1 577.2>
VStem: 101 74<95.6 403.7> 238 74<201.6 312.1> 482 74<223.9 334.4> 617 76<131 439.1>
Fore
693 329 m 0
 693 150 522 -21 336 -21 c 0
 197 -21 101 77 101 207 c 0
 101 386 272 557 458 557 c 0
 597 557 693 459 693 329 c 0
442 484 m 0
 309 484 175 362 175 223 c 0
 175 125 246 52 350 52 c 0
 481 52 617 173 617 313 c 0
 617 410 546 484 442 484 c 0
238 236 m 0
 238 335 333 424 430 424 c 0
 505 424 556 371 556 300 c 0
 556 201 461 112 364 112 c 0
 289 112 238 165 238 236 c 0
379 185 m 0
 436 185 482 238 482 285 c 0
 482 323 454 351 415 351 c 0
 358 351 312 298 312 251 c 0
 312 213 340 185 379 185 c 0
EndSplineSet
EndChar
StartChar: uni0E50
Encoding: 284 3664 300
Width: 586
VWidth: 1333
Flags: HW
HStem: -7 72<178.4 470.9> 407 72<224.1 516.6>
VStem: 68 74<104.3 344.8> 553 74<127.2 367.7>
Fore
627 283 m 0
 627 130 469 -7 296 -7 c 0
 164 -7 68 74 68 189 c 0
 68 342 226 479 399 479 c 0
 531 479 627 398 627 283 c 0
384 407 m 0
 261 407 142 313 142 207 c 0
 142 128 209 65 311 65 c 0
 434 65 553 159 553 265 c 0
 553 344 486 407 384 407 c 0
EndSplineSet
EndChar
StartChar: uni0E51
Encoding: 285 3665 301
Width: 586
VWidth: 1333
Flags: HW
HStem: -56 71<280 445> 43 72<171.7 351.1> 407 72<212.4 515.3>
VStem: 68 74<134.6 333.5> 553 73<125.9 371.6>
Fore
384 407 m 0
 252 407 142 305 142 210 c 0
 142 152 190 115 251 115 c 0
 328 115 378 171 396 189 c 1
 444 146 l 1
 421 122 348 43 236 43 c 0
 143 43 68 102 68 195 c 0
 68 334 219 479 399 479 c 0
 529 479 626 399 626 281 c 0
 626 132 480 -56 280 -56 c 2
 264 -56 l 1
 280 15 l 1
 296 15 l 2
 445 15 553 158 553 265 c 0
 553 347 485 407 384 407 c 0
EndSplineSet
EndChar
StartChar: uni0E52
Encoding: 286 3666 302
Width: 653
VWidth: 1333
Flags: HW
HStem: 0 72<229 525.5> 107 72<309.7 351> 405 72<334.6 436 534.9 620>
VStem: 114 73<98.8 216.383> 182 75<502.951 551.938> 229 74<196.4 348.5> 620 73<313.627 391>
Fore
229 236 m 0xf6
 229 342 302 477 412 477 c 0
 437 477 473 470 493 433 c 1
 515 454 549 477 596 477 c 0
 655 477 693 439 693 364 c 0
 693 346 691 325 686 303 c 2
 667 215 l 2
 642 99 535 0 424 0 c 2
 269 0 l 2
 174 0 114 72 114 166 c 0xf6
 114 182 115 198 119 215 c 2
 176 483 l 2
 180 504 182 520 182 530 c 0
 182 542 180 547 177 549 c 2
 164 556 l 1
 206 622 l 1
 220 616 l 2
 249 603 257 573 257 545 c 0xea
 257 520 251 496 248 484 c 2
 191 216 l 2
 189 204 187 193 187 182 c 0
 187 118 229 72 286 72 c 2
 441 72 l 2
 506 72 578 134 595 216 c 2
 614 304 l 2
 617 319 620 337 620 352 c 0
 620 382 611 407 581 407 c 0
 535 407 513 349 503 304 c 2
 487 227 l 1
 415 227 l 1
 431 303 l 2
 434 318 436 334 436 350 c 0
 436 380 427 405 397 405 c 0
 349 405 303 326 303 251 c 0
 303 209 319 179 350 179 c 2
 366 179 l 1
 351 107 l 1
 335 107 l 2
 267 107 229 160 229 236 c 0xf6
EndSplineSet
EndChar
StartChar: uni0E53
Encoding: 287 3667 303
Width: 633
VWidth: 1333
Flags: HW
HStem: 0 72<175.7 229> 407 72<208.3 357.8 481.8 581.8>
VStem: 94 73<94.3 304.9> 581 74<310.269 388.5>
Fore
94 157 m 0
 94 290 180 479 315 479 c 0
 359 479 396 462 416 427 c 1
 451 462 495 479 539 479 c 0
 604 479 655 442 655 358 c 0
 655 342 653 324 649 304 c 2
 584 0 l 1
 512 0 l 1
 577 304 l 2
 580 317 581 330 581 343 c 0
 581 378 568 407 522 407 c 0
 461 407 435 354 425 304 c 2
 360 0 l 1
 288 0 l 1
 353 304 l 2
 356 317 357 330 357 343 c 0
 357 378 344 407 298 407 c 0
 229 407 167 274 167 171 c 0
 167 112 188 72 229 72 c 2
 245 72 l 1
 229 0 l 1
 213 0 l 2
 125 0 94 75 94 157 c 0
EndSplineSet
EndChar
StartChar: uni0E54
Encoding: 288 3668 304
Width: 641
VWidth: 1333
Flags: HW
HStem: -7 72<196.3 350.573> 12 71<434.516 538.64> 207 72<412.5 487> 397 71<530.907 660.2> 408 71<253.6 499.3>
VStem: 95 73<110.9 360.5> 323 74<119.4 194.8>
Fore
471 207 m 2xae
 426 207 397 184 397 148 c 0
 397 126 410 98 448 80 c 1
 463 81 480 83 496 83 c 0
 564 83 605 67 627 56 c 2
 640 49 l 1
 595 -16 l 1
 582 -9 l 2
 556 6 521 12 483 12 c 0x66
 411 12 371 -7 311 -7 c 0
 178 -7 95 84 95 195 c 0
 95 364 272 479 424 479 c 0xae
 502 479 546 468 577 468 c 0
 641 468 685 501 704 588 c 2
 707 604 l 1
 778 604 l 1
 774 588 l 2
 743 439 643 397 560 397 c 0x36
 517 397 478 408 407 408 c 0
 289 408 168 326 168 211 c 0
 168 134 226 65 325 65 c 0
 331 65 338 66 345 66 c 1
 331 88 323 111 323 136 c 0
 323 198 378 279 486 279 c 2
 502 279 l 1
 487 207 l 1
 471 207 l 2xae
EndSplineSet
EndChar
StartChar: uni0E55
Encoding: 289 3669 305
Width: 641
VWidth: 1333
Flags: HW
HStem: -7 72<196.3 350.573> 12 71<434.516 538.64> 207 72<412.5 487> 397 71<522.133 660.2> 408 61<407 463.7> 529 64<426 470.2>
VStem: 95 73<110.9 344.5> 323 74<119.4 194.8>
Fore
452 529 m 0x2f
 432 529 415 511 415 494 c 0
 415 480 425 469 439 469 c 0
 458 469 476 487 476 506 c 0
 476 519 466 529 452 529 c 0x2f
471 207 m 2
 426 207 397 184 397 148 c 0
 397 126 410 98 448 80 c 1
 463 81 480 83 496 83 c 0
 564 83 605 67 627 56 c 2
 640 49 l 1
 595 -16 l 1
 582 -9 l 2
 556 6 521 12 483 12 c 0x67
 411 12 371 -7 311 -7 c 0
 178 -7 95 84 95 195 c 0
 95 310 187 431 344 469 c 1xaf
 334 520 390 593 465 593 c 0
 512 593 547 563 547 518 c 0
 547 499 541 483 534 471 c 1
 551 469 565 468 577 468 c 0
 641 468 685 501 704 588 c 2
 707 604 l 1
 778 604 l 1
 774 588 l 2
 743 439 643 397 560 397 c 0x37
 521 397 476 408 407 408 c 0
 289 408 168 326 168 211 c 0
 168 134 226 65 325 65 c 0xaf
 331 65 338 66 345 66 c 1
 331 88 323 111 323 136 c 0
 323 198 378 279 486 279 c 2
 502 279 l 1
 487 207 l 1
 471 207 l 2
EndSplineSet
EndChar
StartChar: uni0E56
Encoding: 290 3670 306
Width: 586
VWidth: 1333
Flags: HW
HStem: -7 72<169.7 471.3> 209 70<194 266> 409 70<333.1 519.6>
VStem: 96 74<105.8 185.1> 556 74<125.6 367.4>
Fore
314 65 m 0
 435 65 556 158 556 266 c 0
 556 344 489 409 387 409 c 0
 249 409 163 339 134 308 c 1
 141 339 144 367 144 391 c 0
 144 522 56 546 53 547 c 1
 85 617 l 1
 176 594 211 506 219 439 c 1
 278 466 349 479 402 479 c 0
 533 479 630 397 630 282 c 0
 630 134 475 -7 299 -7 c 0
 168 -7 96 58 96 134 c 0
 96 203 158 279 265 279 c 2
 281 279 l 1
 266 209 l 1
 250 209 l 2
 194 209 170 177 170 150 c 0
 170 116 203 65 314 65 c 0
EndSplineSet
EndChar
StartChar: uni0E57
Encoding: 291 3671 307
Width: 681
VWidth: 1333
Flags: HW
HStem: 0 72<162.9 212 398 481.5> 407 73<200.1 329.2 434.3 518.7>
VStem: 82 73<96.6 313.7> 525 75<213.7 383.6>
Fore
82 157 m 0
 82 298 168 480 298 480 c 0
 322 480 367 475 392 433 c 1
 414 456 449 480 498 480 c 0
 564 480 600 422 600 332 c 0
 600 241 566 144 529 89 c 1
 578 111 610 158 627 241 c 2
 679 484 l 2
 685 511 699 591 766 616 c 2
 783 622 l 1
 795 555 l 1
 779 549 l 2
 770 545 760 526 751 484 c 2
 699 241 l 2
 658 48 540 1 425 0 c 2
 359 0 l 1
 398 72 l 1
 410 72 l 2
 465 72 525 210 525 316 c 0
 525 368 510 407 481 407 c 0
 434 407 412 357 405 324 c 2
 373 175 l 1
 301 175 l 1
 333 323 l 2
 335 332 336 341 336 350 c 0
 336 379 324 407 282 407 c 0
 219 407 155 281 155 172 c 0
 155 114 174 72 211 72 c 2
 227 72 l 1
 212 0 l 1
 196 0 l 2
 122 0 82 63 82 157 c 0
EndSplineSet
EndChar
StartChar: uni0E58
Encoding: 292 3672 308
Width: 641
VWidth: 1333
Flags: HW
HStem: -7 72<426.4 565.5> 396 72<531.953 661.2> 407 72<269.9 502.6>
VStem: 94 74<112.8 379.3>
Fore
409 407 m 0xb0
 302 407 168 337 168 196 c 0
 168 132 199 80 268 68 c 1
 335 180 l 1
 395 180 l 1
 403 104 439 65 481 65 c 0
 546 65 572 96 582 143 c 2
 586 159 l 1
 659 159 l 1
 656 143 l 2
 635 44 559 -7 467 -7 c 0
 414 -7 370 24 345 73 c 1
 297 -8 l 1
 286 -8 l 2
 133 -2 94 96 94 181 c 0
 94 370 274 479 426 479 c 0xb0
 503 479 547 468 578 468 c 0
 642 468 686 501 705 588 c 2
 708 604 l 1
 780 604 l 1
 777 588 l 2
 744 434 641 396 563 396 c 0xd0
 520 396 481 407 409 407 c 0xb0
EndSplineSet
EndChar
StartChar: uni0E59
Encoding: 293 3673 309
Width: 615
VWidth: 1333
Flags: HW
HStem: -5 72<176.3 332.3> 412 72<223.8 406.5 530.6 585.2>
VStem: 70 73<88 362.3> 446 74<-2 168.448> 451 74<16.4937 282.1> 669 74<557.692 642.089>
Fore
70 182 m 0xec
 70 348 210 484 335 484 c 0
 390 484 432 465 463 425 c 1
 498 467 536 483 568 483 c 0
 592 483 612 474 626 461 c 1
 651 507 666 574 669 628 c 1
 743 638 l 1
 726 459 670 395 599 329 c 1
 599 364 589 411 554 411 c 0
 536 411 520 396 498 358 c 1
 513 313 525 250 525 143 c 0xec
 525 105 523 60 520 8 c 1
 446 -2 l 1xf4
 449 44 451 89 451 131 c 0
 451 294 422 412 320 412 c 0
 246 412 143 323 143 192 c 0
 143 112 188 67 227 67 c 0
 308 67 323 115 334 164 c 1
 408 164 l 1
 388 71 340 -5 214 -5 c 0
 131 -5 70 76 70 182 c 0xec
EndSplineSet
EndChar
StartChar: uni0E5A
Encoding: 294 3674 310
Width: 631
VWidth: 1333
Flags: HW
HStem: 327 72<243.633 368.9> 484 72<202.1 325>
VStem: 141 72<402.7 444.336>
Fore
493 -16 m 1
 613 549 l 1
 685 549 l 1
 565 -16 l 1
 493 -16 l 1
310 484 m 1
 227 484 213 441 213 430 c 0
 213 409 253 399 275 399 c 0
 364 399 476 488 506 549 c 1
 574 549 l 1
 454 -16 l 1
 383 -16 l 1
 475 417 l 1
 422 373 344 327 261 327 c 0
 194 327 141 362 141 416 c 0
 141 460 187 556 325 556 c 1
 310 484 l 1
EndSplineSet
EndChar
StartChar: uni0E5B
Encoding: 295 3675 311
Width: 1199
VWidth: 1333
Flags: HW
HStem: -21 72<193.2 373.9> 156 61<277.9 329.9> 225 59<1122.6 1191.2> 247 72<1010.64 1087.4> 319 61<289.8 343.1> 485 72<213.8 376.3>
VStem: 72 71<60.5 371.2> 210 61<226.7 295.6> 386 77<352.53 464.9>
Fore
321 319 m 0xcf80
 297 319 271 286 271 254 c 0
 271 233 283 217 300 217 c 0
 323 217 350 247 350 282 c 0
 350 303 338 319 321 319 c 0xcf80
1254 276 m 0
 1254 245 1184 225 1160 225 c 0xef80
 1109 225 1076 247 1038 247 c 0
 989 247 955 220 938 220 c 0
 917 220 911 236 908 243 c 1
 871 169 l 2
 859 148 844 139 831 139 c 0
 817 139 805 150 803 167 c 2
 794 235 l 1
 747 135 l 2
 735 112 719 102 706 102 c 0
 690 102 678 115 678 134 c 2
 672 243 l 1
 611 98 l 2
 598 73 583 63 571 63 c 0
 555 63 543 78 541 97 c 2
 533 230 l 1
 477 87 387 -21 241 -21 c 0
 154 -21 72 50 72 183 c 0
 72 338 187 557 338 557 c 0
 418 557 463 498 463 409 c 0
 463 295 392 156 286 156 c 0
 236 156 210 195 210 241 c 0
 210 309 267 380 334 380 c 0
 354 380 371 373 383 362 c 1
 385 374 386 385 386 396 c 0
 386 449 364 485 323 485 c 0
 239 485 143 331 143 197 c 0
 143 92 207 51 253 51 c 0
 346 51 447 111 511 408 c 2
 519 445 l 2
 524 473 548 484 562 484 c 0
 583 484 590 467 591 456 c 2
 603 261 l 1
 664 407 l 2
 674 430 692 439 706 439 c 0
 721 439 736 430 735 406 c 2
 743 287 l 1
 782 371 l 2
 796 395 810 404 822 404 c 0
 837 404 848 390 850 373 c 2
 861 298 l 1
 880 337 l 2
 887 350 898 374 919 374 c 1
 926 372 935 375 947 347 c 2
 968 302 l 1
 1001 314 1029 319 1053 319 c 0xdf80
 1107 319 1134 284 1172 284 c 0xef80
 1197 284 1223 293 1236 293 c 1
 1250 290 1254 283 1254 276 c 0
EndSplineSet
EndChar
StartChar: Euro
Encoding: 313 8364 313
Width: 555
VWidth: 1333
Flags: HW
HStem: -6 69<242.1 403.3> 224 69<86 116 188 502> 377 68<118 135 235 534> 607 68<358.1 518>
Fore
118 293 m 1
 119 310 128 352 135 377 c 1
 80 377 l 1
 118 445 l 1
 163 445 l 1
 229 576 353 675 482 675 c 0
 544 675 591 651 625 620 c 2
 635 611 l 1
 579 555 l 1
 569 565 l 2
 541 591 506 607 466 607 c 0
 383 607 291 543 235 445 c 1
 572 445 l 1
 534 377 l 1
 204 377 l 1
 197 352 190 327 187 293 c 1
 540 293 l 1
 502 224 l 1
 188 224 l 1
 202 126 267 63 350 63 c 0
 391 63 432 76 470 102 c 2
 484 112 l 1
 518 58 l 1
 503 49 l 2
 446 11 389 -6 337 -6 c 0
 220 -6 128 82 116 224 c 1
 48 224 l 1
 86 293 l 1
 118 293 l 1
EndSplineSet
EndChar
StartChar: uni25CC
Encoding: 315 9676 314
Width: 621
VWidth: 1333
Flags: HW
HStem: -16 85<295.8 345.4> 51 85<151.1 192.9 449 500.2> 197 86<127.8 173.5 551.8 597.5> 331 85<203.6 253.2 515.8 558.9> 411 85<380.6 430.2>
VStem: 106 87<213.9 268.7> 128 87<61.7 124.3> 188 87<343 396.5> 274 87<3.5 57> 365 87<423 476.5> 435 87<63 115.2> 494 88<343 402.7> 530 87<213.9 268.7>
Fore
435 84 m 0x6020
 435 108 458 136 488 136 c 0
 508 136 522 122 522 102 c 0
 522 72 493 51 469 51 c 0
 449 51 435 65 435 84 c 0x6020
128 84 m 0x62
 128 115 158 136 181 136 c 0
 201 136 215 122 215 102 c 0
 215 71 186 51 163 51 c 0
 142 51 128 65 128 84 c 0x62
494 365 m 0x3010
 494 394 523 416 547 416 c 0
 567 416 582 401 582 382 c 0
 582 352 552 331 529 331 c 0
 509 331 494 346 494 365 c 0x3010
274 18 m 0xa080
 274 48 303 69 327 69 c 0
 347 69 361 55 361 36 c 0
 361 11 337 -16 309 -16 c 0
 288 -16 274 -2 274 18 c 0xa080
188 364 m 0x31
 188 389 212 416 240 416 c 0
 261 416 275 402 275 382 c 0
 275 352 246 331 222 331 c 0
 202 331 188 345 188 364 c 0x31
106 231 m 0x24
 106 260 135 283 159 283 c 0
 179 283 193 268 193 249 c 0
 193 222 166 197 141 197 c 0
 120 197 106 212 106 231 c 0x24
365 444 m 0x2840
 365 469 389 496 417 496 c 0
 438 496 452 482 452 462 c 0
 452 432 423 411 399 411 c 0
 379 411 365 425 365 444 c 0x2840
530 231 m 0x2008
 530 260 559 283 583 283 c 0
 603 283 617 268 617 249 c 0
 617 222 590 197 565 197 c 0
 544 197 530 212 530 231 c 0x2008
EndSplineSet
EndChar
StartChar: uni0E10.descless
Encoding: 316 63232 315
Width: 534
VWidth: 1333
Flags: HW
HStem: 0 21G<401 471> 233 68<327 450> 472 68<260.9 431.9>
VStem: 476 72<338.502 417.7>
Fore
473 337 m 2
 475 346 476 355 476 364 c 0
 476 426 430 472 361 472 c 0
 284 472 209 412 193 337 c 9
 122 337 l 17
 146 449 260 540 376 540 c 0
 419 540 455 528 484 507 c 1
 545 541 l 1
 573 484 l 1
 527 459 l 1
 541 436 548 409 548 380 c 0
 548 366 546 352 543 337 c 2
 471 0 l 1
 401 0 l 1
 450 233 l 1
 289 233 l 1
 327 301 l 1
 465 301 l 1
 473 337 l 2
EndSplineSet
EndChar
StartChar: uni0E34.left
Encoding: 317 63233 316
Width: 0
VWidth: 1333
Flags: HW
HStem: 587 72<-414 -47>
VStem: -477 445<587 659>
Fore
-32 659 m 1
 -47 587 l 1
 -477 587 l 1
 -414 659 l 1
 -32 659 l 1
EndSplineSet
EndChar
StartChar: uni0E35.left
Encoding: 318 63234 317
Width: 0
VWidth: 1333
Flags: HW
HStem: 587 72<-414 -104>
VStem: -477 456<587 711>
Fore
-104 659 m 5
 -93 711 l 5
 -21 711 l 5
 -47 587 l 5
 -477 587 l 5
 -414 659 l 5
 -104 659 l 5
EndSplineSet
EndChar
StartChar: uni0E36.left
Encoding: 319 63235 318
Width: 0
VWidth: 1333
Flags: HW
HStem: 587 72<-430 -170> 587 46<-117.5 -70.7> 696 45<-107.1 -64.2>
VStem: -59 46<647.3 690.2>
Fore
-85 696 m 0x70
 -102 696 -123 681 -123 659 c 0xb0
 -123 644 -113 633 -98 633 c 0
 -77 633 -59 653 -59 672 c 0
 -59 686 -69 696 -85 696 c 0x70
-13 680 m 0
 -13 637 -56 587 -109 587 c 2
 -493 587 l 1x70
 -430 659 l 1
 -170 659 l 1
 -170 664 l 1
 -161 706 -118 741 -76 741 c 0
 -39 741 -13 714 -13 680 c 0
EndSplineSet
EndChar
StartChar: uni0E37.left
Encoding: 320 63236 319
Width: 0
VWidth: 1333
Flags: HW
HStem: 587 72<-414 -191 -120 -104> 587 124<-180 -120 -93 -47>
VStem: -477 456<587 711>
Fore
-180 711 m 5x60
 -109 711 l 5x60
 -120 659 l 5
 -104 659 l 5xa0
 -93 711 l 5
 -21 711 l 5
 -47 587 l 5
 -477 587 l 5x60
 -414 659 l 5
 -191 659 l 5xa0
 -180 711 l 5x60
EndSplineSet
EndChar
StartChar: uni0E48.low_left
Encoding: 321 63237 320
Width: 0
VWidth: 1333
Flags: HW
VStem: -159 102<587 728>
Fore
-87 587 m 5
 -159 587 l 5
 -129 728 l 5
 -57 728 l 5
 -87 587 l 5
EndSplineSet
EndChar
StartChar: uni0E49.low_left
Encoding: 322 63238 321
Width: 0
VWidth: 1333
Flags: HW
HStem: 587 72<-218 -81>
VStem: -351 309<655 659>
Fore
-291 651 m 2
 -291 652 -290 653 -290 653 c 1
 -290 655 -291 655 -294 655 c 2
 -351 655 l 1
 -312 727 l 1
 -279 727 l 2
 -230 727 -217 697 -217 671 c 0
 -217 667 -217 663 -218 659 c 1
 -42 659 l 1
 -81 587 l 1
 -305 587 l 1
 -291 651 l 2
EndSplineSet
EndChar
StartChar: uni0E4A.low_left
Encoding: 323 63239 322
Width: 0
VWidth: 1333
Flags: HW
HStem: 587 72<-343.832 -326 -91 7> 685 71<-341.2 -287.9>
Fore
-420 653 m 0
 -420 701 -371 756 -297 756 c 0
 -245 756 -222 728 -212 701 c 1
 -144 744 l 1
 -73 744 l 1
 -91 659 l 1
 46 659 l 1
 7 587 l 1
 -178 587 l 1
 -163 655 l 1
 -279 581 l 1
 -276 638 l 2
 -275 674 -293 685 -310 685 c 0
 -334 685 -343 674 -343 666 c 0
 -343 662 -341 659 -336 659 c 2
 -311 659 l 1
 -326 587 l 1
 -351 587 l 2
 -395 587 -420 618 -420 653 c 0
EndSplineSet
EndChar
StartChar: uni0E4B.low_left
Encoding: 324 63240 323
Width: 0
VWidth: 1333
Flags: HW
HStem: 628 69<-186 -163 -75 -52>
VStem: -201 164<628 699>
Fore
-201 628 m 1
 -186 697 l 1
 -148 697 l 1
 -139 739 l 1
 -67 739 l 1
 -75 699 l 1
 -37 699 l 1
 -52 627 l 1
 -91 627 l 1
 -99 587 l 1
 -171 587 l 1
 -163 628 l 1
 -201 628 l 1
EndSplineSet
EndChar
StartChar: uni0E4C.low_left
Encoding: 325 63241 324
Width: 0
VWidth: 1333
Flags: HW
HStem: 636 72<-135.216 -49>
VStem: -215 205<587 708>
Fore
-129 636 m 2
 -133 635 -133 637 -134 632 c 2
 -143 587 l 1
 -215 587 l 1
 -206 632 l 2
 -200 659 -174 708 -114 708 c 2
 -10 708 l 1
 -49 636 l 1
 -129 636 l 2
EndSplineSet
EndChar
StartChar: uni0E48.low
Encoding: 326 63242 325
Width: 0
VWidth: 1333
Flags: HW
VStem: -11 102<587 728>
AnchorPoint: "AboveBase" 56.7324 568 mark 0
Fore
61 587 m 1
 -11 587 l 1
 19 728 l 1
 91 728 l 1
 61 587 l 1
EndSplineSet
EndChar
StartChar: uni0E49.low
Encoding: 327 63243 326
Width: 0
VWidth: 1333
Flags: HW
HStem: 587 72<-20 143>
VStem: -154 336<655 659>
AnchorPoint: "AboveBase" 145.732 568 mark 0
Fore
-94 651 m 1
 -93 653 -92 655 -97 655 c 2
 -154 655 l 1
 -114 727 l 1
 -81 727 l 2
 -31 727 -19 696 -19 669 c 0
 -19 666 -20 662 -20 659 c 1
 182 659 l 1
 143 587 l 1
 -107 587 l 1
 -94 651 l 1
EndSplineSet
EndChar
StartChar: uni0E4A.low
Encoding: 328 63244 327
Width: 0
VWidth: 1333
Flags: HW
HStem: 587 72<-100.7 -79 155 253> 687 70<-85.1 -40.9>
AnchorPoint: "AboveBase" 195.732 568 mark 0
Fore
-172 654 m 0
 -172 698 -132 757 -50 757 c 0
 2 757 25 729 35 703 c 1
 102 745 l 1
 173 745 l 1
 155 659 l 1
 292 659 l 1
 253 587 l 1
 69 587 l 1
 83 656 l 1
 -31 582 l 1
 -29 640 l 2
 -28 676 -46 687 -63 687 c 0
 -80 687 -96 677 -97 671 c 0
 -98 666 -98 660 -89 660 c 2
 -64 660 l 1
 -79 588 l 1
 -104 588 l 2
 -148 588 -172 618 -172 654 c 0
EndSplineSet
EndChar
StartChar: uni0E4B.low
Encoding: 329 63245 328
Width: 0
VWidth: 1333
Flags: HW
HStem: 628 69<-27 -3 85 108>
VStem: -42 166<628 699>
AnchorPoint: "AboveBase" 86.7324 568 mark 0
Fore
-42 628 m 1
 -27 697 l 1
 12 697 l 1
 21 739 l 1
 93 739 l 1
 85 699 l 1
 124 699 l 1
 108 627 l 1
 69 627 l 1
 61 587 l 1
 -11 587 l 1
 -3 628 l 1
 -42 628 l 1
EndSplineSet
EndChar
StartChar: uni0E4C.low
Encoding: 330 63246 329
Width: 0
VWidth: 1333
Flags: HW
HStem: 636 72<-11.1116 75>
VStem: -91 205<587 708>
AnchorPoint: "AboveBase" 56.7324 568 mark 0
Fore
-5 636 m 2
 -9 635 -9 636 -10 632 c 2
 -19 587 l 1
 -91 587 l 1
 -82 632 l 2
 -75 662 -51 708 10 708 c 2
 114 708 l 1
 75 636 l 1
 -5 636 l 2
-8 635 m 1
 -8 635 l 1
EndSplineSet
EndChar
StartChar: uni0E0D.descless
Encoding: 331 63247 330
Width: 842
VWidth: 1333
Flags: HW
HStem: -7 68<528.5 684.5> 472 68<299.8 436.3>
VStem: 433 72<83.4 193.875> 471 72<331.767 454.4>
Fore
122 362 m 1xd0
 190 511 310 540 371 540 c 0
 473 540 543 470 543 377 c 0xd0
 543 364 542 351 539 337 c 2
 508 195 l 2
 506 184 505 174 505 164 c 0
 505 102 545 61 600 61 c 0
 665 61 734 118 750 195 c 2
 822 534 l 1
 893 534 l 1
 821 195 l 2
 797 86 695 -7 586 -7 c 0
 492 -7 433 62 433 150 c 0xe0
 433 165 435 180 438 195 c 2
 468 336 l 2
 470 347 471 357 471 366 c 0
 471 434 418 472 357 472 c 0
 313 472 244 452 203 384 c 1
 280 336 l 1
 251 324 l 2
 217 309 197 294 188 249 c 2
 149 68 l 1
 208 68 l 1
 170 0 l 1
 64 0 l 1
 117 248 l 2
 124 279 147 310 173 332 c 1
 122 362 l 1xd0
EndSplineSet
EndChar
StartChar: uni0E31.left
Encoding: 332 63248 331
Width: 0
VWidth: 1333
Flags: HW
HStem: 587 72<-173 136>
VStem: -261 460<587 659>
Fore
-173 659 m 5
 199 659 l 5
 136 587 l 5
 -261 587 l 5
 -234 711 l 5
 -162 711 l 5
 -173 659 l 5
EndSplineSet
EndChar
StartChar: uni0E4D.left
Encoding: 333 63249 332
Width: 0
VWidth: 1333
Flags: HW
HStem: 585 52<-115.2 -72.3> 688 52<-110.7 -66.5>
VStem: -170 53<641.981 679.4> -65 53<648.2 683.019>
Fore
-12 679 m 0
 -12 632 -58 585 -108 585 c 0
 -145 585 -170 611 -170 647 c 0
 -170 691 -127 740 -75 740 c 0
 -38 740 -12 713 -12 679 c 0
-86 688 m 0
 -105 688 -117 674 -117 656 c 0
 -117 646 -111 637 -97 637 c 0
 -78 637 -65 653 -65 669 c 0
 -65 679 -71 688 -86 688 c 0
EndSplineSet
EndChar
StartChar: uni0E47.left
Encoding: 334 63250 333
Width: 0
VWidth: 1333
Flags: HW
HStem: 577 73<-145.53 -91.35> 709 72<-340.6 -14>
Fore
-421 666 m 0
 -421 727 -353 781 -282 781 c 2
 26 781 l 1
 -14 709 l 1
 -299 709 l 2
 -331 708 -348 694 -348 680 c 0
 -348 670 -338 661 -319 659 c 1
 -232 708 l 1
 -146 656 l 2
 -136 651 -126 650 -115 650 c 0
 -104 650 -92 652 -80 655 c 2
 -65 660 l 1
 -53 593 l 1
 -70 588 l 2
 -90 581 -111 577 -131 577 c 0
 -152 577 -173 582 -190 591 c 2
 -245 625 l 1
 -313 587 l 1
 -323 587 l 2
 -372 587 -421 615 -421 666 c 0
EndSplineSet
EndChar
StartChar: uni0E48.left
Encoding: 335 63251 334
Width: 0
VWidth: 1333
Flags: HW
VStem: -82 102<763 904>
Fore
-10 763 m 5
 -82 763 l 5
 -52 904 l 5
 20 904 l 5
 -10 763 l 5
EndSplineSet
EndChar
StartChar: uni0E49.left
Encoding: 336 63252 335
Width: 0
VWidth: 1333
Flags: HW
HStem: 763 72<-80 56>
VStem: -214 310<831 835>
Fore
-154 827 m 1
 -153 829 -152 831 -157 831 c 2
 -214 831 l 1
 -174 903 l 1
 -141 903 l 2
 -93 903 -79 873 -79 846 c 0
 -79 842 -79 839 -80 835 c 1
 96 835 l 1
 56 763 l 1
 -167 763 l 1
 -154 827 l 1
EndSplineSet
EndChar
StartChar: uni0E4A.left
Encoding: 337 63253 336
Width: 0
VWidth: 1333
Flags: HW
HStem: 763 72<-127.4 -107 127 224> 863 70<-113.1 -68.9>
Fore
-201 830 m 0
 -201 872 -161 933 -78 933 c 0
 -26 933 -3 905 7 879 c 1
 75 921 l 1
 145 921 l 1
 127 835 l 1
 264 835 l 1
 224 763 l 1
 41 763 l 1
 56 832 l 1
 -60 758 l 1
 -57 816 l 2
 -56 852 -74 863 -91 863 c 0
 -108 863 -124 853 -125 847 c 0
 -126 842 -125 836 -117 836 c 2
 -92 836 l 1
 -107 764 l 1
 -132 764 l 2
 -176 764 -201 795 -201 830 c 0
EndSplineSet
EndChar
StartChar: uni0E4B.left
Encoding: 338 63254 337
Width: 0
VWidth: 1333
Flags: HW
HStem: 804 69<-97 -73 14 37>
VStem: -112 165<804 875>
Fore
-112 804 m 1
 -97 873 l 1
 -58 873 l 1
 -50 915 l 1
 22 915 l 1
 14 875 l 1
 53 875 l 1
 37 803 l 1
 -1 803 l 1
 -10 763 l 1
 -82 763 l 1
 -73 804 l 1
 -112 804 l 1
EndSplineSet
EndChar
StartChar: uni0E4C.left
Encoding: 339 63255 338
Width: 0
VWidth: 1333
Flags: HW
HStem: 812 72<-1.11159 84>
VStem: -82 205<763 884>
Fore
5 812 m 6
 1 811 1 812 0 808 c 6
 -10 763 l 5
 -82 763 l 5
 -72 808 l 6
 -67 831 -41 884 20 884 c 6
 123 884 l 5
 84 812 l 5
 5 812 l 6
1 811 m 5
 1 811 l 5
EndSplineSet
EndChar
StartChar: uni0E38.low
Encoding: 340 63256 339
Width: 0
VWidth: 1333
Flags: HW
HStem: -220 20G<-222 -107>
VStem: -261 154<-272 -200>
Fore
-222 -200 m 1
 -107 -200 l 1
 -148 -395 l 1
 -220 -395 l 1
 -194 -272 l 1
 -261 -272 l 1
 -222 -200 l 1
EndSplineSet
EndChar
StartChar: uni0E39.low
Encoding: 341 63257 340
Width: 0
VWidth: 1333
Flags: HW
HStem: -395 72<-283.9 -218.9> -220 20G<-367 -277 -179 -107>
VStem: -368 74<-312.9 -270.243>
Fore
-368 -299 m 0
 -368 -280 -364 -272 -364 -272 c 1
 -407 -272 l 1
 -367 -200 l 1
 -277 -200 l 1
 -293 -273 l 2
 -294 -277 -294 -280 -294 -283 c 0
 -294 -306 -277 -323 -254 -323 c 0
 -227 -323 -200 -300 -194 -273 c 2
 -179 -200 l 1
 -107 -200 l 1
 -122 -273 l 2
 -136 -341 -202 -395 -269 -395 c 0
 -328 -395 -368 -354 -368 -299 c 0
EndSplineSet
EndChar
StartChar: uni0E3A.low
Encoding: 342 63258 341
Width: 0
VWidth: 1333
Flags: HW
HStem: -301 98<-188.5 -118.5>
Fore
-204 -262 m 0
 -204 -235 -178 -203 -143 -203 c 0
 -120 -203 -103 -220 -103 -242 c 0
 -103 -269 -129 -301 -164 -301 c 0
 -187 -301 -204 -284 -204 -262 c 0
EndSplineSet
EndChar
StartChar: uniF780
Encoding: 343 63360 342
Width: 405
VWidth: 1333
Flags: HW
HStem: 0 21G<271 342> 472 68<221 349> 572 52<-118.5 -75.6> 675 52<-108.5 -69.5>
VStem: -173 53<628.981 669> -68 53<632.9 670.025> 349 72<347.133 447.8>
Fore
-15 665 m 0
 -15 620 -59 572 -110 572 c 0
 -147 572 -173 599 -173 633 c 0
 -173 677 -130 727 -78 727 c 0
 -41 727 -15 700 -15 665 c 0
-89 675 m 0
 -104 675 -120 663 -120 643 c 0
 -120 633 -114 624 -99 624 c 0
 -81 624 -68 638 -68 655 c 0
 -68 666 -74 675 -89 675 c 0
155 491 m 1
 189 513 236 540 286 540 c 0
 382 540 421 480 421 400 c 0
 421 380 419 359 414 337 c 2
 342 0 l 1
 271 0 l 1
 343 337 l 2
 347 354 349 371 349 388 c 0
 349 434 331 472 271 472 c 0
 223 472 167 429 137 408 c 1
 155 491 l 1
EndSplineSet
EndChar
StartChar: uniF781
Encoding: 344 63361 343
Width: 0
VWidth: 1333
Flags: HW
HStem: 636 63<-206.6 -153.846> 940 65<-62 94.7325>
VStem: -163 67<858 909.5>
Fore
-163 858 m 0
 -163 939 -65 1005 58 1005 c 0
 86 1005 106 1002 127 999 c 1
 102 934 l 1
 84 937 67 940 42 940 c 0
 -38 940 -96 902 -96 877 c 0
 -96 865 -83 854 -52 849 c 1
 14 849 l 1
 -63 784 l 1
 -81 784 l 2
 -207 784 -217 728 -217 721 c 0
 -217 712 -200 699 -178 699 c 0
 -162 699 -144 705 -129 724 c 1
 -80 692 l 1
 -96 673 -124 636 -190 636 c 0
 -241 636 -284 662 -284 706 c 0
 -284 758 -242 814 -160 838 c 1
 -162 844 -163 851 -163 858 c 0
EndSplineSet
EndChar
StartChar: uniF782
Encoding: 345 63362 344
Width: 610
VWidth: 1275
Flags: HW
HStem: -7 68<164 254.3 371.3 492.2> 379 68<436 540>
VStem: 92 72<77.1 152.013> 545 71<306.427 368.4>
Fore
177 533 m 1
 248 533 l 1
 168 158 l 2
 165 145 164 132 164 120 c 0
 164 87 176 61 216 61 c 0
 273 61 296 120 304 158 c 2
 341 333 l 1
 412 333 l 1
 375 158 l 2
 372 145 370 132 370 120 c 0
 370 87 383 61 422 61 c 0
 476 61 500 111 511 158 c 2
 543 312 l 2
 545 319 545 326 545 332 c 0
 545 360 531 379 501 379 c 2
 421 379 l 1
 436 447 l 1
 516 447 l 2
 553 447 578 475 586 513 c 2
 591 535 l 1
 661 535 l 1
 657 513 l 2
 648 473 622 436 589 411 c 1
 606 392 616 367 616 338 c 0
 616 329 615 319 613 309 c 2
 581 158 l 2
 557 45 484 -7 408 -7 c 0
 366 -7 333 9 314 41 c 1
 282 9 242 -7 201 -7 c 0
 138 -7 92 29 92 106 c 0
 92 121 94 139 98 158 c 2
 177 533 l 1
EndSplineSet
EndChar
StartChar: uniF783
Encoding: 346 63363 345
Width: 874
VWidth: 1267
Flags: HW
HStem: 0 21G<64 169> 466 68<689 817> 472 68<293 436.6>
VStem: 471 71<335.06 455.1> 817 72<342.38 441.5>
Fore
623 485 m 1xd8
 657 508 704 534 754 534 c 0
 850 534 889 474 889 394 c 0
 889 375 887 354 882 332 c 2
 771 -192 l 1
 700 -192 l 1
 811 332 l 2
 815 349 817 366 817 383 c 0
 817 428 799 466 739 466 c 0
 691 466 635 423 606 402 c 1
 623 485 l 1xd8
207 68 m 1
 169 0 l 1
 64 0 l 1
 117 248 l 2
 123 279 147 310 174 332 c 1
 122 362 l 1
 190 511 311 540 371 540 c 0
 472 540 542 470 542 378 c 0
 542 365 541 351 538 337 c 2
 426 -192 l 1
 355 -192 l 1
 467 337 l 2
 469 348 471 359 471 368 c 0
 471 435 418 472 356 472 c 0xb8
 303 472 240 445 202 384 c 1
 269 342 l 1
 244 332 199 306 187 248 c 2
 149 68 l 1
 207 68 l 1
EndSplineSet
EndChar
StartChar: uniF784
Encoding: 347 63364 346
Width: 874
VWidth: 1267
Flags: HW
HStem: 0 21G<12 134> 466 68<689 817> 472 68<292 436.6>
VStem: 470 72<331.767 454.1> 817 72<342.38 441.5>
Fore
623 485 m 1xd8
 657 508 704 534 754 534 c 0
 850 534 889 474 889 394 c 0
 889 375 887 354 882 332 c 2
 771 -192 l 1
 700 -192 l 1
 811 332 l 2
 815 349 817 366 817 383 c 0
 817 428 799 466 739 466 c 0
 691 466 635 423 606 402 c 1
 623 485 l 1xd8
12 0 m 1
 50 68 l 1
 78 68 l 1
 116 248 l 2
 123 279 146 310 173 332 c 1
 121 362 l 1
 190 511 310 540 370 540 c 0
 472 540 542 470 542 377 c 0
 542 364 541 351 538 337 c 2
 425 -192 l 1
 355 -192 l 1
 467 337 l 2
 469 348 470 358 470 367 c 0
 470 434 418 472 356 472 c 0xb8
 302 472 239 445 202 384 c 1
 269 342 l 1
 244 332 199 306 187 248 c 2
 134 0 l 1
 12 0 l 1
EndSplineSet
EndChar
StartChar: uniFB00
Encoding: 348 64256 347
Width: 507
VWidth: 1333
Flags: HW
HStem: 0 21G<64 136 313 385> 385 68<120 146 233 395 479 570> 581 59<296.6 420.1> 608 59<566 637>
Fore
483 600 m 1xe0
 524 640 579 667 634 667 c 2
 650 667 l 1
 637 608 l 1
 621 608 l 2xd0
 566 608 497 538 481 464 c 2
 479 453 l 1
 604 453 l 1
 570 385 l 1
 467 385 l 1
 385 0 l 1
 313 0 l 1
 395 385 l 1
 218 385 l 1
 136 0 l 1
 64 0 l 1
 146 385 l 1
 106 385 l 1
 120 453 l 1
 161 453 l 1
 187 556 280 640 380 640 c 0
 423 640 460 627 483 600 c 1xe0
233 453 m 1
 408 453 l 1
 411 464 l 2
 417 495 432 531 449 557 c 1
 435 573 412 581 385 581 c 0xe0
 317 581 253 528 233 453 c 1
EndSplineSet
LCarets2: 1 0 
Ligature2: "'liga' Standard Ligatures in Latin lookup 0" f f
EndChar
StartChar: uniFB01
Encoding: 349 64257 348
Width: 429
VWidth: 1333
Flags: HW
HStem: 0 21G<64 136 313 384> 385 68<120 146 232 395> 615 58<299.7 426.578>
VStem: 422 100<512.4 567.3>
Fore
461 503 m 0
 441 503 422 516 422 540 c 0
 422 561 438 584 459 593 c 1
 445 607 418 615 392 615 c 0
 321 615 254 556 237 477 c 2
 232 453 l 1
 480 453 l 1
 384 0 l 1
 313 0 l 1
 395 385 l 1
 218 385 l 1
 136 0 l 1
 64 0 l 1
 146 385 l 1
 106 385 l 1
 120 453 l 1
 160 453 l 1
 165 477 l 2
 188 585 284 673 387 673 c 0
 483 673 522 616 522 567 c 0
 522 525 488 503 461 503 c 0
EndSplineSet
LCarets2: 1 0 
Ligature2: "'liga' Standard Ligatures in Latin lookup 0" f i
EndChar
StartChar: uniFB02
Encoding: 350 64258 349
Width: 447
VWidth: 1333
Flags: HW
HStem: 0 21G<64 136 313 384> 385 68<120 146 232 325> 608 59<319 443>
VStem: 64 462<0 667>
Fore
384 0 m 1
 313 0 l 1
 443 608 l 1
 375 608 l 2
 319 608 252 544 236 471 c 2
 232 453 l 1
 364 453 l 1
 325 385 l 1
 218 385 l 1
 136 0 l 1
 64 0 l 1
 146 385 l 1
 106 385 l 1
 120 453 l 5
 160 453 l 1
 164 471 l 2
 187 577 284 667 386 667 c 2
 526 667 l 1
 384 0 l 1
EndSplineSet
LCarets2: 1 0 
Ligature2: "'liga' Standard Ligatures in Latin lookup 0" f l
EndChar
StartChar: uniFB03
Encoding: 351 64259 350
Width: 678
VWidth: 1333
Flags: HW
HStem: 0 21G<64 136 313 384 563 633> 385 68<120 146 233 395 480 645> 581 59<296.6 420.1> 608 59<562.2 675.214>
VStem: 665 99<506.4 563>
Fore
665 535 m 0xd8
 665 556 682 577 702 587 c 1
 687 601 666 608 640 608 c 0xd8
 569 608 501 550 484 471 c 2
 480 453 l 1
 730 453 l 1
 633 0 l 1
 563 0 l 1
 645 385 l 1
 466 385 l 1
 384 0 l 1
 313 0 l 1
 395 385 l 1
 218 385 l 1
 136 0 l 1
 64 0 l 1
 146 385 l 1
 106 385 l 1
 120 453 l 1
 161 453 l 1
 187 556 280 640 380 640 c 0xe8
 438 640 469 618 485 600 c 1
 525 640 579 667 635 667 c 0
 729 667 764 612 764 563 c 0
 764 518 731 496 704 496 c 0
 680 496 665 513 665 535 c 0xd8
233 453 m 1
 410 453 l 1
 413 471 l 2
 420 501 432 531 449 557 c 1
 434 573 412 581 385 581 c 0xe8
 317 581 253 528 233 453 c 1
EndSplineSet
LCarets2: 2 0 0 
Ligature2: "'liga' Standard Ligatures in Latin lookup 0" f f i
EndChar
StartChar: uniFB04
Encoding: 352 64260 351
Width: 681
VWidth: 1333
Flags: HW
HStem: 0 21G<64 136 313 385 563 633> 385 68<120 146 233 395 482 575> 581 59<296.6 420.1> 608 59<562.2 692>
Fore
613 453 m 1xd0
 575 385 l 1
 467 385 l 1
 385 0 l 1
 313 0 l 1
 395 385 l 1
 218 385 l 1
 136 0 l 1
 64 0 l 1
 146 385 l 1
 106 385 l 1
 120 453 l 1
 161 453 l 1
 187 556 280 640 380 640 c 0xe0
 438 640 469 618 485 600 c 1
 525 640 579 667 635 667 c 2
 775 667 l 1
 633 0 l 1
 563 0 l 1
 692 608 l 1
 640 608 l 2
 569 608 502 550 485 471 c 2
 482 453 l 1
 613 453 l 1xd0
233 453 m 1
 410 453 l 1
 413 471 l 2
 420 501 432 531 449 557 c 1
 434 573 412 581 385 581 c 0
 317 581 253 528 233 453 c 1
EndSplineSet
LCarets2: 2 0 0 
Ligature2: "'liga' Standard Ligatures in Latin lookup 0" f f l
EndChar
